<svg xmlns="http://www.w3.org/2000/svg" viewBox="0 0 96 96"><defs><style>.cls-1,.cls-2{fill:#f05064;}.cls-1{opacity:0.2;}.cls-3,.cls-4{fill:#fff;}.cls-3{opacity:0.5;}</style></defs><title>ax-attck-rad</title><g id="图层_2" data-name="图层 2"><g id="确认方案"><circle class="cls-1" cx="48" cy="48" r="48"/><circle class="cls-2" cx="48" cy="48" r="42"/><path class="cls-3" d="M48,9A39,39,0,1,1,9,48,39.05,39.05,0,0,1,48,9m0-1A40,40,0,1,0,88,48,40,40,0,0,0,48,8Z"/><path class="cls-4" d="M48.28,24v2.67a37.82,37.82,0,0,1,16,3.68A23.92,23.92,0,0,0,48.28,24Z"/><path class="cls-4" d="M24.66,42.43a23.93,23.93,0,0,0,2.08,16.7l2.31-1.33A35.23,35.23,0,0,1,24.66,42.43Z"/><path class="cls-4" d="M29.38,58.38l-2.33,1.33A24.07,24.07,0,0,0,42.42,71.34,35.81,35.81,0,0,1,29.38,58.38Z"/><path class="cls-4" d="M47.61,24a23.87,23.87,0,0,0-15.87,6.34,37.85,37.85,0,0,1,15.87-3.68Z"/><path class="cls-4" d="M71.35,42.43a35.5,35.5,0,0,1-4.42,15.42l2.31,1.32A23.89,23.89,0,0,0,72,48,24.33,24.33,0,0,0,71.35,42.43Z"/><path class="cls-4" d="M53.58,71.34A24.06,24.06,0,0,0,68.92,59.76L66.6,58.42A35.78,35.78,0,0,1,53.58,71.34Z"/><path class="cls-4" d="M68.43,36l.28-.16-.34-.57-.4.23.43.3Z"/><path class="cls-4" d="M28,35.53l-.4-.23-.34.57.28.16,0-.2Z"/><path class="cls-4" d="M47.67,71v1h.66V71l-.33.13Z"/><path class="cls-4" d="M47.61,33.88V29.34A35.57,35.57,0,0,0,28,35.53l8.18,4.69A14.12,14.12,0,0,1,47.61,33.88Z"/><path class="cls-4" d="M59.79,40.22,68,35.53a35.55,35.55,0,0,0-19.69-6.19v4.54A14.1,14.1,0,0,1,59.79,40.22Z"/><path class="cls-4" d="M31.36,56.47l4-2.27a14,14,0,0,1,.54-13.41L27.57,36A33.12,33.12,0,0,0,31.36,56.47Z"/><path class="cls-4" d="M62.13,48a14.13,14.13,0,0,1-1.47,6.25l4,2.27A33.05,33.05,0,0,0,68.43,36l-8.29,4.76A14,14,0,0,1,62.13,48Z"/><path class="cls-4" d="M35.62,54.8l-3.93,2.25A33.66,33.66,0,0,0,47.67,71V62.11A14.14,14.14,0,0,1,35.62,54.8Z"/><path class="cls-4" d="M64.28,57.1l-3.93-2.26a14.12,14.12,0,0,1-12,7.27V71A33.56,33.56,0,0,0,64.28,57.1Z"/><path class="cls-4" d="M35.47,48A12.53,12.53,0,1,0,48,35.46,12.54,12.54,0,0,0,35.47,48Zm14-9v8H54L46.5,57V49H42Z"/></g></g></svg>