<svg xmlns="http://www.w3.org/2000/svg" viewBox="0 0 96 96"><defs><style>.cls-1,.cls-2{fill:#0eaf53;}.cls-1{opacity:0.2;}.cls-3{opacity:0.5;}.cls-4{fill:#fff;}</style></defs><title>ax-operation-green</title><g id="图层_2" data-name="图层 2"><g id="确认方案"><circle class="cls-1" cx="48" cy="48" r="48"/><circle class="cls-2" cx="48" cy="48" r="42"/><g class="cls-3"><path class="cls-4" d="M48,9A39,39,0,1,1,9,48,39.05,39.05,0,0,1,48,9m0-1A40,40,0,1,0,88,48,40,40,0,0,0,48,8Z"/></g><path class="cls-4" d="M44,64.32A16.87,16.87,0,0,1,33.3,56.13l-6.24,3.59A24,24,0,0,0,47.67,72V68A4,4,0,0,1,44,64.32Z"/><path class="cls-4" d="M31.2,48A16.62,16.62,0,0,1,32,42.79a4,4,0,0,1-1.24-4.9l-3.5-2a24,24,0,0,0-.55,23.25L33,55.54A16.76,16.76,0,0,1,31.2,48Z"/><path class="cls-4" d="M61.63,35.56a4,4,0,0,1,3.29,1.72l3.45-2A24,24,0,0,0,48.28,24v7.2A16.69,16.69,0,0,1,59.76,36,3.92,3.92,0,0,1,61.63,35.56Z"/><path class="cls-4" d="M68.71,35.88l-3.46,2a4,4,0,0,1,.38,1.7A4,4,0,0,1,64,42.79a16.75,16.75,0,0,1-1,12.8l6.26,3.59a24,24,0,0,0-.53-23.3Z"/><path class="cls-4" d="M34.41,35.58a4,4,0,0,1,1.83.44,16.73,16.73,0,0,1,11.37-4.81V24a24,24,0,0,0-20,11.3l3.49,2A4,4,0,0,1,34.41,35.58Z"/><path class="cls-4" d="M52,64.32A4,4,0,0,1,48.33,68v4A24,24,0,0,0,68.92,59.76l-6.25-3.58A16.85,16.85,0,0,1,52,64.32Z"/><path class="cls-4" d="M47.61,42.69V32.81A15.13,15.13,0,0,0,37.5,37,4,4,0,0,1,38,41.27l5.84,3.35A5.33,5.33,0,0,1,47.61,42.69Z"/><path class="cls-4" d="M63.2,48a15.12,15.12,0,0,0-.69-4.54,4.32,4.32,0,0,1-.88.1,4,4,0,0,1-3.29-1.73l-5.83,3.34A5.28,5.28,0,0,1,53,49.86l8.6,4.93A15,15,0,0,0,63.2,48Z"/><path class="cls-4" d="M52.13,44.62,58,41.25a4,4,0,0,1-.38-1.69A4,4,0,0,1,58.52,37a15.15,15.15,0,0,0-10.24-4.23v9.87A5.36,5.36,0,0,1,52.13,44.62Z"/><path class="cls-4" d="M48.33,53.32V60a4,4,0,0,1,3.46,2.7,15.26,15.26,0,0,0,9.49-7.34l-8.56-4.91A5.33,5.33,0,0,1,48.33,53.32Z"/><path class="cls-4" d="M37.7,41.85a4,4,0,0,1-4.21,1.62,15.19,15.19,0,0,0,.89,11.27L43,49.81A5.18,5.18,0,0,1,42.67,48a5.26,5.26,0,0,1,.82-2.83Z"/><path class="cls-4" d="M43.25,50.42l-8.56,4.91a15.24,15.24,0,0,0,9.52,7.39A4,4,0,0,1,47.67,60v-6.7A5.33,5.33,0,0,1,43.25,50.42Z"/></g></g></svg>