<svg xmlns="http://www.w3.org/2000/svg" viewBox="0 0 96 96"><defs><style>.cls-1,.cls-2{fill:#0eaf53;}.cls-1{opacity:0.2;}.cls-3{opacity:0.5;}.cls-4{fill:#fff;}</style></defs><title>ax-risk-green</title><g id="图层_2" data-name="图层 2"><g id="确认方案"><circle class="cls-1" cx="48" cy="48" r="48"/><circle class="cls-2" cx="48" cy="48" r="42"/><g class="cls-3"><path class="cls-4" d="M48,9A39,39,0,1,1,9,48,39.05,39.05,0,0,1,48,9m0-1A40,40,0,1,0,88,48,40,40,0,0,0,48,8Z"/></g><path class="cls-4" d="M57.33,48a9.23,9.23,0,0,1-.84,3.86l8.11,4.66a18.57,18.57,0,0,0-.29-17.58l-8.09,4.64A9.29,9.29,0,0,1,57.33,48Z"/><path class="cls-4" d="M48.33,52v2.67a6.66,6.66,0,0,0,5.55-3.52l-2.31-1.32A4,4,0,0,1,48.33,52Z"/><path class="cls-4" d="M44,48a4,4,0,0,1,.64-2.17l-2.31-1.32a6.56,6.56,0,0,0-.51,6l2.34-1.35A4.23,4.23,0,0,1,44,48Z"/><path class="cls-4" d="M65.79,36.25l2.32-1.34A24,24,0,0,0,48.28,24v2.66A21.32,21.32,0,0,1,65.79,36.25Z"/><path class="cls-4" d="M69.33,48a21.15,21.15,0,0,1-2.41,9.84l2.32,1.34a24,24,0,0,0-.3-22.9l-2.32,1.33A21.14,21.14,0,0,1,69.33,48Z"/><path class="cls-4" d="M52,48a3.83,3.83,0,0,1-.18,1.18l2.35,1.35a6.61,6.61,0,0,0-.27-5.62l-2.31,1.33A4,4,0,0,1,52,48Z"/><path class="cls-4" d="M47.61,38.69V29.34A18.68,18.68,0,0,0,32.27,38l8.12,4.65A9.29,9.29,0,0,1,47.61,38.69Z"/><path class="cls-4" d="M38.67,48A9.32,9.32,0,0,1,40,43.18l-8.1-4.65a18.61,18.61,0,0,0-.55,17.94l8.12-4.66A9.3,9.3,0,0,1,38.67,48Z"/><path class="cls-4" d="M55.33,42.25l8.15-4.68a18.67,18.67,0,0,0-15.2-8.23v9.34A9.3,9.3,0,0,1,55.33,42.25Z"/><path class="cls-4" d="M50.6,45,53,43.59a6.69,6.69,0,0,0-4.71-2.24V44A4.05,4.05,0,0,1,50.6,45Z"/><path class="cls-4" d="M44.41,49.76,42.1,51.09a6.66,6.66,0,0,0,5.57,3.56V52A4,4,0,0,1,44.41,49.76Z"/><path class="cls-4" d="M26.67,48a21.15,21.15,0,0,1,2.94-10.79l-2.32-1.33a24,24,0,0,0-.55,23.25l2.32-1.33A21.16,21.16,0,0,1,26.67,48Z"/><path class="cls-4" d="M29.37,58.39l-2.31,1.33A24,24,0,0,0,47.67,72V69.33A21.39,21.39,0,0,1,29.37,58.39Z"/><path class="cls-4" d="M48.33,69.33V72A24,24,0,0,0,68.92,59.76L66.6,58.43A21.37,21.37,0,0,1,48.33,69.33Z"/><path class="cls-4" d="M48.33,57.32v9.34a18.69,18.69,0,0,0,16-9.56L56.2,52.46A9.36,9.36,0,0,1,48.33,57.32Z"/><path class="cls-4" d="M47.61,26.68V24a24,24,0,0,0-20,11.3L30,36.64A21.32,21.32,0,0,1,47.61,26.68Z"/><path class="cls-4" d="M39.78,52.41l-8.09,4.65a18.68,18.68,0,0,0,16,9.6V57.32A9.33,9.33,0,0,1,39.78,52.41Z"/><path class="cls-4" d="M47.61,44V41.35A6.67,6.67,0,0,0,42.71,44l2.34,1.34A4,4,0,0,1,47.61,44Z"/></g></g></svg>