
<!-- Generator: Adobe Illustrator 25.0.0, SVG Export Plug-In . SVG Version: 6.00 Build 0)  -->
<svg version="1.1" id="图层_1" xmlns="http://www.w3.org/2000/svg" xmlns:xlink="http://www.w3.org/1999/xlink" x="0px" y="0px"
	 viewBox="0 0 256 256" style="enable-background:new 0 0 256 256;" xml:space="preserve">
<style type="text/css">
	.st0{fill:url(#SVGID_1_);}
	.st1{fill:#18B666;}
	.st2{fill:url(#SVGID_2_);}
	.st3{fill:url(#SVGID_3_);}
	.st4{fill:url(#SVGID_4_);}
	.st5{fill:url(#SVGID_5_);}
	.st6{fill:#FFFFFF;}
	.st7{fill:#01D06A;}
	.st8{fill:#010101;}
</style>
<g>
	
		<linearGradient id="SVGID_1_" gradientUnits="userSpaceOnUse" x1="131.3" y1="-2021.9752" x2="131.3" y2="-1997.9276" gradientTransform="matrix(1 0 0 -1 0 -1971.9999)">
		<stop  offset="0.1277" style="stop-color:#1CA05E"/>
		<stop  offset="0.9985" style="stop-color:#20BC80"/>
	</linearGradient>
	<path class="st0" d="M67,25.9h128.6c1.8,0,3.4,0.4,5,1.2L246,49.9H16.6L62,27.1C63.6,26.4,65.3,25.9,67,25.9z"/>
	<path class="st1" d="M238.6,222H20.2c-2,0-3.6-1.7-3.6-3.6V49.9H246v164.6C246,218.7,242.7,222,238.6,222z"/>
	
		<linearGradient id="SVGID_2_" gradientUnits="userSpaceOnUse" x1="16.6" y1="-2107.95" x2="246" y2="-2107.95" gradientTransform="matrix(1 0 0 -1 0 -1971.9999)">
		<stop  offset="0.6796" style="stop-color:#18B666;stop-opacity:0"/>
		<stop  offset="0.9989" style="stop-color:#188E66"/>
	</linearGradient>
	<path class="st2" d="M238.6,222H20.2c-2,0-3.6-1.7-3.6-3.6V50.2c0-0.2,0.1-0.3,0.3-0.3h228.8c0.2,0,0.3,0.1,0.3,0.3v164.4
		C246,218.7,242.7,222,238.6,222z"/>
	
		<linearGradient id="SVGID_3_" gradientUnits="userSpaceOnUse" x1="-8976" y1="-2107.95" x2="-8746.5996" y2="-2107.95" gradientTransform="matrix(-1 0 0 -1 -8730 -1971.9999)">
		<stop  offset="0.6803" style="stop-color:#18B666;stop-opacity:0"/>
		<stop  offset="0.9992" style="stop-color:#188E66;stop-opacity:0.6"/>
	</linearGradient>
	<path class="st3" d="M24,222h218.4c2,0,3.6-1.7,3.6-3.6V50.2c0-0.2-0.1-0.3-0.3-0.3H16.9c-0.2,0-0.3,0.1-0.3,0.3v164.4
		C16.6,218.7,20,222,24,222z"/>
	
		<linearGradient id="SVGID_4_" gradientUnits="userSpaceOnUse" x1="-8861.2998" y1="-2194" x2="-8861.2998" y2="-2021.8999" gradientTransform="matrix(-1 0 0 -1 -8730 -1971.9999)">
		<stop  offset="0.6814" style="stop-color:#00BE2D;stop-opacity:0"/>
		<stop  offset="1" style="stop-color:#188E66;stop-opacity:0.6"/>
	</linearGradient>
	<path class="st4" d="M24,222h218.4c2,0,3.6-1.7,3.6-3.6V50.2c0-0.2-0.1-0.3-0.3-0.3H16.9c-0.2,0-0.3,0.1-0.3,0.3v164.4
		C16.6,218.7,20,222,24,222z"/>
	
		<linearGradient id="SVGID_5_" gradientUnits="userSpaceOnUse" x1="-8861.2998" y1="-2194" x2="-8861.2998" y2="-2021.8999" gradientTransform="matrix(-1 0 0 -1 -8730 -1971.9999)">
		<stop  offset="0.2845" style="stop-color:#18B666"/>
		<stop  offset="0.9989" style="stop-color:#18CA80"/>
	</linearGradient>
	<path class="st5" d="M24,222h218.4c2,0,3.6-1.7,3.6-3.6V50.2c0-0.2-0.1-0.3-0.3-0.3H16.9c-0.2,0-0.3,0.1-0.3,0.3v164.4
		C16.6,218.7,20,222,24,222z"/>
	<g>
		<path class="st6" d="M113,133.4l-10.3,10.3c-0.5,0.5-0.5,1.1,0,1.6l10.3,10.3c0.5,0.5,1.1,0.5,1.6,0l10.3-10.3
			c0.5-0.5,0.5-1.1,0-1.6l-10.3-10.3C114.1,132.9,113.5,132.9,113,133.4z"/>
		<path class="st6" d="M178.2,126.9L178.2,126.9l-46.1-46.1c-0.5-0.5-1.1-0.5-1.6,0l-54.1,54.1c-6.3,6.3-9.7,14.6-9.7,23.4
			c0,8.9,3.4,17.2,9.7,23.4c6.5,6.5,15,9.7,23.4,9.7s17-3.2,23.4-9.7l36.6-36.6c0.5-0.5,0.5-1.1,0-1.6l-10.3-10.3
			c-0.5-0.5-1.1-0.5-1.6,0l-36.6,36.6c-3.2,3.2-7.4,4.8-11.7,4.8c-4.6,0-9.2-1.9-12.5-5.8c-2.2-2.6-3.6-5.9-3.9-9.3
			c-0.4-4.8,1.4-9.4,4.8-12.9l43.1-43l0,0l43,43c3.1,3.1,4.8,7.2,4.8,11.7s-1.8,8.5-4.8,11.7l0,0c-6.4,6.4-16.8,6.4-23.2,0l-1.5-1.5
			c-0.5-0.5-1.1-0.5-1.6,0l-10.3,10.2c-0.5,0.5-0.5,1.1,0,1.6l1.5,1.5c6.5,6.5,15,9.7,23.4,9.7s17-3.2,23.4-9.7
			c6.4-6.4,9.8-14.8,9.7-23.8c-0.1-8.8-3.8-17.2-10-23.4L178.2,126.9z"/>
	</g>
</g>
<circle class="st6" cx="51" cy="205" r="51"/>
<g>
	<polygon class="st7" points="47.5,180.1 51.4,193.2 20.7,193.2 24.7,180.1 	"/>
	<polygon class="st8" points="27.7,195.6 40.9,198.8 25.6,225.3 16.3,215.4 	"/>
	<polygon class="st7" points="31.2,220.5 40.5,210.6 55.9,237.1 42.6,240.3 31.2,220.5 	"/>
	<polyline class="st8" points="77.3,229.8 54.5,229.8 50.6,216.8 81.3,216.8 	"/>
	<polyline class="st7" points="85.7,194.5 74.3,214.4 61.1,211.3 76.4,184.7 	"/>
	<polygon class="st8" points="70.8,189.5 61.5,199.4 46.1,172.8 59.4,169.7 70.8,189.5 	"/>
</g>
</svg>
