<?xml version="1.0" encoding="UTF-8"?>
<svg width="48px" height="48px" viewBox="0 0 48 48" version="1.1" xmlns="http://www.w3.org/2000/svg" xmlns:xlink="http://www.w3.org/1999/xlink">
    <title>编组 3</title>
    <g id="页面-1" stroke="none" stroke-width="1" fill="none" fill-rule="evenodd">
        <g id="安装与升级-弹窗" transform="translate(-828.000000, -778.000000)" fill="#18BA79">
            <g id="反馈/对话框/标题+文本框/2bt-错误备份-2" transform="translate(780.000000, 730.000000)">
                <g id="编组-3" transform="translate(48.000000, 48.000000)">
                    <path d="M24,13.6375839 C23.0511081,13.6375839 22.2818792,12.868355 22.2818792,11.9194631 L22.2818792,1.71812081 C22.2818792,0.769228886 23.0511081,0 24,0 C24.9488919,0 25.7181208,0.769228886 25.7181208,1.71812081 L25.7181208,11.9194631 C25.7181208,12.868355 24.9488919,13.6375839 24,13.6375839 Z" id="路径" fill-opacity="0.3"></path>
                    <path d="M24,47.9994631 C23.0511081,47.9994631 22.2818792,47.2302342 22.2818792,46.2813423 L22.2818792,36.08 C22.2818792,35.1311081 23.0511081,34.3618792 24,34.3618792 C24.9488919,34.3618792 25.7181208,35.1311081 25.7181208,36.08 L25.7181208,46.2813423 C25.7181208,47.2302342 24.9488919,47.9994631 24,47.9994631 Z" id="路径" fill-opacity="0.7"></path>
                    <path d="M46.2818792,25.7175839 L36.0805369,25.7175839 C35.131645,25.7175839 34.3624161,24.948355 34.3624161,23.9994631 C34.3624161,23.0505712 35.131645,22.2813423 36.0805369,22.2813423 L46.2818792,22.2813423 C47.2307711,22.2813423 48,23.0505712 48,23.9994631 C48,24.948355 47.2307711,25.7175839 46.2818792,25.7175839 Z" id="路径" fill-opacity="0.9"></path>
                    <path d="M11.9194631,25.7175839 L1.71812081,25.7175839 C0.769228886,25.7175839 0,24.948355 0,23.9994631 C0,23.0505712 0.769228886,22.2813423 1.71812081,22.2813423 L11.9194631,22.2813423 C12.868355,22.2813423 13.6375839,23.0505712 13.6375839,23.9994631 C13.6375839,24.948355 12.868355,25.7175839 11.9194631,25.7175839 Z" id="路径" fill-opacity="0.5"></path>
                    <path d="M32.5422819,17.1758397 C31.8472807,17.1759511 31.220664,16.7573431 30.9546834,16.115252 C30.6887027,15.4731609 30.8357522,14.7340685 31.3272483,14.2426846 L38.5406711,7.02926174 C39.2143495,6.37499456 40.2885307,6.38284501 40.9525744,7.04688869 C41.6166181,7.71093238 41.6244685,8.78511363 40.9702013,9.45879195 L33.7567785,16.6722148 C33.4351004,16.9950251 32.9980046,17.1762788 32.5422819,17.1758397 Z" id="路径"></path>
                    <path d="M8.2442953,41.4732904 C7.5484467,41.4740555 6.92084641,41.0550289 6.65480807,40.4120441 C6.38876972,39.7690593 6.53683269,39.029098 7.02979866,38.5379866 L14.2432215,31.3267114 C14.6777907,30.8927176 15.3108822,30.7235308 15.9040164,30.8828819 C16.4971506,31.042233 16.9602165,31.5059129 17.1187815,32.0992577 C17.2773465,32.6926026 17.1073209,33.3254693 16.6727517,33.7594631 L9.45932886,40.9702013 C9.13739748,41.2928965 8.7001149,41.4739542 8.2442953,41.4732904 L8.2442953,41.4732904 Z" id="路径" fill-opacity="0.6"></path>
                    <path d="M39.7557047,41.4732904 C39.2998851,41.4739542 38.8626025,41.2928965 38.5406711,40.9702013 L31.3272483,33.7594631 C30.6562039,33.0885668 30.6560837,32.000709 31.3269799,31.3296645 C31.9978761,30.65862 33.085734,30.6584998 33.7567785,31.329396 L40.9702013,38.5379866 C41.4616284,39.0293014 41.6087119,39.7682637 41.342869,40.410306 C41.0770261,41.0523484 40.4506082,41.471036 39.7557047,41.4711409 L39.7557047,41.4732904 Z" id="路径" fill-opacity="0.8"></path>
                    <path d="M15.4577181,17.1758397 C15.0019954,17.1762788 14.5648996,16.9950251 14.2432215,16.6722148 L7.02979866,9.45879195 C6.37553147,8.78511363 6.38338192,7.71093238 7.04742561,7.04688869 C7.71146929,6.38284501 8.78565055,6.37499456 9.45932886,7.02926174 L16.6727517,14.2426846 C17.1642478,14.7340685 17.3112973,15.4731609 17.0453166,16.115252 C16.779336,16.7573431 16.1527193,17.1759511 15.4577181,17.1758397 Z" id="路径" fill-opacity="0.4"></path>
                </g>
            </g>
        </g>
    </g>
</svg>