<?xml version="1.0" encoding="UTF-8"?>
<svg width="24px" height="24px" viewBox="0 0 24 24" version="1.1" xmlns="http://www.w3.org/2000/svg" xmlns:xlink="http://www.w3.org/1999/xlink">
    <title>图标/功能/资产&gt;/进程</title>
    <g id="图标/功能/资产&gt;/进程" stroke="none" stroke-width="1" fill="none" fill-rule="evenodd">
        <path d="M14.9545455,9.67454546 L9.04545454,9.67454546 C7.90909091,9.67454546 6.99999999,10.5836364 6.99999999,11.72 L6.99999999,12.1745455 C6.99999999,13.3109091 7.90909091,14.22 9.04545454,14.22 L14.9545455,14.22 C16.0909091,14.22 17,13.3109091 17,12.1745455 L17,11.72 C17,10.5836364 16.0909091,9.67454546 14.9545455,9.67454546 Z M15.6363636,12.1745455 C15.6363636,12.5381818 15.3181818,12.8563637 14.9545455,12.8563637 L9.04545454,12.8563637 C8.68181817,12.8563637 8.36363635,12.5381818 8.36363635,12.1745455 L8.36363635,11.72 C8.36363635,11.3563636 8.68181817,11.0381818 9.04545454,11.0381818 L14.9545455,11.0381818 C15.3181818,11.0381818 15.6363636,11.3563636 15.6363636,11.72 L15.6363636,12.1745455 Z M5,11.4 C5.33137085,11.4 5.6,11.6686292 5.6,12 C5.6,12.2982338 5.38241039,12.5456468 5.09732312,12.592147 L5,12.6 L2,12.6 C1.66862915,12.6 1.4,12.3313708 1.4,12 C1.4,11.7017662 1.61758961,11.4543532 1.90267688,11.407853 L2,11.4 L5,11.4 Z M22,11.4 C22.3313708,11.4 22.6,11.6686292 22.6,12 C22.6,12.2982338 22.3824104,12.5456468 22.0973231,12.592147 L22,12.6 L19,12.6 C18.6686292,12.6 18.4,12.3313708 18.4,12 C18.4,11.7017662 18.6175896,11.4543532 18.9026769,11.407853 L19,11.4 L22,11.4 Z" id="形状结合" fill="#FFFFFF" fill-rule="nonzero"></path>
    </g>
</svg>