<svg xmlns="http://www.w3.org/2000/svg" xmlns:xlink="http://www.w3.org/1999/xlink" fill="none" version="1.1" width="1600.1131591796875" height="33.9984130859375" viewBox="0 0 1600.1131591796875 33.9984130859375"><defs><linearGradient x1="1" y1="0.5" x2="0" y2="0.5" id="master_svg0_41_06605"><stop offset="0%" stop-color="#5EFFAF" stop-opacity="0"/><stop offset="51.428574323654175%" stop-color="#00CC66" stop-opacity="0.5"/><stop offset="100%" stop-color="#01D06A" stop-opacity="0"/></linearGradient><linearGradient x1="1" y1="0.5" x2="0" y2="0.5" id="master_svg1_41_06608"><stop offset="0%" stop-color="#00CC66" stop-opacity="0"/><stop offset="50%" stop-color="#01D06A" stop-opacity="0.5"/><stop offset="100%" stop-color="#01D06A" stop-opacity="0"/></linearGradient></defs><g><g transform="matrix(-1,-5.2146120310681e-8,5.2146120310681e-8,1,3200.1130370572273,0.00008343673972044385)" style="opacity:0.5;"><path d="" fill="#000000" fill-opacity="1"/><path d="M2205.4285185546873,5.0522733786010745Q1956.7585185546875,11.790033378601073,1599.9999547546875,32.00163337860107L1600.1130823546875,33.99843337860107Q1956.8425185546876,13.788133378601074,2205.4835185546876,7.051543378601075Q2251.7445185546876,5.798193378601074,2311.8395185546874,3.9904333786010744Q2350.4455185546876,2.8291433786010742,2364.2245185546876,2.4974933786010745Q2384.8925185546877,2.0000733786010745,2400.0435185546876,2.000033378601074Q2415.1945185546874,1.9999933786010742,2435.8555185546875,2.4973033786010745Q2449.6295185546874,2.828863378601074,2488.2195185546875,3.9899633786010744Q2548.3415185546874,5.798923378601074,2594.6295185546874,7.053053378601074Q2843.2265185546876,13.788733378601075,3199.9965185546876,33.99843337860107L3200.1165185546874,32.00163337860107Q2843.3365185546872,11.790933378601075,2594.6845185546877,5.053793378601074Q2548.3965185546876,3.799693378601074,2488.2805185546877,1.990866378601074Q2449.6855185546874,0.8296043786010743,2435.9035185546873,0.4978813786010742Q2415.2175185546876,-0.0000066213989258212536,2400.0435185546876,0.00003337860107421875Q2384.8685185546874,0.00007437860107417649,2364.1765185546874,0.49807237860107423Q2350.3905185546873,0.8298673786010742,2311.7795185546875,1.9913343786010742Q2251.6855185546874,3.7990633786010743,2205.4285185546873,5.0522733786010745Z" fill-rule="evenodd" fill="url(#master_svg0_41_06605)" fill-opacity="1"/></g><g transform="matrix(-1,-5.2146120310681e-8,5.2146120310681e-8,1,2240.1130370572273,0.000058406601971316974)" style="opacity:0.5;"><path d="M1362.1485185546876,5.054193378601075Q1262.6535185546875,11.793033378601073,1119.9162815546874,32.009933378601076L1120.1967555546876,33.99013337860107Q1262.8615185546876,13.783733378601074,1362.2835185546876,7.0496233786010745Q1380.7955185546875,5.795813378601074,1404.8325185546876,3.9880633786010744Q1420.2675185546875,2.8272833786010745,1425.7745185546876,2.4959733786010743Q1434.0165185546875,2.0000733786010745,1440.0515185546874,2.000033378601074Q1446.0865185546875,1.9999923786010743,1454.3255185546875,2.4957833786010744Q1459.8305185546874,2.827013378601074,1475.2585185546875,3.9875933786010744Q1499.3055185546875,5.796373378601074,1517.8295185546876,7.051133378601074Q1617.2555185546876,13.785933378601074,1759.9165185546876,33.99013337860107L1760.1965185546874,32.009933378601076Q1617.4625185546874,11.795433378601075,1517.9645185546874,5.055713378601074Q1499.4485185546876,3.8014933786010743,1475.4085185546874,1.9932273786010741Q1459.9655185546876,0.8315233786010743,1454.4455185546876,0.4993953786010742Q1446.1465185546874,-0.0000066213989258212536,1440.0515185546874,0.00003337860107421875Q1433.9565185546876,0.00007337860107425875,1425.6545185546875,0.49958637860107424Q1420.1325185546875,0.8317913786010742,1404.6825185546875,1.9936953786010743Q1380.6525185546875,3.800863378601074,1362.1485185546876,5.054193378601075Z" fill-rule="evenodd" fill="url(#master_svg1_41_06608)" fill-opacity="1"/></g></g></svg>