<svg xmlns="http://www.w3.org/2000/svg" xmlns:xlink="http://www.w3.org/1999/xlink" fill="none" version="1.1" width="493.0921936035156" height="1081.991455078125" viewBox="0 0 493.0921936035156 1081.991455078125"><defs><linearGradient x1="1" y1="0.5" x2="0" y2="0.5" id="master_svg0_41_05697"><stop offset="0%" stop-color="#000000" stop-opacity="0.6000000238418579"/><stop offset="100%" stop-color="#000000" stop-opacity="0.4000000059604645"/></linearGradient><linearGradient x1="0.5" y1="0" x2="0.5" y2="1" id="master_svg1_41_05703"><stop offset="3.57142873108387%" stop-color="#18BA79" stop-opacity="0.10000000149011612"/><stop offset="50%" stop-color="#18BA79" stop-opacity="1"/><stop offset="100%" stop-color="#18BA79" stop-opacity="0.10000000149011612"/></linearGradient><linearGradient x1="0.5" y1="0" x2="0.5" y2="1" id="master_svg2_41_05700"><stop offset="0%" stop-color="#01D06A" stop-opacity="0"/><stop offset="47.85714149475098%" stop-color="#01D06A" stop-opacity="1"/><stop offset="100%" stop-color="#01D06A" stop-opacity="0"/></linearGradient><linearGradient x1="0.5" y1="0" x2="0.5" y2="1" id="master_svg3_41_05694"><stop offset="0%" stop-color="#01D06A" stop-opacity="0"/><stop offset="47.85714149475098%" stop-color="#01D06A" stop-opacity="1"/><stop offset="100%" stop-color="#01D06A" stop-opacity="0"/></linearGradient></defs><g><g transform="matrix(-1,0,0,1,984.1843872070312,0)"><g><path d="M492.0921936035156,540.9957427978516Q492.0921936035156,665.9957427978516,512.0921936035156,790.9957427978516L552.0921936035156,1040.9957427978516L984.0921936035156,1080.9957427978516L984.0921936035156,0.9957427978515625L552.0921936035156,40.99574279785156L512.0921936035156,290.99574279785156Q492.0921936035156,415.99574279785156,492.0921936035156,540.9957427978516Z" fill="url(#master_svg0_41_05697)" fill-opacity="1"/></g><g><path d="M551.2273936035156,1041.9157427978516L984.0001936035156,1081.9957427978516L984.1841936035156,1079.9957427978516L552.9569936035157,1040.0757427978515L513.0795936035156,790.8377427978515Q493.0921936035156,665.9177427978516,493.0921936035156,540.9957427978516Q493.0921936035156,416.07374279785154,513.0795936035156,291.1537427978516L552.9569936035157,41.91994279785156L984.1841936035156,1.9914837978515625L984.0001936035156,0.0000017978515625127756L551.2273936035156,40.07154279785156L511.10479360351565,290.83774279785155Q491.0921936035156,415.9177427978516,491.0921936035156,540.9957427978516Q491.0921936035156,666.0817427978516,511.10479360351565,791.1537427978516L551.2273936035156,1041.9157427978516Z" fill-rule="evenodd" fill="url(#master_svg1_41_05703)" fill-opacity="1"/></g><g><path d="M511.10479360351565,791.1537427978516L551.1047936035156,1041.1557427978514L553.0795936035156,1040.8377427978517L513.0795936035156,790.8377427978515Q493.0921936035156,665.9177427978516,493.0921936035156,540.9957427978516Q493.0921936035156,416.07374279785154,513.0795936035156,291.1537427978516L553.0795936035156,41.153733797851565L551.1047936035156,40.83775179785156L511.10479360351565,290.83774279785155Q491.0921936035156,415.9177427978516,491.0921936035156,540.9957427978516Q491.0921936035156,666.0737427978515,511.10479360351565,791.1537427978516Z" fill-rule="evenodd" fill="url(#master_svg2_41_05700)" fill-opacity="1"/></g><g><path d="M521.1047936035156,791.1537427978516L561.1047936035156,1041.1557427978514L563.0795936035156,1040.8377427978517L523.0795936035156,790.8377427978515Q503.0921936035156,665.9177427978516,503.0921936035156,540.9957427978516Q503.0921936035156,416.07374279785154,523.0795936035156,291.1537427978516L563.0795936035156,41.153733797851565L561.1047936035156,40.83775179785156L521.1047936035156,290.83774279785155Q501.0921936035156,415.9177427978516,501.0921936035156,540.9957427978516Q501.0921936035156,666.0737427978515,521.1047936035156,791.1537427978516Z" fill-rule="evenodd" fill="url(#master_svg3_41_05694)" fill-opacity="0.20000000298023224"/></g></g><g><g transform="matrix(0,-1,1,0,-103.90354919433594,1018.0879364013672)"><path d="M457.0921936035156,560.9957427978516L459.0921936035156,563.9957427978516L495.0921936035156,563.9957427978516L497.0921936035156,560.9957427978516L457.0921936035156,560.9957427978516Z" fill="#00CC66" fill-opacity="1"/></g><g transform="matrix(0,-1,1,0,-41.90354919433594,960.0879364013672)"><line x1="459.0921936035156" y1="500.49574279785156" x2="551.0921936035156" y2="500.49574279785156" fill-opacity="0" stroke-opacity="0.10000000149011612" stroke="#FFFFFF" fill="none" stroke-width="1"/></g><g transform="matrix(0,-1,1,0,-213.90354919433594,1132.0879364013672)"><line x1="459.0921936035156" y1="672.4957427978516" x2="551.0921936035156" y2="672.4957427978516" fill-opacity="0" stroke-opacity="0.10000000149011612" stroke="#FFFFFF" fill="none" stroke-width="1"/></g></g></g></svg>