<svg xmlns="http://www.w3.org/2000/svg" xmlns:xlink="http://www.w3.org/1999/xlink" fill="none" version="1.1" width="256" height="40" viewBox="0 0 256 40"><g><path d="M27.904,30.112L3.232,30.112L3.232,28.608L14.176,28.608L14.176,22.08L5.12,22.08L5.12,20.576L14.176,20.576L14.176,15.52L4.032,15.52L4.032,14.016L13.76,14.016L12.704,10.848L16.576,10.848L17.632,14.016L27.936,14.016L27.104,15.52L17.824,15.52L17.824,20.576L26.848,20.576L26.016,22.08L17.824,22.08L17.824,28.608L28.736,28.608L27.904,30.112ZM50.4,24.032L47.936,30.336L44.096,30.336L46.816,23.563L46.816,11.04L55.904,11.04L54.624,12.416L50.4,12.416L50.4,24.032ZM61.056,30.272L55.904,30.272L55.904,11.04L59.488,11.04L59.488,28.896L61.952,28.896L61.056,30.272ZM42.208,16.512L44.384,16.512L46.624,23.584L43.168,23.584L42.208,20.224L42.208,30.336L38.56,30.336L38.56,22.88L37.44,28.832L34.048,28.832L36.992,15.296L35.072,15.296L35.072,13.92L38.56,13.92L38.56,10.624L42.208,10.624L42.208,13.92L45.92,13.888L45.056,15.296L42.208,15.296L42.208,16.512ZM92.928,12.384L92.928,15.328L89.312,15.328L89.312,12.48L88.576,13.888L70.688,13.888L70.688,15.328L67.04,15.328L67.04,12.384L78.208,12.384L78.208,10.848L81.856,10.848L81.856,12.384L92.928,12.384ZM89.536,18.752L89.536,24.192L83.424,25.888L92.576,28.32L92.576,30.112L80.064,26.72L67.552,30.112L67.552,28.32L76.704,25.888L70.08,24.032L72.32,18.752L67.04,18.752L67.04,17.248L72.864,17.248L73.76,15.04L77.536,15.04L76.64,17.248L92.96,17.248L92.256,18.752L89.536,18.752ZM76.032,18.752L74.176,23.36L80.064,24.928L85.856,23.424L85.856,18.752L76.032,18.752ZM124.32,22.56L123.296,24.064L113.888,24.064L113.888,28.832L124.32,28.832L123.296,30.336L99.616,30.336L99.616,28.832L110.208,28.832L110.208,24.064L99.616,24.064L99.616,22.56L110.208,22.56L110.208,18.304L100.416,18.304L100.416,17.356L98.56,17.356L102.976,10.624L121.024,10.624L125.408,17.376L123.168,17.376L122.624,18.304L113.888,18.304L113.888,22.56L124.32,22.56ZM102.624,16.8L121.344,16.8L118.336,12.192L105.664,12.192L102.624,16.8ZM156.544,30.208L130.336,30.208L130.336,28.704L132.928,28.704L132.928,21.152L150.912,21.152L150.304,22.656L148.672,22.656L148.672,28.704L151.072,28.704L151.072,21.152L154.72,21.152L154.72,28.704L157.184,28.704L156.544,30.208ZM149.376,13.28L157.632,13.28L156.96,14.784L153.312,14.784L155.552,19.776L151.648,19.776L149.376,14.784L148.48,14.784L146.432,19.232L142.304,19.232L146.336,10.752L150.4,10.752L149.376,13.28ZM140.96,20.32L137.312,20.32L137.312,10.752L140.96,10.752L140.96,20.32ZM135.552,19.904L131.904,19.904L131.904,11.104L135.552,11.104L135.552,19.904ZM136.576,28.704L138.976,28.704L138.976,22.656L136.576,22.656L136.576,28.704ZM142.624,22.656L142.624,28.704L145.024,28.704L145.024,22.656L142.624,22.656ZM170.848,12.576L178.464,12.576L177.472,10.592L181.344,10.592L182.272,12.576L189.824,12.576L189.824,16.384L186.56,16.384L189.152,21.056L187.168,21.056L186.624,22.144L182.176,22.144L182.176,28.896L189.824,28.896L189.024,30.272L170.848,30.272L170.848,28.896L178.528,28.896L178.528,22.144L173.248,22.144L173.248,21.056L171.552,21.056L174.112,16.384L170.848,16.384L170.848,14.496L170.4,15.488L168.352,15.488L168.352,21.056L170.912,20.352L170.912,21.92L168.352,22.752L168.352,30.368L163.072,30.368L162.336,28.96L164.544,28.96L164.544,23.712L162.144,24.384L162.144,22.752L164.544,22.016L164.544,15.488L162.304,15.488L162.304,13.984L164.544,13.984L164.544,10.624L168.352,10.624L168.352,13.984L170.848,13.984L170.848,12.576ZM178.592,15.296L175.616,20.608L185.088,20.64L182.08,15.296L185.92,15.296L185.92,13.856L174.88,13.856L174.88,15.296L178.592,15.296ZM207.264,17.024L199.776,30.304L195.872,30.304L203.328,17.024L196.128,17.024L196.128,15.52L204.16,15.52L206.944,10.624L210.88,10.624L208.096,15.52L220.128,15.552L219.328,17.024L207.264,17.024ZM213.792,19.104L220.128,30.304L216.192,30.304L209.856,19.104L213.792,19.104ZM253.92,26.336L253.088,27.776L250.88,27.776L250.88,30.368L247.36,30.368L247.36,27.776L238.784,27.776L238.784,30.368L235.232,30.368L235.232,27.776L231.584,27.776L231.584,26.336L235.232,26.336L235.232,22.752L232.672,22.752L232.672,21.376L245.504,21.376L247.232,17.92L251.392,17.92L249.6,21.376L253.344,21.376L252.736,22.752L250.88,22.752L250.88,26.336L253.92,26.336ZM231.008,17.12L231.008,25.056L229.792,30.272L226.08,30.272L227.328,24.928L227.328,10.592L248.96,10.592L247.904,12.032L231.008,12.032L231.008,15.616L248.96,15.616L248.96,10.592L252.576,10.592L252.576,17.12L231.008,17.12ZM247.36,22.752L238.784,22.752L238.784,26.336L247.36,26.336L247.36,22.752ZM233.856,17.92L237.984,17.92L239.584,20.544L235.36,20.544L233.856,17.92Z" fill="#FFFFFF" fill-opacity="1"/></g></svg>