<svg xmlns="http://www.w3.org/2000/svg" xmlns:xlink="http://www.w3.org/1999/xlink" fill="none" version="1.1" width="1921.18798828125" height="65.99567413330078" viewBox="0 0 1921.18798828125 65.99567413330078"><defs><radialGradient cx="0" cy="0" r="1" gradientUnits="userSpaceOnUse" id="master_svg0_41_06236" gradientTransform="translate(2881.593994140625 142.97321319580078) rotate(90) scale(77.9775390625 -485.14845079947554)"><stop offset="0%" stop-color="#21F38C" stop-opacity="0.5"/><stop offset="100%" stop-color="#43FFA2" stop-opacity="0"/></radialGradient><linearGradient x1="1" y1="0.5" x2="0" y2="0.5" id="master_svg1_41_06232"><stop offset="0%" stop-color="#01D06A" stop-opacity="0"/><stop offset="50%" stop-color="#01D06A" stop-opacity="1"/><stop offset="100%" stop-color="#01D06A" stop-opacity="0"/></linearGradient><linearGradient x1="1" y1="0.5" x2="0" y2="0.5" id="master_svg2_41_06232"><stop offset="0%" stop-color="#01D06A" stop-opacity="0"/><stop offset="50%" stop-color="#01D06A" stop-opacity="1"/><stop offset="100%" stop-color="#01D06A" stop-opacity="0"/></linearGradient><linearGradient x1="1" y1="0.5" x2="0" y2="0.5" id="master_svg3_41_06239"><stop offset="40.714284777641296%" stop-color="#5EFFAF" stop-opacity="0"/><stop offset="51.428574323654175%" stop-color="#31FF99" stop-opacity="1"/><stop offset="58.571428060531616%" stop-color="#01D06A" stop-opacity="0"/></linearGradient></defs><g><g><g transform="matrix(-1,-5.2146120310681e-8,5.2146120310681e-8,-1,3842.187984891978,129.9914484442001)" style="opacity:0.5;"><path d="M1921.093994140625,128.99567413330078L3842.093994140625,128.99567413330078Q3413.7739941406253,88.57647413330078,3115.2339941406253,75.10247413330077C2965.963994140625,68.36542413330078,2923.783994140625,64.99633527330079,2881.593994140625,64.99567413330078C2839.406994140625,64.99501323030078,2797.219994140625,68.36277413330077,2647.951994140625,75.09937413330078Q2349.415994140625,88.57267413330078,1921.093994140625,128.99567413330078Z" fill="#000000" fill-opacity="1"/><path d="M1921.093994140625,128.99567413330078L3842.093994140625,128.99567413330078Q3413.7739941406253,88.57647413330078,3115.2339941406253,75.10247413330077C2965.963994140625,68.36542413330078,2923.783994140625,64.99633527330079,2881.593994140625,64.99567413330078C2839.406994140625,64.99501323030078,2797.219994140625,68.36277413330077,2647.951994140625,75.09937413330078Q2349.415994140625,88.57267413330078,1921.093994140625,128.99567413330078Z" fill="url(#master_svg0_41_06236)" fill-opacity="1"/></g><g transform="matrix(-1,-5.2146120310681e-8,5.2146120310681e-8,-1,3842.187984891978,129.9914484442001)" style="opacity:0.5;"><path d="M2647.906994140625,74.10043413330078Q2349.351994140625,87.57377413330079,1921.000036540625,128.00007413330079L1921.187951740625,129.99127413330078Q2349.490994140625,89.57187413330078,2647.9969941406252,76.09837413330078Q2703.589994140625,73.58930413330079,2775.692994140625,69.97612413330079Q2822.031994140625,67.65398413330078,2838.583994140625,66.99037413330078Q2863.392994140625,65.99575413330078,2881.577994140625,65.99567413330078Q2899.763994140625,65.99559413330078,2924.5639941406253,66.98998413330078Q2941.093994140625,67.65290413330078,2987.433994140625,69.97518413330079Q3059.643994140625,73.59430413330078,3115.193994140625,76.10147413330078Q3413.653994140625,89.57207413330079,3842.003994140625,129.99127413330078L3842.183994140625,128.00007413330079Q3413.8139941406253,87.57647413330078,3115.283994140625,74.10347413330078Q3059.7339941406253,71.59658413330078,2987.533994140625,67.97768413330078Q2941.183994140625,65.65491513330078,2924.643994140625,64.99159324330078Q2899.802994140625,63.995594133300784,2881.577994140625,63.99567513330078Q2863.353994140625,63.99575513330078,2838.503994140625,64.99197548330078Q2821.937994140625,65.65604413330078,2775.592994140625,67.97862413330078Q2703.499994140625,71.59140413330078,2647.906994140625,74.10043413330078Z" fill-rule="evenodd" fill="url(#master_svg1_41_06232)" fill-opacity="1"/></g><g transform="matrix(-1,-5.2146120310681e-8,5.2146120310681e-8,-1,2722.1879848919853,129.99112932538054)" style="opacity:0.5;"><path d="M1663.725994140625,70.3126591748047Q1539.365994140625,78.73622917480469,1360.953757140625,104.00542917480469L1361.234231140625,105.98562917480469Q1539.573994140625,80.72652917480468,1663.860994140625,72.30808917480469Q1686.999994140625,70.74085917480468,1717.045994140625,68.48126917480468Q1736.340994140625,67.03016917480468,1743.225994140625,66.61590917480468Q1753.535994140625,65.99557917480469,1761.086994140625,65.99552917480469Q1768.638994140625,65.99547817480469,1778.944994140625,66.6156691748047Q1785.827994140625,67.02982917480469,1805.115994140625,68.48068917480468Q1835.171994140625,70.74158917480469,1858.326994140625,72.30997917480468Q1982.620994140625,80.72912917480468,2160.953994140625,105.98562917480469L2161.233994140625,104.00542917480469Q1982.823994140625,78.73862917480469,1858.461994140625,70.31454917480468Q1835.315994140625,68.74670917480469,1805.265994140625,66.48631917480469Q1785.9629941406251,65.03433467480468,1779.064994140625,64.61928217480468Q1768.698994140625,63.995479174804686,1761.086994140625,63.99552917480469Q1753.475994140625,63.99557917480469,1743.105994140625,64.61952017480469Q1736.205994140625,65.03466797480469,1716.8959941406251,66.4869091748047Q1686.856994140625,68.7459491748047,1663.725994140625,70.3126591748047Z" fill-rule="evenodd" fill="url(#master_svg2_41_06232)" fill-opacity="1"/></g><g transform="matrix(-1,-5.2146120310681e-8,5.2146120310681e-8,-1,3842.187984904931,129.49463753111417)" style="opacity:0.5;"><path d="M2647.907994140625,73.49702867675781Q2349.354994140625,86.49926867675781,1921.003309540625,125.50316867675781L1921.184678740625,127.49486867675782Q2349.488994140625,88.49336867675781,2647.994994140625,75.49516867675781Q2703.562994140625,73.07520867675781,2775.6909941406248,69.58792867675781Q2822.034994140625,67.34705867675781,2838.582994140625,66.70704867675781Q2863.392994140625,65.74734867675781,2881.577994140625,65.74726867675781Q2899.763994140625,65.74719067675781,2924.5639941406253,66.70667867675782Q2941.113994140625,67.34707867675782,2987.433994140625,69.58701867675781Q3059.533994140625,73.07410867675782,3115.193994140625,75.49806867675781Q3413.713994140625,88.4996686767578,3842.003994140625,127.49486867675782L3842.183994140625,125.50316867675781Q3413.843994140625,86.50356867675781,3115.283994140625,73.49995867675781Q3059.6239941406247,71.07627867675781,2987.533994140625,67.58934867675781Q2941.203994140625,65.34896667675781,2924.643994140625,64.70817357675782Q2899.800994140625,63.747188676757816,2881.577994140625,63.74726867675781Q2863.353994140625,63.747346676757815,2838.5059941406253,64.70854437675781Q2821.948994140625,65.34892267675781,2775.593994140625,67.59025867675781Q2703.472994140625,71.07734867675781,2647.907994140625,73.49702867675781Z" fill-rule="evenodd" fill="url(#master_svg3_41_06239)" fill-opacity="1"/></g></g></g></svg>