<svg xmlns="http://www.w3.org/2000/svg" xmlns:xlink="http://www.w3.org/1999/xlink" fill="none" version="1.1" width="120" height="120" viewBox="0 0 120 120"><g><g style="opacity:0;"><rect x="0" y="0" width="120" height="120" rx="0" fill="#06080C" fill-opacity="1"/></g><g transform="matrix(-0.7071067690849304,0.7071067690849304,-0.7071067690849304,-0.7071067690849304,187.14570552110672,-45.51828891038895)"><path d="M105.85657,16.5Q105.83472,16.624833,105.80207,16.747284Q105.76941,16.869734,105.7262,16.98887Q105.68298,17.108,105.62954,17.22292Q105.5761,17.33783,105.51284,17.44764Q105.44957,17.55745,105.37697,17.66133Q105.30437,17.7652,105.22299,17.86234Q105.1416,17.95949,105.05206,18.04916Q104.96251,18.138840000000002,104.86548,18.22036Q104.76845,18.30188,104.66467,18.37463Q104.5609,18.44738,104.45118,18.51079Q104.34146,18.57421,104.22662,18.62781Q104.11179,18.68142,103.992713,18.724800000000002Q103.873639,18.76818,103.751234,18.80101Q103.628829,18.83384,103.504027,18.85586Q103.379226,18.87789,103.252978,18.88895Q103.126731,18.9,103,18.9Q102.857532,18.9,102.71575,18.88604Q102.573968,18.87207,102.434238,18.84428Q102.294507,18.81648,102.158174,18.77513Q102.021841,18.73377,101.89022,18.67925Q101.75859,18.62473,101.63295,18.55757Q101.5073,18.49041,101.38885,18.41126Q101.27039,18.33211,101.16026,18.24173Q101.05013,18.15135,100.94939,18.05061Q100.84865,17.94987,100.75827,17.83974Q100.66789,17.72961,100.58874,17.61115Q100.50959,17.4927,100.44243,17.36705Q100.37527,17.24141,100.32075,17.10978Q100.26623000000001,16.978159,100.22487,16.841826Q100.18352,16.705493,100.15572,16.565762Q100.12793,16.426032,100.11396,16.28425Q100.1,16.142468,100.1,16Q100.1,15.857532,100.11396,15.71575Q100.12793,15.573968,100.15572,15.434238Q100.18352,15.294507,100.22487,15.158174Q100.26623000000001,15.021841,100.32075,14.89022Q100.37527,14.75859,100.44243,14.63295Q100.50959,14.5073,100.58874,14.38885Q100.66789,14.270389999999999,100.75827,14.160260000000001Q100.84865,14.05013,100.94939,13.949390000000001Q101.05013,13.84865,101.16026,13.75827Q101.27039,13.66789,101.38885,13.58874Q101.5073,13.50959,101.63295,13.44243Q101.75859,13.37527,101.89022,13.32075Q102.021841,13.26623,102.158174,13.22487Q102.294507,13.18352,102.434238,13.15572Q102.573968,13.12793,102.71575,13.11396Q102.857532,13.1,103,13.1Q103.126731,13.1,103.252978,13.11105Q103.379226,13.12211,103.504027,13.14414Q103.628829,13.16616,103.751234,13.19899Q103.873639,13.231819999999999,103.992713,13.2752Q104.11179,13.31858,104.22662,13.37219Q104.34146,13.42579,104.45118,13.48921Q104.5609,13.552620000000001,104.66467,13.62537Q104.76845,13.69812,104.86548,13.77964Q104.96251,13.86116,105.05206,13.95084Q105.1416,14.04051,105.22299,14.13766Q105.30437,14.2348,105.37697,14.33867Q105.44957,14.44255,105.51284,14.55236Q105.5761,14.66217,105.62954,14.77708Q105.68298,14.892,105.7262,15.01113Q105.76941,15.130266,105.80207,15.252716Q105.83472,15.375167,105.85657,15.5L120.1926,15.5L120.1926,16.5L105.85657,16.5Z" fill-rule="evenodd" fill="#18BA79" fill-opacity="0.20000000298023224"/></g><g transform="matrix(-0.7071068286895752,-0.7071067094802856,0.7071067094802856,-0.7071068286895752,102.29290556907654,250.37110126018524)"><path d="M105.85657,104.5Q105.83472,104.624833,105.80207,104.747284Q105.76941,104.869734,105.7262,104.98887Q105.68298,105.108,105.62954,105.22292Q105.5761,105.33783,105.51284,105.44764Q105.44957,105.55745,105.37697,105.66133Q105.30437,105.7652,105.22299,105.86234Q105.1416,105.95949,105.05206,106.04916Q104.96251,106.13884,104.86548,106.22036Q104.76845,106.30188,104.66467,106.37463Q104.5609,106.44738,104.45118,106.51079Q104.34146,106.57421,104.22662,106.62781Q104.11179,106.68142,103.992713,106.7248Q103.873639,106.76818,103.751234,106.80101Q103.628829,106.83384,103.504027,106.85586Q103.379226,106.87789,103.252978,106.88895Q103.126731,106.9,103,106.9Q102.857532,106.9,102.71575,106.88604Q102.573968,106.87207,102.434238,106.84428Q102.294507,106.81648,102.158174,106.77513Q102.021841,106.73376999999999,101.89022,106.67925Q101.75859,106.62473,101.63295,106.55757Q101.5073,106.49041,101.38885,106.41126Q101.27039,106.33211,101.16026,106.24173Q101.05013,106.15135,100.94939,106.05061Q100.84865,105.94987,100.75827,105.83974Q100.66789,105.72961,100.58874,105.61115Q100.50959,105.4927,100.44243,105.36705Q100.37527,105.24141,100.32075,105.10978Q100.26623000000001,104.978159,100.22487,104.841826Q100.18352,104.705493,100.15572,104.565762Q100.12793,104.426032,100.11396,104.28425Q100.1,104.142468,100.1,104Q100.1,103.857532,100.11396,103.71575Q100.12793,103.573968,100.15572,103.434238Q100.18352,103.294507,100.22487,103.158174Q100.26623000000001,103.021841,100.32075,102.89022Q100.37527,102.75859,100.44243,102.63295Q100.50959,102.5073,100.58874,102.38885Q100.66789,102.27039,100.75827,102.16026Q100.84865,102.05013,100.94939,101.94939Q101.05013,101.84865,101.16026,101.75827Q101.27039,101.66789,101.38885,101.58874Q101.5073,101.50959,101.63295,101.44243Q101.75859,101.37527,101.89022,101.32075Q102.021841,101.26623000000001,102.158174,101.22487Q102.294507,101.18352,102.434238,101.15572Q102.573968,101.12793,102.71575,101.11396Q102.857532,101.1,103,101.1Q103.126731,101.1,103.252978,101.11105Q103.379226,101.12211,103.504027,101.14414Q103.628829,101.16616,103.751234,101.19899Q103.873639,101.23182,103.992713,101.2752Q104.11179,101.31858,104.22662,101.37219Q104.34146,101.42579,104.45118,101.48921Q104.5609,101.55262,104.66467,101.62537Q104.76845,101.69812,104.86548,101.77964Q104.96251,101.86116,105.05206,101.95084Q105.1416,102.04051,105.22299,102.13766Q105.30437,102.2348,105.37697,102.33867Q105.44957,102.44255,105.51284,102.55236Q105.5761,102.66217,105.62954,102.77708Q105.68298,102.892,105.7262,103.01113Q105.76941,103.130266,105.80207,103.252716Q105.83472,103.375167,105.85657,103.5L120.1926,103.5L120.1926,104.5L105.85657,104.5Z" fill-rule="evenodd" fill="#18BA79" fill-opacity="0.20000000298023224"/></g><g transform="matrix(0.7071067690849304,0.7071067690849304,-0.7071067690849304,0.7071067690849304,15.70710676908493,-5.920309841632843)"><path d="M17.85657,16.5Q17.83472,16.624833,17.80207,16.747284Q17.76941,16.869734,17.7262,16.98887Q17.68298,17.108,17.62954,17.22292Q17.5761,17.33783,17.51284,17.44764Q17.44957,17.55745,17.37697,17.66133Q17.30437,17.7652,17.22299,17.86234Q17.1416,17.95949,17.05206,18.04916Q16.96251,18.138840000000002,16.86548,18.22036Q16.76845,18.30188,16.66467,18.37463Q16.5609,18.44738,16.45118,18.51079Q16.34146,18.57421,16.22662,18.62781Q16.11179,18.68142,15.992713,18.724800000000002Q15.873639,18.76818,15.751234,18.80101Q15.628829,18.83384,15.504027,18.85586Q15.379226,18.87789,15.252978,18.88895Q15.126731,18.9,15,18.9Q14.857532,18.9,14.71575,18.88604Q14.573968,18.87207,14.434238,18.84428Q14.294507,18.81648,14.158174,18.77513Q14.021841,18.73377,13.89022,18.67925Q13.75859,18.62473,13.63295,18.55757Q13.5073,18.49041,13.38885,18.41126Q13.270389999999999,18.33211,13.160260000000001,18.24173Q13.05013,18.15135,12.949390000000001,18.05061Q12.84865,17.94987,12.75827,17.83974Q12.66789,17.72961,12.58874,17.61115Q12.50959,17.4927,12.44243,17.36705Q12.37527,17.24141,12.32075,17.10978Q12.26623,16.978159,12.22487,16.841826Q12.18352,16.705493,12.15572,16.565762Q12.12793,16.426032,12.11396,16.28425Q12.1,16.142468,12.1,16Q12.1,15.857532,12.11396,15.71575Q12.12793,15.573968,12.15572,15.434238Q12.18352,15.294507,12.22487,15.158174Q12.26623,15.021841,12.32075,14.89022Q12.37527,14.75859,12.44243,14.63295Q12.50959,14.5073,12.58874,14.38885Q12.66789,14.270389999999999,12.75827,14.160260000000001Q12.84865,14.05013,12.949390000000001,13.949390000000001Q13.05013,13.84865,13.160260000000001,13.75827Q13.270389999999999,13.66789,13.38885,13.58874Q13.5073,13.50959,13.63295,13.44243Q13.75859,13.37527,13.89022,13.32075Q14.021841,13.26623,14.158174,13.22487Q14.294507,13.18352,14.434238,13.15572Q14.573968,13.12793,14.71575,13.11396Q14.857532,13.1,15,13.1Q15.126731,13.1,15.252978,13.11105Q15.379226,13.12211,15.504027,13.14414Q15.628829,13.16616,15.751234,13.19899Q15.873639,13.231819999999999,15.992713,13.2752Q16.11179,13.31858,16.22662,13.37219Q16.34146,13.42579,16.45118,13.48921Q16.5609,13.552620000000001,16.66467,13.62537Q16.76845,13.69812,16.86548,13.77964Q16.96251,13.86116,17.05206,13.95084Q17.1416,14.04051,17.22299,14.13766Q17.30437,14.2348,17.37697,14.33867Q17.44957,14.44255,17.51284,14.55236Q17.5761,14.66217,17.62954,14.77708Q17.68298,14.892,17.7262,15.01113Q17.76941,15.130266,17.80207,15.252716Q17.83472,15.375167,17.85657,15.5L32.1926,15.5L32.1926,16.5L17.85657,16.5Z" fill-rule="evenodd" fill="#18BA79" fill-opacity="0.20000000298023224"/></g><g transform="matrix(0.7071067690849304,-0.7071067690849304,0.7071067690849304,0.7071067690849304,-69.14570552110672,41.06749755144119)"><path d="M17.85657,104.5Q17.83472,104.624833,17.80207,104.747284Q17.76941,104.869734,17.7262,104.98887Q17.68298,105.108,17.62954,105.22292Q17.5761,105.33783,17.51284,105.44764Q17.44957,105.55745,17.37697,105.66133Q17.30437,105.7652,17.22299,105.86234Q17.1416,105.95949,17.05206,106.04916Q16.96251,106.13884,16.86548,106.22036Q16.76845,106.30188,16.66467,106.37463Q16.5609,106.44738,16.45118,106.51079Q16.34146,106.57421,16.22662,106.62781Q16.11179,106.68142,15.992713,106.7248Q15.873639,106.76818,15.751234,106.80101Q15.628829,106.83384,15.504027,106.85586Q15.379226,106.87789,15.252978,106.88895Q15.126731,106.9,15,106.9Q14.857532,106.9,14.71575,106.88604Q14.573968,106.87207,14.434238,106.84428Q14.294507,106.81648,14.158174,106.77513Q14.021841,106.73376999999999,13.89022,106.67925Q13.75859,106.62473,13.63295,106.55757Q13.5073,106.49041,13.38885,106.41126Q13.270389999999999,106.33211,13.160260000000001,106.24173Q13.05013,106.15135,12.949390000000001,106.05061Q12.84865,105.94987,12.75827,105.83974Q12.66789,105.72961,12.58874,105.61115Q12.50959,105.4927,12.44243,105.36705Q12.37527,105.24141,12.32075,105.10978Q12.26623,104.978159,12.22487,104.841826Q12.18352,104.705493,12.15572,104.565762Q12.12793,104.426032,12.11396,104.28425Q12.1,104.142468,12.1,104Q12.1,103.857532,12.11396,103.71575Q12.12793,103.573968,12.15572,103.434238Q12.18352,103.294507,12.22487,103.158174Q12.26623,103.021841,12.32075,102.89022Q12.37527,102.75859,12.44243,102.63295Q12.50959,102.5073,12.58874,102.38885Q12.66789,102.27039,12.75827,102.16026Q12.84865,102.05013,12.949390000000001,101.94939Q13.05013,101.84865,13.160260000000001,101.75827Q13.270389999999999,101.66789,13.38885,101.58874Q13.5073,101.50959,13.63295,101.44243Q13.75859,101.37527,13.89022,101.32075Q14.021841,101.26623000000001,14.158174,101.22487Q14.294507,101.18352,14.434238,101.15572Q14.573968,101.12793,14.71575,101.11396Q14.857532,101.1,15,101.1Q15.126731,101.1,15.252978,101.11105Q15.379226,101.12211,15.504027,101.14414Q15.628829,101.16616,15.751234,101.19899Q15.873639,101.23182,15.992713,101.2752Q16.11179,101.31858,16.22662,101.37219Q16.34146,101.42579,16.45118,101.48921Q16.5609,101.55262,16.66467,101.62537Q16.76845,101.69812,16.86548,101.77964Q16.96251,101.86116,17.05206,101.95084Q17.1416,102.04051,17.22299,102.13766Q17.30437,102.2348,17.37697,102.33867Q17.44957,102.44255,17.51284,102.55236Q17.5761,102.66217,17.62954,102.77708Q17.68298,102.892,17.7262,103.01113Q17.76941,103.130266,17.80207,103.252716Q17.83472,103.375167,17.85657,103.5L32.1926,103.5L32.1926,104.5L17.85657,104.5Z" fill-rule="evenodd" fill="#18BA79" fill-opacity="0.20000000298023224"/></g><g><path d="M15.5,60Q15.5,51.5119,18.62442,43.6198Q22.01689,35.0506,28.5337,28.5337Q35.0506,22.01688,43.6198,18.62442Q51.5119,15.5,60,15.5Q68.4882,15.5,76.3802,18.62442Q84.9493,22.01689,91.4663,28.5337Q97.9833,35.0507,101.3756,43.6198Q104.5,51.512,104.5,60Q104.5,68.488,101.3756,76.3802Q97.9833,84.9493,91.4663,91.4663Q84.9493,97.9832,76.3802,101.3756Q68.488,104.5,60,104.5Q51.512,104.5,43.6198,101.3756Q35.0507,97.9833,28.5337,91.4663Q22.01688,84.9493,18.62442,76.3802Q15.5,68.4881,15.5,60ZM16.5,60Q16.5,68.29740000000001,19.55421,76.0121Q22.870440000000002,84.3888,29.2409,90.7591Q35.6114,97.1298,43.987899999999996,100.4458Q51.7028,103.5,60,103.5Q68.2972,103.5,76.0121,100.4458Q84.3885,97.1296,90.7591,90.7591Q97.1296,84.3886,100.4458,76.0121Q103.5,68.2972,103.5,60Q103.5,51.7028,100.4458,43.987899999999996Q97.1296,35.6114,90.7591,29.2409Q84.3887,22.870440000000002,76.0121,19.55421Q68.29740000000001,16.5,60,16.5Q51.7027,16.5,43.987899999999996,19.55421Q35.6113,22.870440000000002,29.2409,29.2409Q22.870440000000002,35.6113,19.55421,43.987899999999996Q16.5,51.7026,16.5,60Z" fill="#18BA79" fill-opacity="0.20000000298023224"/></g></g></svg>