<?xml version="1.0" standalone="no"?>
<!DOCTYPE svg PUBLIC "-//W3C//DTD SVG 1.1//EN" "http://www.w3.org/Graphics/SVG/1.1/DTD/svg11.dtd" >
<svg xmlns="http://www.w3.org/2000/svg">
  <metadata>Created by iconfont</metadata>
  <defs>
  <font id="axsj" horiz-adv-x="1024">
    <font-face
      font-family="axsj"
      font-weight="400"
      font-stretch="normal"
      units-per-em="1024"
      ascent="896"
      descent="-128"
    />
      <missing-glyph />
      
      <glyph glyph-name="zc-xinet" unicode="&#59162;" d="M951.52 220c-10.88 11.52-189.44 168.16-200.96 179.04a33.76 33.76 0 0 1-21.92 11.68h-284.8S400 404.96 400 365.6a57.6 57.6 0 0 1 44.48-57.76c28.32-5.12 77.92-16.8 123.04-21.92 16 0 0-11.52 0-11.52l-57.76-38.72H321.28s-77.92 54.88-133.92 102.24c-83.2 61.12-115.68 0-115.68 0s-11.52-22.56 0-33.6c44.48-39.2 206.24-184.8 217.28-195.84a28.16 28.16 0 0 1 27.68-5.76h329.28a65.6 65.6 0 0 0 44.48-16s50.24-45.12 67.04-57.76c27.68-22.56 39.36 0 39.36 0l150.08 162.24a17.6 17.6 0 0 1 9.12 22.88 16 16 0 0 1-3.36 4.8zM590.56 691.36H164.16a29.44 29.44 0 0 0 0 57.76h426.4a29.44 29.44 0 0 0 11.52-57.76 34.88 34.88 0 0 0-11.52 0z m0-166.24H164.16a28.96 28.96 0 0 0 0 57.76h426.4a28.96 28.96 0 0 0 0-57.76z"  horiz-adv-x="1024" />
      
      <glyph glyph-name="zc-api" unicode="&#59163;" d="M909.76 740.16l-41.6 41.6a7.52 7.52 0 0 1-5.6 2.24 8.32 8.32 0 0 1-5.6-2.24l-74.56-74.72a195.84 195.84 0 0 1-248.64-23.84l-100-99.84a7.84 7.84 0 0 1 0-11.04l266.4-266.56a7.52 7.52 0 0 1 5.6-2.24 8.64 8.64 0 0 1 5.6 2.24l100 100a196.48 196.48 0 0 1 23.68 248.64l74.72 74.56a8 8 0 0 1 0 11.2zM577.6 349.91999999999996a8 8 0 0 1-11.2 0l-65.28-65.28-88.48 88.48 65.44 65.44a7.84 7.84 0 0 1 0 11.04l-35.68 35.84a8.32 8.32 0 0 1-11.2 0l-65.28-65.44-42.24 42.08a7.36 7.36 0 0 1-5.6 2.24 8.64 8.64 0 0 1-5.6-2.24l-99.84-99.84a196.48 196.48 0 0 1-23.68-248.64l-74.72-74.72a7.84 7.84 0 0 1 0-11.04l41.6-41.6a7.52 7.52 0 0 1 5.6-2.24 8.32 8.32 0 0 1 5.6 2.24l74.56 74.72a195.84 195.84 0 0 1 248.64 23.84l100 99.84a7.84 7.84 0 0 1 0 11.04l-42.24 42.24L613.44 304a7.84 7.84 0 0 1 0 11.04l-35.84 34.88z"  horiz-adv-x="1024" />
      
      <glyph glyph-name="zc-jsfile" unicode="&#59164;" d="M859.52 665.76l-136.64 160a16.8 16.8 0 0 1-12.8 5.76h-532.8A17.44 17.44 0 0 1 160 814.4v-860.8a17.44 17.44 0 0 1 17.28-17.6h669.44A17.44 17.44 0 0 1 864-46.39999999999998V654.08a17.44 17.44 0 0 1-4.48 11.68z m-378.24-320c0-46.72-24.64-85.12-78.08-85.12A83.04 83.04 0 0 0 324.48 304l39.04 29.12a37.44 37.44 0 0 1 32-23.68c18.56 0 28.48 9.28 28.48 40.32v153.28h57.28z m128-85.12a133.28 133.28 0 0 0-88.96 34.24l32 39.36a96 96 0 0 1 57.92-24.32c21.12 0 31.04 8 31.04 20.8s-13.12 18.24-33.6 26.88l-30.4 12.8a69.76 69.76 0 0 0-48 65.28c0 40 35.84 72 86.4 72a110.72 110.72 0 0 0 77.44-32l-29.12-35.36a77.44 77.44 0 0 1-48.96 18.24c-17.6 0-28.48-7.04-28.48-19.84s15.04-18.24 36.16-26.56l29.76-11.84a65.76 65.76 0 0 0 47.04-65.28c0-39.68-33.28-74.56-91.52-74.56z"  horiz-adv-x="1024" />
      
      <glyph glyph-name="wh-privileges" unicode="&#59161;" d="M353.76 736A208 208 0 0 0 521.6 405.44l103.52-103.52a9.76 9.76 0 0 0 1.12 1.6l90.56 90.56a6.56 6.56 0 0 0 9.28 0l14.88-14.88 7.36-7.36a3.52 3.52 0 0 0 0-1.28 7.04 7.04 0 0 0 1.12-3.36 6.4 6.4 0 0 0-1.92-4.64L657.76 272l-1.6-1.12 96.96-96.96a9.76 9.76 0 0 0 1.12 1.6l90.56 90.56a6.56 6.56 0 0 0 9.28 0l14.88-14.88 7.36-7.36a3.52 3.52 0 0 0 0-1.28 7.04 7.04 0 0 0 1.12-3.36 6.4 6.4 0 0 0-1.92-4.64L785.76 144l-1.6-1.12 60.8-60.8a16 16 0 0 0 0-23.36l-21.92-21.92a16 16 0 0 0-23.36 0L476.32 360.15999999999997A208 208 0 1 0 353.76 736m0 51.2a259.2 259.2 0 0 1 0-518.4 256 256 0 0 1 114.72 26.88L763.52 0a67.52 67.52 0 0 1 96 0l21.92 21.92a67.52 67.52 0 0 1 0 96l-24.32 24.32L912 198.39999999999998a57.92 57.92 0 0 1 0 81.6l-6.88 8-14.88 14.72a57.6 57.6 0 0 1-81.6 0l-55.84-55.68-24 24L784 326.4a57.92 57.92 0 0 1 0 81.6l-6.88 8-14.88 14.72a57.6 57.6 0 0 1-81.6 0l-55.84-55.68-38.72 38.72A256 256 0 0 1 612.96 528a259.52 259.52 0 0 1-259.2 259.2z"  horiz-adv-x="1024" />
      
      <glyph glyph-name="icon_yinqing-RASP" unicode="&#59157;" d="M32 864m256 0l448 0q256 0 256-256l0-448q0-256-256-256l-448 0q-256 0-256 256l0 448q0 256 256 256ZM602.24 144l-103.36 179.68a33.76 33.76 0 0 1-29.28 16.8h-33.76a33.6 33.6 0 0 1-33.6-33.6V160A33.6 33.6 0 0 0 368 126.4h-114.08a33.6 33.6 0 0 0-33.6 33.6V608a33.6 33.6 0 0 0 33.6 33.6H528a33.6 33.6 0 0 0 25.6-55.36 33.44 33.44 0 0 0-25.6-11.84h-92.16a33.6 33.6 0 0 1-33.6-33.6v-99.52a33.6 33.6 0 0 1 33.6-33.6h130.88a33.6 33.6 0 0 1 33.6 33.6V608a33.6 33.6 0 0 0 33.6 33.6h113.76a33.6 33.6 0 0 0 33.6-33.6v-233.92a33.6 33.6 0 0 0-33.6-33.6h-5.44a33.44 33.44 0 0 1-29.28-49.76L776.16 176a33.6 33.6 0 0 0-29.44-49.92h-115.36A33.28 33.28 0 0 0 602.24 144z"  horiz-adv-x="1024" />
      
      <glyph glyph-name="icon_yinqing-baseline" unicode="&#59159;" d="M32 864m256 0l448 0q256 0 256-256l0-448q0-256-256-256l-448 0q-256 0-256 256l0 448q0 256 256 256ZM894.08 427.2h-50.72v-289.28h-123.68V554.0799999999999h-50.72v-416.16h-123.68V680.8h-50.72v-542.88h-123.68V554.0799999999999h-50.72v-416.16h-123.68V427.2H145.76v-289.28H68.16v-50.72h887.68v50.72h-61.76V427.2z"  horiz-adv-x="1024" />
      
      <glyph glyph-name="icon_yinqing-riskdetection" unicode="&#59160;" d="M32 864m256 0l448 0q256 0 256-256l0-448q0-256-256-256l-448 0q-256 0-256 256l0 448q0 256 256 256ZM818.56 400A307.2 307.2 0 0 1 528 690.08V736h-32v-45.92A307.2 307.2 0 0 1 205.44 400H160v-33.44h45.28A307.2 307.2 0 0 1 496 76.96000000000004V32h32v44.96a307.04 307.04 0 0 1 290.56 290.24H864V400zM372 238.88V256a140 140 0 0 0 83.2 123.68 84.96 84.96 0 1 0 112 0A139.68 139.68 0 0 0 651.36 256v-17.12z"  horiz-adv-x="1024" />
      
      <glyph glyph-name="nav-zc-BaseAsset" unicode="&#59150;" d="M987.68 400l-224 384A32 32 0 0 1 736 800H288a32 32 0 0 1-27.68-16l-224-384a32 32 0 0 1 0-32l224-384A32 32 0 0 1 288-32h448a32 32 0 0 1 27.68 16l224 384a32 32 0 0 1 0 32zM717.6 32h-411.2L101.12 384l205.28 352h411.2l205.28-352zM672 576H352a32 32 0 0 1 0-64h320a32 32 0 0 1 0 64zM672 416H352a32 32 0 0 1 0-64h320a32 32 0 0 1 0 64zM672 256H352a32 32 0 0 1 0-64h320a32 32 0 0 1 0 64z"  horiz-adv-x="1024" />
      
      <glyph glyph-name="message" unicode="&#59016;" d="M928 745.6H96A25.6 25.6 0 0 1 70.4 720v-608A25.6 25.6 0 0 1 96 86.39999999999998h102.4V-16a25.28 25.28 0 0 1 14.56-23.04 24.32 24.32 0 0 1 11.04-2.56 25.6 25.6 0 0 1 16 5.6l152.96 122.4H928a25.6 25.6 0 0 1 25.6 25.6V720A25.6 25.6 0 0 1 928 745.6z m-25.6-608H384a25.28 25.28 0 0 1-16-5.6l-118.4-94.72V112a25.6 25.6 0 0 1-25.6 25.6H121.6V694.4h780.8zM720 416m-48 0a48 48 0 1 1 96 0 48 48 0 1 1-96 0ZM512 416m-48 0a48 48 0 1 1 96 0 48 48 0 1 1-96 0ZM304 416m-48 0a48 48 0 1 1 96 0 48 48 0 1 1-96 0Z"  horiz-adv-x="1024" />
      
      <glyph glyph-name="Email" unicode="&#59158;" d="M985.6 704a17.76 17.76 0 0 1 0 3.04v2.08 2.4c0 0.8 0 1.6-0.8 2.4l-0.96 1.6a16 16 0 0 1-1.6 2.72l-2.56 1.76-1.92 2.24-1.92 1.6-1.92 1.44-2.24 1.28a13.44 13.44 0 0 1-2.24 0.96H54.56a13.44 13.44 0 0 1-2.24-0.96l-2.24-1.28-2.08-1.28-1.92-1.6-1.76-2.4-1.12-1.44a16 16 0 0 1-1.6-2.72l-0.96-1.6v-6.88a17.76 17.76 0 0 1 0-3.04V64A25.6 25.6 0 0 1 64 38.39999999999998h896a25.6 25.6 0 0 1 25.6 25.6V704zM880 678.4L512 416 144 678.4zM89.6 89.60000000000002V654.24L497.12 363.20000000000005a25.44 25.44 0 0 1 29.76 0L934.4 654.24V89.60000000000002z"  horiz-adv-x="1024" />
      
      <glyph glyph-name="configure" unicode="&#59015;" d="M746.4 784h-468.8L42.88 384l234.72-400h468.8l234.72 400z m-36.8-736h-395.2L117.12 384l197.28 336h395.2l197.28-336zM512 560a176 176 0 1 1 176-176 176 176 0 0 1-176 176z m0-288a112 112 0 1 0 112 112 112 112 0 0 0-112-112z"  horiz-adv-x="1024" />
      
      <glyph glyph-name="Download" unicode="&#59156;" d="M912 240a32 32 0 0 1-32-32v-192H144V208a32 32 0 0 1-64 0v-224a32 32 0 0 1 32-32h800a32 32 0 0 1 32 32V208a32 32 0 0 1-32 32zM489.44 249.44000000000005a22.72 22.72 0 0 1 4.8-4 13.28 13.28 0 0 1 2.56-1.44l2.88-1.6 3.36-0.96 2.72-0.8a30.72 30.72 0 0 1 12.48 0l2.72 0.8 3.36 0.96 2.88 1.6a20.64 20.64 0 0 1 2.56 1.44 22.72 22.72 0 0 1 4.8 4L763.2 477.92a32 32 0 0 1-45.28 45.28L544 349.28V784a32 32 0 0 1-64 0v-434.72L306.08 523.2a32 32 0 0 1-45.28-45.28z"  horiz-adv-x="1024" />
      
      <glyph glyph-name="Forward" unicode="&#59143;" d="M912 336a32 32 0 0 1-32-32v-288H144V752h288a32 32 0 0 1 0 64H112a32 32 0 0 1-32-32v-800a32 32 0 0 1 32-32h800a32 32 0 0 1 32 32V304a32 32 0 0 1-32 32zM368 332V240a32 32 0 0 1 64 0v92C432 475.36 554.08 592 704 592h125.76l-131.36-120.48A32 32 0 0 1 720 416a32 32 0 0 1 21.6 8.48l192 176a27.36 27.36 0 0 1 2.88 3.2l1.28 1.6a38.88 38.88 0 0 1 3.2 5.6 35.52 35.52 0 0 1 1.92 6.24 9.12 9.12 0 0 1 0 2.08A32.96 32.96 0 0 1 944 624a12.48 12.48 0 0 1 0 2.24 34.08 34.08 0 0 1 0 4 14.08 14.08 0 0 1-0.8 2.4 36 36 0 0 1-1.28 3.84l-2.08 3.52a38.24 38.24 0 0 1-2.08 3.36l-1.76 2.08-2.56 2.72-0.96 0.96-192 160a32 32 0 1 1-40.96-49.28L823.68 656H704c-185.28 0-336-145.28-336-324z"  horiz-adv-x="1024" />
      
      <glyph glyph-name="Export" unicode="&#59144;" d="M912 304a32 32 0 0 1-32-32v-256H144V560a32 32 0 0 1-64 0v-576a32 32 0 0 1 32-32h800a32 32 0 0 1 32 32V272a32 32 0 0 1-32 32zM288 208a32 32 0 0 1 32 32v92C320 475.36 442.08 592 592 592h125.76l-131.36-120.48A32 32 0 0 1 608 416a32 32 0 0 1 21.6 8.48l192 176a27.36 27.36 0 0 1 2.88 3.2l1.28 1.6a38.88 38.88 0 0 1 3.2 5.6 35.52 35.52 0 0 1 1.92 6.24 9.12 9.12 0 0 1 0 2.08A32.96 32.96 0 0 1 832 624a12.48 12.48 0 0 1 0 2.24 34.08 34.08 0 0 1 0 4 14.08 14.08 0 0 1-0.8 2.4 36 36 0 0 1-1.28 3.84l-2.08 3.52a38.24 38.24 0 0 1-2.08 3.36l-1.76 2.08-2.56 2.72-0.96 0.96-192 160a32 32 0 1 1-40.96-49.28L711.68 656H592c-185.28 0-336-145.28-336-324V240a32 32 0 0 1 32-32z"  horiz-adv-x="1024" />
      
      <glyph glyph-name="Import" unicode="&#59146;" d="M912 592a32 32 0 0 1-32-32v-544H144V272a32 32 0 0 1-64 0v-288a32 32 0 0 1 32-32h800a32 32 0 0 1 32 32V560a32 32 0 0 1-32 32zM375.36 235.51999999999998l0.96-0.96a21.92 21.92 0 0 1 2.88-2.56l1.92-1.76 3.36-2.08 2.24-1.28 3.84-1.28 2.4-0.8a34.08 34.08 0 0 1 4 0L400 224a43.36 43.36 0 0 1 6.56 0h0.96a27.68 27.68 0 0 1 5.12 1.76h1.76l3.84 2.24 1.92 1.6a21.92 21.92 0 0 1 2.88 2.56l176 192a32 32 0 1 1-47.04 43.2L432 338.24V464c0 149.92 116.64 272 260 272H784a32 32 0 0 1 0 64h-92C513.28 800 368 649.28 368 464v-119.68l-103.36 124.16a32 32 0 1 1-49.28-40.96z"  horiz-adv-x="1024" />
      
      <glyph glyph-name="Upload" unicode="&#59147;" d="M912 240a32 32 0 0 1-32-32v-192H144V208a32 32 0 0 1-64 0v-224a32 32 0 0 1 32-32h800a32 32 0 0 1 32 32V208a32 32 0 0 1-32 32zM306.08 532.8L480 706.72V272a32 32 0 0 1 64 0V706.72L717.92 532.8a32 32 0 0 1 45.28 45.28L534.56 806.56a22.72 22.72 0 0 1-4.8 4 13.28 13.28 0 0 1-1.76 1.44l-2.88 1.6-3.36 0.96h-2.72a32 32 0 0 1-12.48 0h-2.72l-3.36-0.96-2.88-1.6a13.28 13.28 0 0 1-2.56-1.44 22.72 22.72 0 0 1-4.8-4L260.8 578.0799999999999a32 32 0 0 1 45.28-45.28z"  horiz-adv-x="1024" />
      
      <glyph glyph-name="nav-cl-BaitFile" unicode="&#59155;" d="M928 784a32 32 0 0 1-32-32v-512a192 192 0 0 0-384 0 32 32 0 0 1-64 0 256 256 0 0 1 256-256 264.32 264.32 0 0 1 32 2.24V-32H128V800h608v-560a32 32 0 0 1 64 0V864H64v-960h736v98.88A256 256 0 0 1 960 240V752a32 32 0 0 1-32 32zM624 608a32 32 0 0 1-32 32H272a32 32 0 0 1 0-64h320a32 32 0 0 1 32 32zM272 448a32 32 0 0 1 0-64h128a32 32 0 0 1 0 64z"  horiz-adv-x="1024" />
      
      <glyph glyph-name="nav-cl-VirtualPatch" unicode="&#59153;" d="M224 832l-1.6-64h64V832H224zM64 381.12h64v-63.36H64zM64 492.16h64v-63.36H64zM134.56 60.960000000000036l-59.52-23.36a161.28 161.28 0 0 1 45.6-64l41.44 48.8a94.72 94.72 0 0 0-27.52 38.56zM128 96v64H64v-64a21.44 21.44 0 0 1 0-3.2l32 3.2zM192.8 5.1200000000000045l-20.8-60.48A160 160 0 0 1 224-64h21.12v64H224a98.08 98.08 0 0 0-31.2 5.12zM64 603.2h64v-63.36H64zM896 672v-62.72h64v63.36L896 672zM556.48 832h63.36v-64h-63.36zM889.28 707.36l59.52 23.52a160.96 160.96 0 0 1-45.92 64l-41.12-49.44a96 96 0 0 0 27.52-38.08zM445.44 832h63.36v-64h-63.36zM188.8 761.28l-23.36 59.68a162.72 162.72 0 0 1-64-45.76l48.96-41.28a96 96 0 0 0 38.4 27.36zM128 672a96 96 0 0 0 5.12 31.04l-60.64 20.64A161.28 161.28 0 0 1 64 672v-21.28h64zM334.56 832h63.36v-64h-63.36zM64 270.24h64v-63.36H64zM896 228.79999999999995h64v-63.36h-64zM800 832h-21.6v-64H800a96 96 0 0 0 30.88-5.12l20.48 60.64A160 160 0 0 1 800 832zM292.64 0h63.36v-64h-63.36zM896 96a99.52 99.52 0 0 0-4.96-30.72l60.64-20.48A163.36 163.36 0 0 1 960 96v21.76h-64zM896 561.76h64v-63.36h-64zM896 339.67999999999995h64v-63.36h-64zM896 450.72h64v-63.36h-64zM835.52 6.720000000000027l23.68-59.36a161.6 161.6 0 0 1 64 45.92l-49.6 41.12a97.6 97.6 0 0 0-38.08-27.68zM514.56 0h63.36v-64h-63.36zM403.68 0h63.36v-64h-63.36zM625.6 0h63.36v-64H625.6zM667.52 832h63.36v-64h-63.36zM736.64 0v-64h64.32L800 0h-63.36zM670.4 519.8399999999999L466.72 316.15999999999997l-113.12 113.12A32 32 0 0 1 308.32 384l135.84-135.84a32 32 0 0 1 22.56-9.28 32 32 0 0 1 22.72 9.28l226.24 226.4a32 32 0 0 1-45.28 45.28z"  horiz-adv-x="1024" />
      
      <glyph glyph-name="nav-cl-SecurityPatch" unicode="&#59154;" d="M800 832H224A160 160 0 0 1 64 672v-576a160 160 0 0 1 160-160h576a160 160 0 0 1 160 160V672A160 160 0 0 1 800 832z m96-736a96 96 0 0 0-96-96H224a96 96 0 0 0-96 96V672a96 96 0 0 0 96 96h576a96 96 0 0 0 96-96zM670.4 519.8399999999999L466.72 316.15999999999997l-113.12 113.12A32 32 0 0 1 308.32 384l135.84-135.84a32 32 0 0 1 22.56-9.28 32 32 0 0 1 22.72 9.28l226.24 226.4a32 32 0 0 1-45.28 45.28z"  horiz-adv-x="1024" />
      
      <glyph glyph-name="Viewpoint" unicode="&#59152;" d="M512 96c269.12 0 480 126.56 480 288S781.12 672 512 672 32 545.44 32 384s210.88-288 480-288z m0 512c225.44 0 416-102.56 416-224S737.44 160 512 160 96 262.55999999999995 96 384s190.56 224 416 224zM512 240a144 144 0 1 1-144 144 144 144 0 0 1 144-144z m0 224a80 80 0 1 0-80-80 80 80 0 0 0 80 80zM882.88 105.91999999999996A912 912 0 0 0 512 32a912 912 0 0 0-370.88 73.92 14.4 14.4 0 0 1-3.68 1.28h-2.4a24.32 24.32 0 0 1-3.36 0L128 108.79999999999995h-5.76l-3.36-0.96-2.56-0.8a24.16 24.16 0 0 1-2.88-1.44 13.28 13.28 0 0 1-2.56-1.44l-2.24-1.6-2.88-2.24a17.44 17.44 0 0 1-1.6-1.76l-2.08-2.56c-0.8-1.12-1.28-2.24-1.92-3.2l-0.96-1.92a16 16 0 0 1-1.28-3.52 12 12 0 0 0 0-2.56v-3.2a19.68 19.68 0 0 1 0-3.04 17.6 17.6 0 0 1 0-2.88 20.32 20.32 0 0 1 0-3.2l0.96-3.04a19.36 19.36 0 0 1 0-2.88c0-0.96 0.96-1.76 1.28-2.72a16 16 0 0 1 1.6-2.72l1.6-2.24 2.24-2.88 96-96a32 32 0 0 1 48 42.56A1041.44 1041.44 0 0 1 512-32a972.32 972.32 0 0 1 397.12 80 32 32 0 1 1-26.24 58.24zM128 659.2a32 32 0 0 1 13.12 2.88A912 912 0 0 0 512 736a912 912 0 0 0 370.88-73.92l3.52-1.28h17.6a18.72 18.72 0 0 1 3.2 0.96l2.56 1.28 3.04 1.6 1.92 1.44 3.04 2.56a12.96 12.96 0 0 1 1.44 1.6 19.84 19.84 0 0 1 2.24 2.88 11.52 11.52 0 0 1 1.76 3.04 12 12 0 0 1 1.12 1.92 16 16 0 0 1 1.28 3.52 12 12 0 0 0 0.8 2.56v3.2a19.68 19.68 0 0 1 0 3.04 17.6 17.6 0 0 1 0 2.88 20.32 20.32 0 0 1 0 3.2l-0.96 3.04a19.36 19.36 0 0 1 0 2.88 20.8 20.8 0 0 1-1.28 2.72 16 16 0 0 1-1.6 2.72l-1.6 2.24-2.24 2.88-96 96a32 32 0 0 1-48-42.56A1041.44 1041.44 0 0 1 512 800a972.32 972.32 0 0 1-397.12-80A32 32 0 0 1 128 659.2z"  horiz-adv-x="1024" />
      
      <glyph glyph-name="nav-zc-AssetVulnerability" unicode="&#59149;" d="M512 848a464 464 0 1 1 464-464A464 464 0 0 1 512 848zM144 304a128 128 0 1 0 128-128 128 128 0 0 0-128 128z m65.6-181.44a192 192 0 1 1-96 288.96 400 400 0 1 0 786.56-126.08A160 160 0 1 1 752 64a399.2 399.2 0 0 0-542.4 58.56zM752 128a96 96 0 1 0 96 96 96 96 0 0 0-96-96zM704 608a128 128 0 1 1-128-128 128 128 0 0 1 128 128z m-128-64a64 64 0 1 0 64 64 64 64 0 0 0-64-64z"  horiz-adv-x="1024" />
      
      <glyph glyph-name="nav-zc-RiskAsset" unicode="&#59151;" d="M987.68 400l-224 384A32 32 0 0 1 736 800H288a32 32 0 0 1-27.68-16l-224-384a32 32 0 0 1 0-32l224-384A32 32 0 0 1 288-32h448a32 32 0 0 1 27.68 16l224 384a32 32 0 0 1 0 32zM717.6 32h-411.2L101.12 384l205.28 352h411.2l205.28-352zM512 624a32 32 0 0 1-32-32v-256a32 32 0 0 1 64 0V592a32 32 0 0 1-32 32zM512 240a32 32 0 0 1-32-32v-32a32 32 0 0 1 64 0v32a32 32 0 0 1-32 32z"  horiz-adv-x="1024" />
      
      <glyph glyph-name="close" unicode="&#58995;" d="M557.28 384l297.28 297.44a32 32 0 0 1-45.12 45.12L512 429.28 214.56 726.56a32 32 0 0 1-45.12-45.12L466.72 384 169.44 86.55999999999995a32 32 0 1 1 45.12-45.12L512 338.72l297.44-297.28a32 32 0 0 1 45.12 45.12z"  horiz-adv-x="1024" />
      
      <glyph glyph-name="Filters" unicode="&#59008;" d="M928 576H96a32 32 0 0 0 0 64h832a32 32 0 0 0 0-64zM832 336H192a32 32 0 0 0 0 64h640a32 32 0 0 0 0-64zM736 96H288a32 32 0 0 0 0 64h448a32 32 0 0 0 0-64z"  horiz-adv-x="1024" />
      
      <glyph glyph-name="Search" unicode="&#59001;" d="M934.56 6.559999999999945l-138.88 139.04a416.8 416.8 0 1 1-45.28-45.28l139.04-138.88a32 32 0 0 1 45.12 45.12zM128 416a352 352 0 1 0 352-352A352 352 0 0 0 128 416z"  horiz-adv-x="1024" />
      
      <glyph glyph-name="Setting" unicode="&#59148;" d="M512 576a192 192 0 1 1 192-192 192 192 0 0 1-192 192z m0-320a128 128 0 1 0 128 128 128 128 0 0 0-128-128zM992 384a594.72 594.72 0 0 1-9.92 94.4c-8.16 43.04-37.92 72-74.24 72h-4.96a78.24 78.24 0 0 0-77.6 78.72 92.32 92.32 0 0 0 6.72 28.96A91.04 91.04 0 0 1 801.76 768l-115.04 64-2.88 1.44a96 96 0 0 1-106.24-20.16c-16-16-48-39.04-64-39.04s-48 23.68-64 39.84a94.08 94.08 0 0 1-68.16 29.12 89.6 89.6 0 0 1-35.84-7.2l-119.2-65.76L224 768a90.24 90.24 0 0 1-32-109.76 92.48 92.48 0 0 0 7.04-29.92 78.4 78.4 0 0 0-77.6-78.72h-4.32c-37.44 0-67.04-28.16-75.2-71.84A596.8 596.8 0 0 1 32 384a609.76 609.76 0 0 1 9.92-94.56c8.16-43.04 38.08-72 74.56-72h4.48a78.24 78.24 0 0 0 77.6-78.72 92.48 92.48 0 0 0-6.56-29.76A89.6 89.6 0 0 1 221.6 0l113.28-64 2.72-1.28a94.72 94.72 0 0 1 107.2 21.6c17.12 18.72 49.92 41.6 64.8 41.6s50.4-25.6 66.4-43.2a94.72 94.72 0 0 1 69.12-29.92 91.68 91.68 0 0 1 35.36 7.04l117.76 65.28 2.88 1.76a90.88 90.88 0 0 1 32 109.76 97.12 97.12 0 0 0-6.88 29.76 78.24 78.24 0 0 0 77.6 78.72h3.68c37.6 0 67.2 28.32 75.36 72A592 592 0 0 1 992 384z m-72.64-81.44v-1.28c-2.08-11.36-7.52-19.84-12.48-19.84h-3.68a142.24 142.24 0 0 1-141.6-142.72 160 160 0 0 1 12.16-55.2 26.88 26.88 0 0 0-8.8-32l-110.88-61.12a30.08 30.08 0 0 0-32 7.68c-2.24 2.56-58.08 64-112 64s-112-61.92-112-62.56a29.76 29.76 0 0 0-32-6.72l-108 60a26.08 26.08 0 0 0-7.52 30.88 152.32 152.32 0 0 1 12.16 54.72 142.24 142.24 0 0 1-141.6 142.72h-4.64c-3.36 0-9.28 6.88-11.68 20.16A530.24 530.24 0 0 0 96 384a538.4 538.4 0 0 0 8.8 82.56c2.08 11.36 7.36 19.84 12.32 19.84h3.84a142.4 142.4 0 0 1 141.6 142.72 157.12 157.12 0 0 1-12.32 55.36 26.56 26.56 0 0 0 8.8 31.04l113.12 62.56a32 32 0 0 0 32-7.52c2.24-2.4 57.28-60 110.4-60S621.6 766.72 624 769.12a31.04 31.04 0 0 0 33.12 6.56l108.96-61.44a26.08 26.08 0 0 0 8-29.44 160 160 0 0 1-12.64-56 142.24 142.24 0 0 1 141.6-142.72h4.8c3.2 0 9.12-6.88 11.52-19.84A525.12 525.12 0 0 0 928 384a525.76 525.76 0 0 0-8.64-81.76z"  horiz-adv-x="1024" />
      
      <glyph glyph-name="authorization" unicode="&#59017;" d="M327.04 608l-139.36-231.84V608H64l-16-37.44h35.04V160h104.64l280.16 448z m210.72-1.92L267.04 160h131.04l267.36 446.08z m300.16 0h-96.96L470.08 160h174.4l29.6 37.6H624l77.44 130.4h136.96c86.4 0 134.4 59.68 141.92 135.2s-34.88 144.8-142.4 142.88z m-4.16-199.84h-86.4L820 528h13.76a57.6 57.6 0 0 0 60.64-61.44 57.12 57.12 0 0 0-60.64-60.8z"  horiz-adv-x="1024" />
      
      <glyph glyph-name="icon_yinqing-C-xunibudingguizeyinqing" unicode="&#59141;" d="M26.4 864m256 0l448 0q256 0 256-256l0-448q0-256-256-256l-448 0q-256 0-256 256l0 448q0 256 256 256ZM526.88 585.6m-79.52 0a79.52 79.52 0 1 1 159.04 0 79.52 79.52 0 1 1-159.04 0ZM601.92 160.96A58.72 58.72 0 0 1 544 102.24a57.92 57.92 0 0 1 11.52-34.56 320 320 0 0 1 105.76 35.84 58.56 58.56 0 0 1-59.36 57.44zM691.04 645.28a320 320 0 1 1-154.08-579.84A74.72 74.72 0 1 0 675.52 112a320 320 0 0 1 16 533.12z m-347.2-321.44a40 40 0 1 0-20.48 52.8 40.16 40.16 0 0 0 20.48-52.8z m263.04 205.28a97.92 97.92 0 1 0-23.52 136.32 97.92 97.92 0 0 0 23.52-136.32zM526.88 664.96a80 80 0 1 1 80-80 80 80 0 0 1-80 80z m0-133.28a53.92 53.92 0 1 0 53.92 53.92 53.92 53.92 0 0 0-53.92-53.92zM307.2 364.64a24.64 24.64 0 1 1 24.64-24.64 24.64 24.64 0 0 1-24.64 24.64zM601.92 160.96A58.72 58.72 0 0 1 544 102.24a57.92 57.92 0 0 1 11.52-34.56 320 320 0 0 1 105.76 35.84 58.56 58.56 0 0 1-59.36 57.44z m-32-64a35.52 35.52 0 0 0 0 5.92 33.12 33.12 0 0 0 62.56 16A284.32 284.32 0 0 0 569.28 96z"  horiz-adv-x="1024" />
      
      <glyph glyph-name="icon_yinqing-S-anquanbudingyinqing" unicode="&#59142;" d="M32 864m256 0l448 0q256 0 256-256l0-448q0-256-256-256l-448 0q-256 0-256 256l0 448q0 256 256 256ZM696.64 645.28a320 320 0 1 1-154.08-579.84A74.72 74.72 0 1 0 681.12 112a320 320 0 0 1 16 533.12z m-347.2-321.44a40 40 0 1 0-20.48 52.8 40.16 40.16 0 0 0 20.48-52.8z m263.04 205.28a97.92 97.92 0 1 0-23.52 136.32 97.92 97.92 0 0 0 23.52-136.32zM532.48 585.6m-79.52 0a79.52 79.52 0 1 1 159.04 0 79.52 79.52 0 1 1-159.04 0ZM312.8 340m-24.64 0a24.64 24.64 0 1 1 49.28 0 24.64 24.64 0 1 1-49.28 0ZM608 160.96a58.72 58.72 0 0 1-58.72-58.72 57.92 57.92 0 0 1 10.72-34.56 320 320 0 0 1 105.76 35.84A58.56 58.56 0 0 1 608 160.96z"  horiz-adv-x="1024" />
      
      <glyph glyph-name="fx-weakpassword-app" unicode="&#59138;" d="M768 435.2a304 304 0 0 0 165.6-48.96v35.36a105.44 105.44 0 0 1-105.44 105.44H353.92v36a164 164 0 0 0 67.68 135.2 158.08 158.08 0 0 0 220.48-40L704 749.92a263.52 263.52 0 0 1-455.52-181.44v-41.44h-52.8a105.44 105.44 0 0 1-105.28-105.44V-64H528a306.72 306.72 0 0 0 240 499.2zM768 384a256 256 0 1 1 256-256 256 256 0 0 1-256 256z m-11.52-350.08a30.4 30.4 0 0 0-30.4-30.4h-55.84A30.08 30.08 0 0 0 640 32v52.96a30.24 30.24 0 0 0 30.24 30.24h86.24z m0 106.88h-86.24A28.96 28.96 0 0 0 640 169.44000000000005v52.64a30.4 30.4 0 0 0 30.24 30.4h55.84a30.4 30.4 0 0 0 30.4-30.4zM896 32a30.08 30.08 0 0 0-30.24-28.8h-55.84a30.4 30.4 0 0 0-30.4 30.4v81.6h86.24A30.24 30.24 0 0 0 896 84.96000000000004z m0 137.12a28.96 28.96 0 0 0-30.24-28.64h-86.24v81.6a30.4 30.4 0 0 0 30.4 30.4h55.84a30.4 30.4 0 0 0 30.24-30.4z"  horiz-adv-x="1024" />
      
      <glyph glyph-name="fx-weakpassword-os" unicode="&#59140;" d="M688 185.27999999999997c-28.16 0-46.08-24.32-46.08-64.96s17.92-66.4 46.08-66.4 46.08 25.92 46.08 66.4-17.76 64.96-46.08 64.96zM768 384a256 256 0 1 1 256-256 256 256 0 0 1-256 256z m-80-362.88c-50.24 0-84.8 37.6-84.8 99.2s34.56 97.44 84.8 97.44 84.8-36 84.8-97.44-34.4-99.2-84.8-99.2z m178.4 0A101.28 101.28 0 0 0 797.44 48l21.76 26.08a75.04 75.04 0 0 1 48-20.96c19.68 0 30.24 8.48 30.24 21.76s-11.52 18.4-28.48 25.6L843.84 112a55.04 55.04 0 0 0-38.4 51.04c0 31.04 27.04 54.72 65.44 54.72a84 84 0 0 0 59.52-24.32L912 169.76a61.12 61.12 0 0 1-40.32 16c-16 0-27.36-7.36-27.36-20s13.6-18.4 29.76-24.8l24.8-10.56a52.32 52.32 0 0 0 38.24-51.36c-0.8-31.04-26.72-57.92-70.56-57.92zM768 435.2a304 304 0 0 0 165.6-48.96v35.36a105.44 105.44 0 0 1-105.44 105.44H353.92v36a164 164 0 0 0 67.68 135.2 158.08 158.08 0 0 0 220.48-40L704 749.92a263.52 263.52 0 0 1-455.52-181.44v-41.44h-52.8a105.44 105.44 0 0 1-105.28-105.44V-64H528a306.72 306.72 0 0 0 240 499.2z"  horiz-adv-x="1024" />
      
      <glyph glyph-name="wh-changeOS" unicode="&#59137;" d="M928 537.6H219.36l140.32 148.8a25.6 25.6 0 0 1-37.28 35.2L100.64 486.4H928a25.6 25.6 0 0 1 0 51.2zM80.96 256a25.6 25.6 0 0 1 25.6-25.6H816l-140.32-148.8a25.44 25.44 0 0 1 1.12-36.16 24.48 24.48 0 0 1 17.44-7.04 25.92 25.92 0 0 1 18.72 8l220.8 235.2H106.56a25.6 25.6 0 0 1-25.6-25.6z"  horiz-adv-x="1024" />
      
      <glyph glyph-name="changeOS" unicode="&#59135;" d="M176.96 461.6H48L310.88 720l61.92-62.08L274.88 560H976v-98.08zM976 306.4L713.12 48l-61.92 62.08L749.12 208H48v98.4z"  horiz-adv-x="1024" />
      
      <glyph glyph-name="cl-wjbh-protectfile" unicode="&#59125;" d="M704 672a24.96 24.96 0 0 1-24.32 25.6h-336a25.6 25.6 0 0 1 0-51.2h336A24.96 24.96 0 0 1 704 672zM896 442.08V845.92A18.24 18.24 0 0 1 877.92 864H146.08A18.24 18.24 0 0 1 128 845.92v-923.84A18.24 18.24 0 0 1 146.08-96h466.24A313.12 313.12 0 0 1 896 442.08zM179.2-44.799999999999955V812.8h665.6v-333.6A313.12 313.12 0 0 1 503.2-44.799999999999955z m508.8-9.6A262.4 262.4 0 1 0 950.4 208 262.72 262.72 0 0 0 688-54.39999999999998zM808.16 288l-188.64-144-64 77.28a25.6 25.6 0 0 1-38.88-33.28l80-96a25.44 25.44 0 0 1 35.36-3.36l208 160a25.6 25.6 0 0 1-32 40z"  horiz-adv-x="1024" />
      
      <glyph glyph-name="cl-wjbh-monitorrules" unicode="&#59128;" d="M512 480m-38.4 0a38.4 38.4 0 1 1 76.8 0 38.4 38.4 0 1 1-76.8 0ZM537.6 80.96000000000004a400 400 0 1 1-51.2 0v-119.36H192v-51.2h640v51.2H537.6zM248.16 707.6800000000001l64-64.8 36.16 36.16-64 64.8a347.52 347.52 0 0 0 455.36 0l-64-64.8 36.16-36.16 64.8 64.8a347.52 347.52 0 0 0 0-455.36l-64.8 64-36.16-36.16 64-64.8a347.52 347.52 0 0 0-455.36 0l64.8 64.8-36.16 36.16-64-64a347.52 347.52 0 0 0 0 455.36z"  horiz-adv-x="1024" />
      
      <glyph glyph-name="cl-wjbh-Monitorfile" unicode="&#59130;" d="M704 672a24.96 24.96 0 0 1-24.32 25.6h-336a25.6 25.6 0 0 1 0-51.2h336A24.96 24.96 0 0 1 704 672zM896 442.08V845.92A18.24 18.24 0 0 1 877.92 864H146.08A18.24 18.24 0 0 1 128 845.92v-923.84A18.24 18.24 0 0 1 146.08-96h466.24A313.12 313.12 0 0 1 896 442.08zM179.2-44.799999999999955V812.8h665.6v-333.6A313.12 313.12 0 0 1 503.2-44.799999999999955z m508.8-9.6A262.4 262.4 0 1 0 950.4 208 262.72 262.72 0 0 0 688-54.39999999999998zM688 246.39999999999998a38.4 38.4 0 1 1 38.4-38.4 38.24 38.24 0 0 1-38.4 38.4z"  horiz-adv-x="1024" />
      
      <glyph glyph-name="cl-wjbh-monitorhost" unicode="&#59132;" d="M848 768H80v-224h768z m-51.2-172.8H131.2v121.6h665.6zM688 521.6a310.72 310.72 0 0 1-123.84-25.6H80v-224h300.96a306.56 306.56 0 0 1-6.08-48H80v-224h373.92A313.44 313.44 0 1 1 688 521.6zM131.2 323.20000000000005v121.6h352a315.36 315.36 0 0 1-86.4-121.6H131.2z m285.6-272H131.2v121.6h245.28a312.32 312.32 0 0 1 40.32-121.6z m272-105.6A262.4 262.4 0 1 0 950.4 208 262.72 262.72 0 0 0 688-54.39999999999998zM688 246.39999999999998a38.4 38.4 0 1 1 38.4-38.4 38.24 38.24 0 0 1-38.4 38.4z"  horiz-adv-x="1024" />
      
      <glyph glyph-name="Mnav-reinforce" unicode="&#59124;" d="M969.12 91.36000000000001v7.68a25.6 25.6 0 0 1-0.8 3.36 7.2 7.2 0 0 1 0 1.76 22.24 22.24 0 0 1-1.92 4.48l-432 736a37.92 37.92 0 0 1-3.68 4.8 30.24 30.24 0 0 1-4.32 3.2l-1.44 0.8a23.2 23.2 0 0 1-4.16 1.76h-1.6a23.52 23.52 0 0 1-12.16 0h-1.6a23.2 23.2 0 0 1-4.16-1.76l-1.44-0.8a30.24 30.24 0 0 1-4.32-3.2 37.92 37.92 0 0 1-3.68-4.8l-432-736a22.24 22.24 0 0 1-1.92-4.48 7.2 7.2 0 0 1 0-1.76 25.6 25.6 0 0 1 0-3.36v-12.8a22.72 22.72 0 0 1 1.28-2.88l1.28-1.92a12.16 12.16 0 0 1 1.76-2.24l1.6-1.76 2.24-1.76 2.08-1.44 2.72-1.44h1.6l432-160a24.8 24.8 0 0 1 16 0l432 160a21.76 21.76 0 0 1 5.92 3.36l1.44 1.12a24 24 0 0 1 4.32 4.64h0.8a57.44 57.44 0 0 1 2.72 5.44v1.44 0.8c0 0.8 1.28 1.28 1.44 1.76zM486.4 227.84000000000003L133.28 136.32000000000005 486.4 737.76z m0-52.96V-27.200000000000045l-321.12 118.88z m51.2 0l321.12-83.2L537.6-27.200000000000045z m0 52.96V737.76l353.12-601.44z"  horiz-adv-x="1024" />
      
      <glyph glyph-name="Mnav-policy" unicode="&#59043;" d="M867.84 749.6L864 750.72 522.08 818.24A50.88 50.88 0 0 1 512 819.2a53.76 53.76 0 0 1-10.08-0.96l-352-70.56a51.2 51.2 0 0 1-41.12-50.24v-210.24A564.16 564.16 0 0 1 496-48a52.32 52.32 0 0 1 32 0 564.16 564.16 0 0 1 387.2 535.2V686.88a65.76 65.76 0 0 1-47.36 62.72zM864 487.2A513.6 513.6 0 0 0 512 0a513.6 513.6 0 0 0-352 487.2V697.44L512 768l341.44-67.52a14.4 14.4 0 0 0 10.4-13.6zM648.48 522.72L457.44 331.67999999999995l-81.92 81.76a25.6 25.6 0 1 1-36.16-36.16l99.84-100a26.24 26.24 0 0 1 18.24-7.52 25.92 25.92 0 0 1 18.08 7.52L684.64 486.4a25.6 25.6 0 0 1-36.16 36.32z"  horiz-adv-x="1024" />
      
      <glyph glyph-name="Mnav-maintain-S" unicode="&#59126;" d="M812-41.60000000000002a25.6 25.6 0 0 0-18.08 7.52L459.04 300.79999999999995A265.76 265.76 0 0 0 87.68 517.9200000000001a264.96 264.96 0 0 0 29.44 150.24 25.44 25.44 0 0 0 40.8 6.08l134.08-134.08 64 64-134.24 133.92a25.44 25.44 0 0 0 6.08 40.8 264.96 264.96 0 0 0 150.24 29.44A265.76 265.76 0 0 0 595.2 436.96l334.88-334.88a25.44 25.44 0 0 0 0-36.16l-100-100a25.6 25.6 0 0 0-18.08-7.52z"  horiz-adv-x="1024" />
      
      <glyph glyph-name="Mnav-reinforce-S" unicode="&#59127;" d="M486.4 768a25.6 25.6 0 0 0 51.2 0v-553.44l431.04-112a28.8 28.8 0 0 1-2.56 6.08l-432 736a25.6 25.6 0 0 1-44.16 0l-432-736a28.8 28.8 0 0 1-2.56-6.08l431.04 112zM537.6 0a25.6 25.6 0 0 0-51.2 0V188.15999999999997L61.76 78.08000000000004a24 24 0 0 1 9.28-6.08l432-160a25.92 25.92 0 0 1 17.92 0l432 160a24 24 0 0 1 9.28 6.08L537.6 188.15999999999997z"  horiz-adv-x="1024" />
      
      <glyph glyph-name="Mnav-journal" unicode="&#59039;" d="M320 566.4h384a25.6 25.6 0 0 1 0 51.2H320a25.6 25.6 0 0 1 0-51.2zM320 422.4h384a25.6 25.6 0 0 1 0 51.2H320a25.6 25.6 0 0 1 0-51.2zM584.48 266.72l-95.04-95.04-49.92 49.76a25.6 25.6 0 0 1-36.16-36.16l67.84-68a26.24 26.24 0 0 1 18.24-7.52 25.92 25.92 0 0 1 18.08 7.52l113.12 113.12a25.6 25.6 0 0 1-36.16 36.32zM816 819.2H208A51.2 51.2 0 0 1 156.8 768v-768a51.2 51.2 0 0 1 51.2-51.2h608a51.2 51.2 0 0 1 51.2 51.2V768A51.2 51.2 0 0 1 816 819.2zM816 0H208V768h608z"  horiz-adv-x="1024" />
      
      <glyph glyph-name="Mnav-policy-S" unicode="&#59129;" d="M867.84 749.6L864 750.72 522.08 818.24A50.88 50.88 0 0 1 512 819.2a53.76 53.76 0 0 1-10.08-0.96l-352-70.56a51.2 51.2 0 0 1-41.12-50.24v-210.24A564.16 564.16 0 0 1 496-48a52.32 52.32 0 0 1 32 0 564.16 564.16 0 0 1 387.2 535.2V686.88a65.76 65.76 0 0 1-47.36 62.72zM684.64 486.4L475.52 277.28a25.92 25.92 0 0 0-18.08-7.52 26.24 26.24 0 0 0-18.24 7.52l-99.84 100a25.6 25.6 0 1 0 36.16 36.16l81.92-81.76 191.04 191.04a25.6 25.6 0 0 0 36.16-36.32z"  horiz-adv-x="1024" />
      
      <glyph glyph-name="Mnav-dashboard" unicode="&#59049;" d="M912 793.6H112A25.6 25.6 0 0 1 86.4 768v-200A25.6 25.6 0 0 1 112 542.4h800a25.6 25.6 0 0 1 25.6 25.6V768A25.6 25.6 0 0 1 912 793.6z m-25.6-200H137.6V742.4h748.8zM392 513.6H112a25.6 25.6 0 0 1-25.6-25.6V-32A25.6 25.6 0 0 1 112-57.60000000000002h280a25.6 25.6 0 0 1 25.6 25.6V488a25.6 25.6 0 0 1-25.6 25.6z m-25.6-520H137.6V462.4h228.8zM912 513.6H472a25.6 25.6 0 0 1-25.6-25.6V-32a25.6 25.6 0 0 1 25.6-25.6H912a25.6 25.6 0 0 1 25.6 25.6V488a25.6 25.6 0 0 1-25.6 25.6z m-25.6-520H497.6V462.4h388.8z"  horiz-adv-x="1024" />
      
      <glyph glyph-name="Mnav-journal-S" unicode="&#59131;" d="M816 819.2H208A51.2 51.2 0 0 1 156.8 768v-768a51.2 51.2 0 0 1 51.2-51.2h608a51.2 51.2 0 0 1 51.2 51.2V768A51.2 51.2 0 0 1 816 819.2zM620.64 230.39999999999998l-113.12-113.12a25.92 25.92 0 0 0-18.08-7.52 26.24 26.24 0 0 0-18.24 7.52l-67.84 68a25.6 25.6 0 0 0 36.16 36.16l49.92-49.76 95.04 95.04a25.6 25.6 0 0 0 36.16-36.32z m83.36 192H320a25.6 25.6 0 0 0 0 51.2h384a25.6 25.6 0 0 0 0-51.2z m0 144H320a25.6 25.6 0 0 0 0 51.2h384a25.6 25.6 0 0 0 0-51.2z"  horiz-adv-x="1024" />
      
      <glyph glyph-name="Mnav-attack" unicode="&#59040;" d="M984.48 583.8399999999999c-13.44 43.68-64 121.28-157.12 103.04-40-7.68-65.12-36.96-82.24-78.56A148 148 0 0 1 626.88 640c-94.56-16.96-143.04-140.48-194.88-272-6.4-16-12.96-32.96-19.52-49.28-13.6 32.96-26.56 67.36-38.88 100.8C324.8 553.6 278.08 679.36 192 688c-94.72 8.64-141.44-86.08-152.8-137.28a25.6 25.6 0 1 1 49.92-11.2c0 0.96 24.48 104.16 98.24 97.44 54.08-4.96 99.2-126.56 139.04-233.76 18.72-50.56 37.76-101.6 59.2-147.36-32.8-70.24-69.44-124.16-116.8-125.6-37.76-0.96-75.36 46.88-86.72 65.44a25.6 25.6 0 1 1-43.84-26.4c2.24-3.68 55.2-90.24 129.28-90.24h2.88c63.2 2.08 107.52 52.48 144 120.96 33.76-56.48 74.24-96.8 128-103.36a198.08 198.08 0 0 1 25.12-1.6C713.44 94.39999999999998 737.44 272 756.96 416c4 30.08 8.16 60.48 13.28 88.64 53.6-81.76 88.16-201.44 100.64-263.68a25.6 25.6 0 0 1 50.24 10.08c-2.4 12-42.88 208-135.68 318.4 11.68 36.48 27.68 62.4 51.68 67.04 70.4 13.6 96-59.52 98.4-67.84a25.6 25.6 0 1 1 48.96 15.04zM548.48 146.72000000000003c-41.76 5.28-76.32 49.92-106.56 109.44 13.44 30.24 25.92 62.24 38.4 93.92 43.84 112 89.12 227.36 155.36 238.88a107.84 107.84 0 0 0 92.8-33.44 1312 1312 0 0 1-22.24-132.48c-23.84-175.84-47.68-290.08-157.76-276.32z"  horiz-adv-x="1024" />
      
      <glyph glyph-name="Mnav-risk-S" unicode="&#59133;" d="M825.6 368a313.6 313.6 0 0 1-627.2 0v-390.4H64v-51.2h896v51.2h-134.4z m-339.2 96a25.6 25.6 0 0 0 51.2 0v-224a25.6 25.6 0 0 0-51.2 0zM512 72a32 32 0 1 0 32 32 32 32 0 0 0-32-32zM512 742.4A25.6 25.6 0 0 1 537.6 768V832a25.6 25.6 0 0 1-51.2 0v-64A25.6 25.6 0 0 1 512 742.4zM128 362.88a25.6 25.6 0 1 1 0 51.2H64a25.6 25.6 0 1 1 0-51.2zM960 414.08h-64a25.6 25.6 0 1 1 0-51.2h64a25.6 25.6 0 1 1 0 51.2zM778.72 633.12A25.6 25.6 0 0 1 796.8 640l45.28 45.28a25.6 25.6 0 1 1-36.32 36.16l-45.12-44.64a25.6 25.6 0 0 1 18.08-43.68zM211.2 640a25.6 25.6 0 0 1 36.16 36.16l-45.12 45.28a25.6 25.6 0 1 1-36.32-36.16z"  horiz-adv-x="1024" />
      
      <glyph glyph-name="Mnav-attack-S" unicode="&#59134;" d="M1008.96 592c-16 51.2-74.88 142.24-186.4 120.64a125.76 125.76 0 0 1-87.52-66.56 169.6 169.6 0 0 1-112 19.2C516.8 646.24 464 517.28 413.12 389.28c-5.12 13.44-10.08 26.88-14.88 40-52.32 140.96-101.76 274.72-204.16 283.52C81.92 723.04 27.2 614.4 14.08 555.52a51.2 51.2 0 1 1 99.84-22.24c0 0.8 19.84 81.92 70.88 77.6 38.08-3.52 85.76-132.16 117.44-217.28 17.76-47.04 35.04-94.56 54.72-137.6-27.04-55.84-56.96-99.36-89.12-100.32-20 0-49.6 30.72-64 53.28a51.2 51.2 0 0 1-87.68-53.12c6.4-10.56 64-102.56 151.04-102.56h3.84c62.88 2.08 108.16 41.6 144.96 98.56 32.96-44 72.48-74.56 122.88-80.8a241.44 241.44 0 0 1 29.6-1.92C736 68.63999999999999 762.56 266.24 782.4 412.8c0 4.16 1.12 8.48 1.76 12.8a925.44 925.44 0 0 0 61.6-189.44A51.2 51.2 0 0 1 946.24 256 1108.8 1108.8 0 0 1 880 463.2a533.28 533.28 0 0 1-65.44 112c7.68 20.32 16 34.4 27.68 36.48 48 9.12 65.92-40.64 69.12-50.24a51.2 51.2 0 1 1 97.6 30.56zM680.8 426.4C656 238.88 631.84 162.08000000000004 551.68 172.15999999999997c-29.44 3.68-56.64 37.92-81.44 84.8 11.68 27.36 22.88 55.68 33.92 83.84 37.28 96 83.84 213.92 135.84 222.88a76.32 76.32 0 0 0 60.16-17.76c-8.32-37.76-13.76-78.88-19.36-119.52z"  horiz-adv-x="1024" />
      
      <glyph glyph-name="Mnav-property" unicode="&#59059;" d="M937.6 384a25.28 25.28 0 0 1-14.24 22.72l-153.76 76.8 153.92 77.92a25.6 25.6 0 0 1 14.08 22.88 25.28 25.28 0 0 1-14.24 23.68l-400 199.52a24.8 24.8 0 0 1-22.72 0L100.64 608a25.6 25.6 0 0 1 0-45.92L256 484.8l-155.36-77.92A25.44 25.44 0 0 1 86.4 384a25.92 25.92 0 0 1 14.24-23.04L256 284.32000000000005 100.64 206.39999999999998a25.28 25.28 0 0 1-14.24-22.88A25.6 25.6 0 0 1 100.64 160l405.92-199.04a27.36 27.36 0 0 1 11.2-2.56 25.92 25.92 0 0 1 11.52 2.72L923.52 160a25.44 25.44 0 0 1 0 45.6L769.6 283.20000000000005l153.92 77.92A25.92 25.92 0 0 1 937.6 384zM512 755.36l343.04-171.04-153.92-77.92-183.52-92.96-192 94.4-156 76.8z m5.6-742.72L169.6 183.67999999999995l144 71.84 192-94.08a24.96 24.96 0 0 1 11.2-2.56 27.04 27.04 0 0 1 12.16 2.72l183.36 92.8 142.4-71.04z m183.52 293.28h-1.12l-183.04-92.48-192 94.08L169.6 384l144 72.16 192-94.4a25.28 25.28 0 0 1 22.72 0l183.36 92.8L855.04 384z"  horiz-adv-x="1024" />
      
      <glyph glyph-name="Mnav-dashboard-S" unicode="&#59136;" d="M912 809.6H112A25.6 25.6 0 0 1 86.4 784v-200A25.6 25.6 0 0 1 112 558.4h800a25.6 25.6 0 0 1 25.6 25.6V784A25.6 25.6 0 0 1 912 809.6zM392 529.6H112a25.6 25.6 0 0 1-25.6-25.6V-16A25.6 25.6 0 0 1 112-41.60000000000002h280a25.6 25.6 0 0 1 25.6 25.6V504a25.6 25.6 0 0 1-25.6 25.6zM912 529.6H472a25.6 25.6 0 0 1-25.6-25.6V-16a25.6 25.6 0 0 1 25.6-25.6H912a25.6 25.6 0 0 1 25.6 25.6V504a25.6 25.6 0 0 1-25.6 25.6z"  horiz-adv-x="1024" />
      
      <glyph glyph-name="Mnav-risk" unicode="&#59044;" d="M512 214.39999999999998a25.6 25.6 0 0 1 25.6 25.6V464a25.6 25.6 0 0 1-51.2 0v-224a25.6 25.6 0 0 1 25.6-25.6zM512 104m-32 0a32 32 0 1 1 64 0 32 32 0 1 1-64 0ZM825.6 368a313.6 313.6 0 0 1-627.2 0v-390.4H64v-51.2h896v51.2h-134.4z m-51.2-390.4H249.6V368a262.4 262.4 0 0 0 524.8 0zM512 742.4A25.6 25.6 0 0 1 537.6 768V832a25.6 25.6 0 0 1-51.2 0v-64A25.6 25.6 0 0 1 512 742.4zM128 362.88a25.6 25.6 0 1 1 0 51.2H64a25.6 25.6 0 1 1 0-51.2zM960 414.08h-64a25.6 25.6 0 1 1 0-51.2h64a25.6 25.6 0 1 1 0 51.2zM778.72 633.12A25.6 25.6 0 0 1 796.8 640l45.28 45.28a25.6 25.6 0 1 1-36.32 36.16l-45.12-44.64a25.6 25.6 0 0 1 18.08-43.68zM211.2 640a25.6 25.6 0 0 1 36.16 36.16l-45.12 45.28a25.6 25.6 0 1 1-36.32-36.16z"  horiz-adv-x="1024" />
      
      <glyph glyph-name="Mnav-maintain" unicode="&#59041;" d="M812-41.60000000000002a25.6 25.6 0 0 0-18.08 7.52L459.04 300.79999999999995A265.76 265.76 0 0 0 87.68 517.9200000000001a264.96 264.96 0 0 0 29.44 150.24 25.44 25.44 0 0 0 40.8 6.08l134.08-134.08 64 64-134.24 133.92a25.44 25.44 0 0 0 6.08 40.8 264.96 264.96 0 0 0 150.24 29.44 265.6 265.6 0 0 0 217.12-371.2l334.88-335.04a25.44 25.44 0 0 0 7.52-18.08 25.76 25.76 0 0 0-7.52-18.08l-100-100a25.6 25.6 0 0 0-18.08-7.52zM464 357.44000000000005a24.96 24.96 0 0 0 18.08-7.52l329.92-329.76 64 64-329.92 329.6a25.44 25.44 0 0 0-4.48 30.08 214.4 214.4 0 0 1-168.32 313.6 217.28 217.28 0 0 1-88.64-9.76l125.44-125.6a25.44 25.44 0 0 0 0-36.16l-100-100a25.44 25.44 0 0 0-36.16 0l-125.44 125.44a214.56 214.56 0 0 1-9.92-88.64 214.4 214.4 0 0 1 313.6-168.32 25.28 25.28 0 0 0 11.84 3.04z"  horiz-adv-x="1024" />
      
      <glyph glyph-name="Mnav-property-S" unicode="&#59139;" d="M937.6 384a25.28 25.28 0 0 1-14.24 22.72l-153.76 76.8 153.92 77.92a25.6 25.6 0 0 1 14.08 22.88 25.28 25.28 0 0 1-14.24 23.68l-400 199.52a24.8 24.8 0 0 1-22.72 0L100.64 608a25.6 25.6 0 0 1 0-45.92L256 484.8l-155.36-77.92A25.44 25.44 0 0 1 86.4 384a25.92 25.92 0 0 1 14.24-23.04L256 284.32000000000005 100.64 206.39999999999998a25.28 25.28 0 0 1-14.24-22.88A25.6 25.6 0 0 1 100.64 160l405.92-199.04a27.36 27.36 0 0 1 11.2-2.56 25.92 25.92 0 0 1 11.52 2.72L923.52 160a25.44 25.44 0 0 1 0 45.6L769.6 283.20000000000005l153.92 77.92A25.92 25.92 0 0 1 937.6 384zM551.52 87.20000000000005a77.28 77.28 0 0 0-68.64 0L284.96 184l28.96 14.4 168.48-82.88a78.08 78.08 0 0 1 33.92-7.84h4.32l12.8 2.08a69.76 69.76 0 0 1 19.04 6.08l160 81.28 28.16-14.08z m170.88 286.88L676.48 352l-125.76-64a76.96 76.96 0 0 0-68.48 0l-134.08 65.92-64 31.04 29.6 14.72 169.28-83.2a78.24 78.24 0 0 1 33.92-8 77.12 77.12 0 0 1 34.72 8.32l160 81.28 28.16-14.08z"  horiz-adv-x="1024" />
      
      <glyph glyph-name="nav-cl-fileprotect" unicode="&#59122;" d="M336 630.88h352a25.6 25.6 0 1 1 0 51.2H336a25.6 25.6 0 0 1 0-51.2zM965.12 283.67999999999995L896 400V845.92A18.24 18.24 0 0 1 877.92 864H146.08A18.24 18.24 0 0 1 128 845.92v-923.84A18.24 18.24 0 0 1 146.08-96h467.04l7.36-8.64a25.76 25.76 0 0 1 19.52-8.96 25.76 25.76 0 0 1 19.52 9.12l303.04 358.56a25.6 25.6 0 0 1 2.56 29.6zM179.2-44.799999999999955V812.8h665.6v-325.92l-8.32 14.08a25.6 25.6 0 0 1-22.08 12.64H480a25.92 25.92 0 0 1-21.44-11.36l-144-217.44a25.44 25.44 0 0 1 1.76-30.72L569.6-44.799999999999955zM640-48L367.04 272l126.56 190.4H800l112-189.12zM741.92 346.08000000000004l-125.92-125.92-53.92 53.92a25.6 25.6 0 0 1-36.16-36.16l72-72a25.44 25.44 0 0 1 36.16 0l144 144a25.6 25.6 0 0 1-36.16 36.16z"  horiz-adv-x="1024" />
      
      <glyph glyph-name="nav-cl-baseline" unicode="&#59123;" d="M64 769.6h896v-51.2H64zM897.6 304h-51.2v-292h-124.8V432h-51.2v-420h-124.8V560h-51.2v-548h-124.8V432h-51.2v-420h-124.8V304H142.4v-292H64v-51.2h896v51.2h-62.4V304z"  horiz-adv-x="1024" />
      
      <glyph glyph-name="C-RASP" unicode="&#59121;" d="M32 864m208 0l544 0q208 0 208-208l0-544q0-208-208-208l-544 0q-208 0-208 208l0 544q0 208 208 208ZM611.84 126.39999999999998l-122.72 214.08h-86.88V126.39999999999998H220.32V641.6h380l-57.44-67.2h-140.64v-166.72h198.08V641.6h180.96v-301.12h-96l118.4-214.08z"  horiz-adv-x="1024" />
      
      <glyph glyph-name="wh-syslog" unicode="&#59073;" d="M946.08 618.0799999999999l-160 160A25.76 25.76 0 0 1 768 785.6H128a25.6 25.6 0 0 1-25.6-25.6v-704a25.6 25.6 0 0 1 25.6-25.6h64a25.6 25.6 0 0 1 0 51.2h-38.4V734.4h580.8V592a25.6 25.6 0 0 1 25.6-25.6h142.4v-484.8H672a25.6 25.6 0 0 1 0-51.2h256a25.6 25.6 0 0 1 25.6 25.6V600a25.76 25.76 0 0 1-7.52 18.08z m-160 88.16l88.64-88.64H785.6zM272 542.4h320a25.6 25.6 0 0 1 0 51.2H272a25.6 25.6 0 1 1 0-51.2z m512-176a25.6 25.6 0 0 1 0 51.2H272a25.6 25.6 0 1 1 0-51.2zM450.08 257.76a25.76 25.76 0 0 1-36.16 0L275.36 119.20000000000005a25.6 25.6 0 1 1 36.16-36.16l94.88 94.72v-220.64a25.6 25.6 0 1 1 51.2 0V177.76l94.88-94.72a25.6 25.6 0 0 1 36.16 36.16z"  horiz-adv-x="1024" />
      
      <glyph glyph-name="nav-whitelist" unicode="&#59117;" d="M877.92 864H146.08A18.24 18.24 0 0 1 128 845.92v-923.84A18.24 18.24 0 0 1 146.08-96h731.84A18.24 18.24 0 0 1 896-77.91999999999996V845.92A18.24 18.24 0 0 1 877.92 864zM844.8-44.799999999999955H179.2V812.8h665.6zM336 214.39999999999998h352a25.6 25.6 0 0 1 0 51.2H336a25.6 25.6 0 0 1 0-51.2zM428.64 428.96a25.28 25.28 0 0 1 19.36-8.96 25.92 25.92 0 0 1 16 5.6l240 192a25.6 25.6 0 1 1-32 40l-220.64-176-80 93.12a25.6 25.6 0 1 1-38.72-33.28zM336 70.39999999999998h192a25.6 25.6 0 0 1 0 51.2H336a25.6 25.6 0 0 1 0-51.2z"  horiz-adv-x="1024" />
      
      <glyph glyph-name="nav-blockinglist" unicode="&#59118;" d="M877.92 864H146.08A18.24 18.24 0 0 1 128 845.92v-923.84A18.24 18.24 0 0 1 146.08-96h731.84A18.24 18.24 0 0 1 896-77.91999999999996V845.92A18.24 18.24 0 0 1 877.92 864zM844.8-44.799999999999955H179.2V812.8h665.6zM336 214.39999999999998h352a25.6 25.6 0 0 1 0 51.2H336a25.6 25.6 0 0 1 0-51.2zM336 70.39999999999998h192a25.6 25.6 0 0 1 0 51.2H336a25.6 25.6 0 0 1 0-51.2zM512 358.4A185.6 185.6 0 1 1 326.4 544 185.76 185.76 0 0 1 512 358.4z m0 51.2a133.44 133.44 0 0 0-75.2 22.4L624 619.2a134.4 134.4 0 0 0-112-209.6z m0 268.8a133.44 133.44 0 0 0 75.2-22.4L400 468.8a134.4 134.4 0 0 0 112 209.6z"  horiz-adv-x="1024" />
      
      <glyph glyph-name="nav-assetspolicy" unicode="&#59119;" d="M416 355.20000000000005H160A83.2 83.2 0 0 1 76.8 272v-256a83.2 83.2 0 0 1 83.2-83.2h256a83.2 83.2 0 0 1 83.2 83.2V272a83.2 83.2 0 0 1-83.2 83.2zM448 16a32 32 0 0 0-32-32H160a32 32 0 0 0-32 32V272a32 32 0 0 0 32 32h256a32 32 0 0 0 32-32zM876.96 355.20000000000005h-256a83.2 83.2 0 0 1-83.2-83.2v-256a83.2 83.2 0 0 1 83.2-83.2h256A83.2 83.2 0 0 1 960 16V272a83.2 83.2 0 0 1-83.04 83.2z m32-339.2a32 32 0 0 0-32-32h-256a32 32 0 0 0-32 32V272a32 32 0 0 0 32 32h256a32 32 0 0 0 32-32zM876.96 831.2h-256a83.2 83.2 0 0 1-83.2-83.2v-256a83.36 83.36 0 0 1 83.2-83.2h256a83.36 83.36 0 0 1 83.2 83.2v256a83.2 83.2 0 0 1-83.2 83.2z m32-339.2a32 32 0 0 0-32-32h-256a32 32 0 0 0-32 32v256a32 32 0 0 0 32 32h256a32 32 0 0 0 32-32zM128 594.4h134.4v-134.4a25.6 25.6 0 0 1 51.2 0v134.4H448a25.6 25.6 0 1 1 0 51.2h-134.4v134.4a25.6 25.6 0 0 1-51.2 0v-134.4H128a25.6 25.6 0 1 1 0-51.2z"  horiz-adv-x="1024" />
      
      <glyph glyph-name="nav-securitypolicy" unicode="&#59120;" d="M907.36 790.24l-4.8 1.28L523.2 866.4a51.68 51.68 0 0 1-11.2 1.12 53.28 53.28 0 0 1-11.2-1.12L109.76 788A56.8 56.8 0 0 1 64 732.3199999999999v-233.6A626.72 626.72 0 0 1 494.08-96a57.44 57.44 0 0 1 17.92-2.88 58.56 58.56 0 0 1 18.08 2.88A626.56 626.56 0 0 1 960 498.56V720a73.12 73.12 0 0 1-52.64 70.24zM513.92-48a4 4 0 0 0-1.92 0 3.68 3.68 0 0 0-1.76 0 576 576 0 0 0-220.48 133.92l214.56 463.2 219.36-473.44A578.56 578.56 0 0 0 513.92-48zM908.8 498.56a574.72 574.72 0 0 0-146.72-384L504.32 670.88 252 126.08000000000004A574.72 574.72 0 0 0 115.2 498.72v233.6a5.76 5.76 0 0 0 4.64 5.6L511.04 816h2.24l379.84-75.2a22.08 22.08 0 0 0 16-20.64z"  horiz-adv-x="1024" />
      
      <glyph glyph-name="weakpassword" unicode="&#59088;" d="M704 749.92l-61.12-91.68a158.08 158.08 0 0 1-220.48 40 164 164 0 0 1-67.68-135.2v-100h473.44a105.44 105.44 0 0 0 105.44-105.44V-64H90.4V357.6a105.44 105.44 0 0 0 105.28 105.44h52.8v105.44A263.52 263.52 0 0 0 704 749.92z"  horiz-adv-x="1024" />
      
      <glyph glyph-name="applications" unicode="&#59085;" d="M64 233.27999999999997v-184.32a104.96 104.96 0 0 1 106.08-100.48h195.36a105.92 105.92 0 0 1 106.08 106.08v284.8H170.08A105.92 105.92 0 0 1 64 233.27999999999997zM365.44 819.52H170.08A105.92 105.92 0 0 1 64 713.44v-184.32a101.44 101.44 0 0 1 106.08-100.48h301.44v284.8a105.92 105.92 0 0 1-106.08 106.08zM853.92 819.52H658.56a105.92 105.92 0 0 1-106.08-106.08v-284.8h301.44A101.44 101.44 0 0 1 960 529.12V713.44a105.92 105.92 0 0 1-106.08 106.08zM853.92 339.36H552.48v-284.8a105.92 105.92 0 0 1 106.08-106.08h195.36A104.96 104.96 0 0 1 960 48.960000000000036V233.27999999999997a105.92 105.92 0 0 1-106.08 106.08z"  horiz-adv-x="1024" />
      
      <glyph glyph-name="icon_fengxian-loudong-neihe" unicode="&#59114;" d="M768 435.2a306.4 306.4 0 0 0 221.92-96 480 480 0 1 1-433.92-433.6A306.88 306.88 0 0 0 768 435.2z m-499.84-141.44a60.16 60.16 0 1 0-30.72 80 60.16 60.16 0 0 0 30.72-80z m154.88 477.12a146.72 146.72 0 1 0 35.04-204.32 146.72 146.72 0 0 0-35.04 204.32zM768 384a256 256 0 1 1 256-256 256 256 0 0 1-256 256z m58.24-386.88l-61.12 106.24L734.08 64v-66.56h-48V233.92h48v-102.72h0.96l78.4 102.72h52.16l-72.32-93.12 85.12-144z"  horiz-adv-x="1024" />
      
      <glyph glyph-name="icon_fengxian-loudong-xitong" unicode="&#59115;" d="M768 435.36a306.4 306.4 0 0 0 221.92-96 480 480 0 1 1-433.76-433.12A306.88 306.88 0 0 0 768 435.36z m-499.84-141.6a60.16 60.16 0 1 0-30.72 80 60.16 60.16 0 0 0 30.72-80z m154.88 477.12a146.72 146.72 0 1 0 35.04-204.32 146.72 146.72 0 0 0-35.04 204.32zM688 185.44c-28.16 0-46.08-24.32-46.08-64.96s17.92-66.4 46.08-66.4 46.08 25.92 46.08 66.4-17.76 64.96-46.08 64.96zM768 384a256 256 0 1 1 256-256 256 256 0 0 1-256 256z m-80-362.72c-50.24 0-84.8 37.6-84.8 99.2s34.56 97.44 84.8 97.44 84.8-36 84.8-97.44-34.4-99.2-84.8-99.2z m178.4 0a101.28 101.28 0 0 0-69.12 27.68l21.76 26.08a75.04 75.04 0 0 1 48-20.96c19.68 0 30.24 8.48 30.24 21.76s-11.52 18.4-28.48 25.6L843.84 112a55.04 55.04 0 0 0-38.4 51.04c0 31.04 27.04 54.72 65.44 54.72a84 84 0 0 0 59.52-24.32L912 169.76a60.48 60.48 0 0 1-40.32 16c-16 0-27.36-7.36-27.36-20s13.6-18.4 29.76-24.8l24.8-10.56a52.32 52.32 0 0 0 38.24-51.36c-0.8-31.04-26.72-57.76-70.56-57.76z"  horiz-adv-x="1024" />
      
      <glyph glyph-name="icon_fengxian-loudong-Web" unicode="&#59116;" d="M997.28 272H442.72a10.72 10.72 0 0 1-10.72-10.88v-362.24a10.72 10.72 0 0 1 10.72-10.88h554.56a10.72 10.72 0 0 1 10.72 10.88V261.12a10.72 10.72 0 0 1-10.72 10.88z m-400-234.24h-30.24L556.96 80c-2.08 9.28-3.68 18.24-5.6 28.48h-0.8c-1.92-10.24-3.36-19.36-5.44-28.48l-9.92-42.56h-28.96l-25.12 97.76h25.44l10.56-48c1.92-9.44 3.04-18.88 4.8-28.48 1.92 9.6 3.68 19.2 6.08 28.48l11.68 48h22.56l12.16-48c2.24-9.44 4-18.88 6.08-28.48 1.76 9.6 3.04 19.04 4.96 28.48l10.56 48h23.52z m149.28 0h-30.24L706.08 80c-2.08 9.28-3.52 18.24-5.44 28.48h-0.96c-1.92-10.24-3.2-19.36-5.28-28.48l-9.92-42.56H656l-25.6 98.08H656l10.56-48c1.76-9.44 3.04-18.88 4.8-28.48 1.92 9.6 3.68 19.2 6.08 28.48l11.52 48h22.72l12.16-48c2.24-9.44 4-18.88 6.08-28.48h0.8c1.76 9.6 2.88 19.04 4.8 28.48l10.56 48h23.52z m149.28 0H865.6L855.36 80c-2.08 9.28-3.68 18.24-5.6 28.48-1.92-10.24-3.36-19.36-5.44-28.48l-9.76-42.56h-29.92l-25.12 97.76h25.44l10.56-48c1.92-9.44 3.2-18.88 4.96-28.48 1.92 9.6 3.68 19.2 6.08 28.48l11.52 48h22.72l12-48c2.4-9.44 4-18.88 6.08-28.48H880c1.76 9.6 2.88 19.04 4.8 28.48l10.56 48h23.52zM912 208a10.88 10.88 0 0 0 0 21.6 10.88 10.88 0 0 0 0-21.6z m25.44-172.32a16 16 0 1 0 16 16 16 16 0 0 0-15.52-16.32zM948.32 208a10.88 10.88 0 0 0 0 21.6 10.72 10.72 0 0 0 10.72-10.88 10.56 10.56 0 0 0-10.72-10.72zM380.8 261.12a62.08 62.08 0 0 0 61.92 62.08h545.44a480 480 0 1 1-608-400.96z m42.24 509.76a146.72 146.72 0 1 0 35.04-204.32 146.72 146.72 0 0 0-35.04 204.32zM188.8 263.04a60.16 60.16 0 1 0 80 30.72 60.16 60.16 0 0 0-80-30.72z"  horiz-adv-x="1024" />
      
      <glyph glyph-name="zc-task" unicode="&#59105;" d="M864 832a96 96 0 0 0 96-96v-704a96 96 0 0 0-96-96H160a96 96 0 0 0-96 96V736a96 96 0 0 0 96 96zM320 359.52a97.76 97.76 0 1 1 97.76-97.76A97.76 97.76 0 0 1 320 359.52z m0-46.56a51.2 51.2 0 1 0-51.2-51.2 51.2 51.2 0 0 0 51.2 51.2z m493.44-20.96H544a30.24 30.24 0 1 1 0-60.48h269.44a30.24 30.24 0 0 1 0 60.48zM434.4 618.56a22.88 22.88 0 0 1-32 0.8l-96-91.04-48 48.8A23.2 23.2 0 1 1 224 544l60.16-60.16 3.36-2.72 1.28-1.44a22.88 22.88 0 0 1 32-0.96l112 106.08a23.52 23.52 0 0 1 1.12 33.12z m379.04-40.16H544a30.4 30.4 0 0 1 0-60.64h269.44a30.4 30.4 0 0 1 0 60.64z"  horiz-adv-x="1024" />
      
      <glyph glyph-name="zc-webserver" unicode="&#59106;" d="M336 232.48000000000002h144a307.84 307.84 0 0 0 219.2 194.56 942.4 942.4 0 0 1-11.2 103.84H335.04A962.08 962.08 0 0 1 336 232.48000000000002zM756.8 434.56h11.2a305.6 305.6 0 0 0 221.76-95.2 483.52 483.52 0 0 1-20.48 190.88H747.2c4.8-31.36 8-63.36 9.6-95.68zM556-96h2.08zM289.6 174.24H80A480.96 480.96 0 0 1 467.68-96c-79.84 27.84-145.12 130.56-178.08 270.24zM265.92 384a952.8 952.8 0 0 0 10.88 146.24H54.72a483.84 483.84 0 0 1 1.76-298.4h221.44a969.12 969.12 0 0 0-12 152.16zM464 174.24h-116.32C382.24 30.879999999999995 448-64 512-64a69.12 69.12 0 0 1 15.04 1.92A305.12 305.12 0 0 0 460.8 128a316.32 316.32 0 0 0 3.2 46.24zM346.4 589.12h330.88C643.36 736 576 833.12 512 833.12S380.32 736 346.4 589.12zM464 864A481.44 481.44 0 0 1 77.6 589.12H288C320 729.28 384 833.28 464 864zM736 589.12h210.08A481.6 481.6 0 0 1 560 864c80-30.72 144-134.72 176-274.88zM768 384a256 256 0 1 1 256-256 256 256 0 0 1-256 256z m84-385.92H608V180h244zM928 60h-30.08v168H684v29.92H928z"  horiz-adv-x="1024" />
      
      <glyph glyph-name="zc-jarpackage" unicode="&#59107;" d="M496 188.64c0-22.08 16.96-27.52 36.16-27.52a44 44 0 0 1 48 49.6v21.92c-10.08-8.64-30.88-9.12-49.12-12.48S496 210.24 496 188.64zM839.84 832H182.88L64 652.8V-64h896V652.8zM395.52 221.12c0-38.4-10.4-100.8-99.04-100.8-49.44 0-97.76 27.04-97.76 92v25.76h59.04V224c0-28.64 7.04-49.44 37.92-49.44 34.56 0 34.56 27.84 34.56 48V424.48h65.28zM587.2 128a88.8 88.8 0 0 0-4.16 20.8 98.08 98.08 0 0 0-72.32-26.72c-40.8 0-73.28 20.48-73.28 64 0 48 36.64 60.32 73.28 65.28s69.92 4.16 69.92 28.32-17.44 29.12-38.24 29.12-37.12-9.12-39.2-32h-59.04c3.36 55.36 52.8 72 101.12 72 42.88 0 94.4-9.6 94.4-61.12v-112a108.96 108.96 0 0 1 7.52-48z m236.8 163.36a106.56 106.56 0 0 1-21.28 2.08c-43.2 0-58.24-32-58.24-69.12V128h-59.04V342.55999999999995h56.16v-40a76.16 76.16 0 0 0 68.64 45.76 44 44 0 0 0 12.96-2.08zM135.04 652.8l77.6 119.52h597.44l77.6-119.52z"  horiz-adv-x="1024" />
      
      <glyph glyph-name="zc-npmpackage" unicode="&#59108;" d="M838.56 832H181.44L62.08 652.8V-64h896V652.8z m-136.48-685.44a64 64 0 0 0-64-64h-21.44V295.84000000000003h-85.28v-213.28h-149.28a64 64 0 0 0-64 64v256a64 64 0 0 0 64 64h256a64 64 0 0 0 64-64zM133.76 652.8l77.6 119.52h597.28l77.76-119.52z"  horiz-adv-x="1024" />
      
      <glyph glyph-name="zc-ospackage" unicode="&#59109;" d="M352.8 397.92c-67.52 0-92.96-57.6-92.96-117.6 0-57.12 25.44-114.72 92.96-114.72s93.12 57.6 93.12 114.72c0 60-25.44 117.6-93.12 117.6zM840.48 832H183.52L64 652.8V-64h896V652.8zM352.8 102.24000000000001c-105.92 0-168.32 80-168.32 178.08 0 101.76 62.4 180.96 168.32 180.96s168.48-79.2 168.48-180.96c0-98.88-62.4-178.08-168.48-178.08z m344.16 0c-75.68 0-146.72 37.44-145.76 121.92H624c0-45.6 35.52-64 75.84-64 26.4 0 66.72 7.68 66.72 42.72s-51.36 43.2-101.76 56.64-102.24 33.12-102.24 97.44c0 70.08 66.24 103.68 128 103.68 71.52 0 137.12-31.2 137.12-110.4h-72.64c-2.4 41.28-32 51.84-67.52 51.84-24 0-51.84-10.08-51.84-38.88s16-29.76 102.08-51.84c24.96-6.24 101.76-22.08 101.76-99.84 0-62.24-49.44-109.28-142.56-109.28zM135.68 652.8l77.6 119.52h597.44l77.6-119.52z"  horiz-adv-x="1024" />
      
      <glyph glyph-name="zc-pythonpackage" unicode="&#59110;" d="M839.2 832H182.08L62.72 652.8V-64h896V652.8zM387.52 168.79999999999995h-36.48c-30.72 0-48.96 22.4-56.64 54.08a195.84 195.84 0 0 0 0 108.64 66.72 66.72 0 0 0 66.56 53.92h147.2v13.44h-107.2v40.64c0 30.88 7.68 48 53.28 55.36a343.84 343.84 0 0 0 107.2 0 59.68 59.68 0 0 0 53.28-55.36v-101.76a53.92 53.92 0 0 0-53.28-54.56h-107.2a66.88 66.88 0 0 1-66.72-65.28z m338.72 51.84c-10.56-32-22.4-53.92-53.28-53.92H512v-13.28h107.36V112c0-30.88-26.72-47.04-53.28-54.72a179.04 179.04 0 0 0-107.36 0c-28 8.32-53.28 25.92-53.28 54.72v102.4a54.56 54.56 0 0 0 53.28 54.72h107.68a68.8 68.8 0 0 1 66.56 68V384h40c30.88 0 45.6-23.2 53.28-53.92a184.64 184.64 0 0 0 0-109.44z m-592 432l77.6 119.52h597.44l77.76-119.52zM572.64 86.72000000000003a20.48 20.48 0 1 1-20.32 20.32 20 20 0 0 1 20.32-20.32zM448 466.88a20.32 20.32 0 1 1 20.32-20.32A20.32 20.32 0 0 1 448 466.88z"  horiz-adv-x="1024" />
      
      <glyph glyph-name="zc-webframework" unicode="&#59111;" d="M756.8 434.56h11.2a305.6 305.6 0 0 0 221.76-95.2 483.52 483.52 0 0 1-20.48 190.88H747.2c4.8-31.36 8-63.36 9.6-95.68zM336 232.48000000000002h144a307.84 307.84 0 0 0 219.2 194.56 942.4 942.4 0 0 1-11.2 103.84H335.04A962.08 962.08 0 0 1 336 232.48000000000002zM346.4 589.12h330.88C643.36 736 576 833.12 512 833.12S380.32 736 346.4 589.12zM289.6 174.24H80A480.96 480.96 0 0 1 467.68-96c-79.84 27.84-145.12 130.56-178.08 270.24zM265.92 384a952.8 952.8 0 0 0 10.88 146.24H54.72a483.84 483.84 0 0 1 1.76-298.4h221.44a969.12 969.12 0 0 0-12 152.16zM736 589.12h210.08A481.6 481.6 0 0 1 560 864c80-30.72 144-134.72 176-274.88zM464 174.24h-116.32C382.24 30.879999999999995 448-64 512-64a69.12 69.12 0 0 1 15.04 1.92A305.12 305.12 0 0 0 460.8 128a316.32 316.32 0 0 0 3.2 46.24zM556-96h2.08zM464 864A481.44 481.44 0 0 1 77.6 589.12H288C320 729.28 384 833.28 464 864zM816 204.96000000000004a56.48 56.48 0 0 0-96 0 96 96 0 0 1-48-83.36 112 112 0 0 1 0.96-12.8 57.28 57.28 0 0 0 49.28-56.32 51.52 51.52 0 0 0-1.92-14.08 94.4 94.4 0 0 1 96 0 51.52 51.52 0 0 0-1.92 14.08A57.28 57.28 0 0 0 864 108.79999999999995a112 112 0 0 1 0.96 12.8A96 96 0 0 1 816 204.96000000000004zM768 384a256 256 0 1 1 256-256 256 256 0 0 1-256 256z m103.04-388.48a56.64 56.64 0 0 0-40.32 16.96 124.48 124.48 0 0 0-125.44 0 56.64 56.64 0 0 0-40.32-16.96 56.8 56.8 0 0 0-21.76 109.44 114.72 114.72 0 0 0-1.28 16 126.56 126.56 0 0 0 69.28 112 5.44 5.44 0 0 0 0 1.6 56.96 56.96 0 0 0 113.92 0v-2.24a125.6 125.6 0 0 0 69.28-112 114.72 114.72 0 0 0-1.28-16 56.8 56.8 0 0 0-21.76-109.44z"  horiz-adv-x="1024" />
      
      <glyph glyph-name="zc-webside" unicode="&#59112;" d="M997.28 272H442.72a10.72 10.72 0 0 1-10.72-10.88v-362.24a10.72 10.72 0 0 1 10.72-10.88h554.56a10.72 10.72 0 0 1 10.72 10.88V261.12a10.72 10.72 0 0 1-10.72 10.88z m-400-234.24h-30.24L556.96 80c-2.08 9.28-3.68 18.24-5.6 28.48h-0.8c-1.92-10.24-3.36-19.36-5.44-28.48l-9.92-42.56h-28.96l-25.12 97.76h25.44l10.56-48c1.92-9.44 3.04-18.88 4.8-28.48 1.92 9.6 3.68 19.2 6.08 28.48l11.68 48h22.56l12.16-48c2.24-9.44 4-18.88 6.08-28.48 1.76 9.6 3.04 19.04 4.96 28.48l10.56 48h23.52z m149.28 0h-30.24L706.08 80c-2.08 9.28-3.52 18.24-5.44 28.48h-0.96c-1.92-10.24-3.2-19.36-5.28-28.48l-9.92-42.56H656l-25.6 98.08H656l10.56-48c1.76-9.44 3.04-18.88 4.8-28.48 1.92 9.6 3.68 19.2 6.08 28.48l11.52 48h22.72l12.16-48c2.24-9.44 4-18.88 6.08-28.48h0.8c1.76 9.6 2.88 19.04 4.8 28.48l10.56 48h23.52z m149.28 0H865.6L855.36 80c-2.08 9.28-3.68 18.24-5.6 28.48-1.92-10.24-3.36-19.36-5.44-28.48l-9.76-42.56h-29.92l-25.12 97.76h25.44l10.56-48c1.92-9.44 3.2-18.88 4.96-28.48 1.92 9.6 3.68 19.2 6.08 28.48l11.52 48h22.72l12-48c2.4-9.44 4-18.88 6.08-28.48H880c1.76 9.6 2.88 19.04 4.8 28.48l10.56 48h23.52zM912 208a10.88 10.88 0 0 0 0 21.6 10.88 10.88 0 0 0 0-21.6z m25.44-172.32a16 16 0 1 0 16 16 16 16 0 0 0-15.52-16.32zM948.32 208a10.88 10.88 0 0 0 0 21.6 10.72 10.72 0 0 0 10.72-10.88 10.56 10.56 0 0 0-10.72-10.72zM380.8 72.48000000000002v101.76h-33.12a655.04 655.04 0 0 1 33.12-101.76zM697.6 323.20000000000005c1.44 20.48 2.24 40.96 2.24 61.44a953.12 953.12 0 0 1-11.2 146.24h-353.6A962.08 962.08 0 0 1 336 232.48000000000002h44.8v28.64a62.08 62.08 0 0 0 61.92 62.08zM736 589.12h210.08A481.6 481.6 0 0 1 560 864c80-30.72 144-134.72 176-274.88zM758.24 384c0-20.48 0-40.96-2.08-61.44h231.68a483.84 483.84 0 0 1-18.56 208H747.2a973.44 973.44 0 0 0 11.04-146.56zM346.4 589.12h330.88C643.36 736 576 833.12 512 833.12S380.32 736 346.4 589.12zM265.92 384a952.8 952.8 0 0 0 10.88 146.24H54.72a483.84 483.84 0 0 1 1.76-298.4h221.44a969.12 969.12 0 0 0-12 152.16zM80 174.24A481.6 481.6 0 0 1 380.8-80v49.6a518.4 518.4 0 0 0-91.2 204.16zM464 864A481.44 481.44 0 0 1 77.6 589.12H288C320 729.28 384 833.28 464 864z"  horiz-adv-x="1024" />
      
      <glyph glyph-name="zc-webapplication" unicode="&#59113;" d="M336 232.48000000000002h144a307.84 307.84 0 0 0 219.2 194.56 942.4 942.4 0 0 1-11.2 103.84H335.04A962.08 962.08 0 0 1 336 232.48000000000002zM756.8 434.56h11.2a305.6 305.6 0 0 0 221.76-95.2 483.52 483.52 0 0 1-20.48 190.88H747.2c4.8-31.36 8-63.36 9.6-95.68zM346.4 589.12h330.88C643.36 736 576 833.12 512 833.12S380.32 736 346.4 589.12zM289.6 174.24H80A480.96 480.96 0 0 1 467.68-96c-79.84 27.84-145.12 130.56-178.08 270.24zM464 174.24h-116.32C382.24 30.879999999999995 448-64 512-64a69.12 69.12 0 0 1 15.04 1.92A305.12 305.12 0 0 0 460.8 128a316.32 316.32 0 0 0 3.2 46.24zM556-96h2.08zM736 589.12h210.08A481.6 481.6 0 0 1 560 864c80-30.72 144-134.72 176-274.88zM265.92 384a952.8 952.8 0 0 0 10.88 146.24H54.72a483.84 483.84 0 0 1 1.76-298.4h221.44a969.12 969.12 0 0 0-12 152.16zM464 864A481.44 481.44 0 0 1 77.6 589.12H288C320 729.28 384 833.28 464 864zM768 384a256 256 0 1 1 256-256 256 256 0 0 1-256 256z m-10.24-333.12a66.88 66.88 0 1 0-66.88 66.88h66.88z m0 87.36h-66.88a66.88 66.88 0 0 0 0 133.76 66.88 66.88 0 0 0 66.88-66.88zM845.12-16a66.88 66.88 0 0 0-66.88 66.88v66.88h66.88a66.88 66.88 0 0 0 0-133.76z m0 154.24h-66.88v66.88a66.88 66.88 0 1 0 66.88-66.88z"  horiz-adv-x="1024" />
      
      <glyph glyph-name="reportemail" unicode="&#59103;" d="M864 350.55999999999995V832H128v-864h153.28V350.55999999999995H864zM272 695.36h448a25.6 25.6 0 1 0 0-51.2H272a25.6 25.6 0 0 0 0 51.2z m0-198.08a25.6 25.6 0 1 0 0 51.2h256a25.6 25.6 0 0 0 0-51.2zM332.48 299.36v-389.28h640V299.36z m318.88-165.44l-270.88 123.84h544z"  horiz-adv-x="1024" />
      
      <glyph glyph-name="reportword" unicode="&#59104;" d="M864 377.28V832H128v-864h198.24V377.28H864zM272 695.36h448a25.6 25.6 0 1 0 0-51.2H272a25.6 25.6 0 0 0 0 51.2z m0-198.08a25.6 25.6 0 1 0 0 51.2h256a25.6 25.6 0 0 0 0-51.2zM377.44 326.08000000000004v-416h576v416z m376.64-333.92H704l-38.72 155.52-38.08-155.52H576l-60.64 228.48h50.24l36.16-155.52 39.68 155.52h47.04l39.04-157.44 37.44 157.44H816z"  horiz-adv-x="1024" />
      
      <glyph glyph-name="securityadmin" unicode="&#59098;" d="M587.2 129.60000000000002v100.8c0 33.6 22.4 62.4 52.8 72 4.8 14.4 12.8 28.8 22.4 43.2 19.2 28.8 30.4 38.4 60.8 78.4 30.4 40 40 97.6 40 126.4 0 28.8-19.2 19.2-19.2 38.4s-3.2 100.8-40 176S590.4 864 536 864s-30.4-20.8-54.4-22.4c-22.4 0-70.4-6.4-89.6-16-97.6-52.8-112-131.2-110.4-235.2 0-19.2-19.2-9.6-19.2-38.4 0-28.8 9.6-88 40-126.4 30.4-40 40-49.6 60.8-78.4 17.6-25.6 28.8-56 30.4-88 0-97.6-168-105.6-265.6-166.4-38.4-22.4-67.2-57.6-81.6-99.2-14.4-36.8 3.2-73.6 36.8-86.4 6.4-1.6 14.4-3.2 20.8-3.2h576c-57.6 59.2-92.8 139.2-92.8 225.6zM1001.6 254.39999999999998h-1.6l-163.2 32h-9.6l-168-33.6c-11.2-1.6-19.2-12.8-19.2-24V128c0-116.8 73.6-219.2 185.6-256h6.4c3.2 0 4.8 0 8 1.6 110.4 36.8 185.6 139.2 185.6 256v96c-1.6 12.8-11.2 25.6-24 28.8z m-62.4-120l-129.6-129.6c-3.2-3.2-6.4-4.8-11.2-4.8-4.8 0-8 1.6-11.2 4.8l-62.4 62.4c-6.4 6.4-6.4 16 0 22.4 6.4 6.4 16 6.4 22.4 0l51.2-51.2 118.4 118.4c6.4 6.4 16 6.4 22.4 0s6.4-16 0-22.4z"  horiz-adv-x="1025" />
      
      <glyph glyph-name="vipadmin" unicode="&#59099;" d="M816 80m-208 0a208 208 0 1 1 416 0 208 208 0 1 1-416 0ZM556.8 80c0 72 28.8 136 75.2 182.4 1.6 25.6 11.2 54.4 30.4 81.6 19.2 28.8 30.4 38.4 60.8 78.4 30.4 40 40 97.6 40 126.4 0 28.8-19.2 19.2-19.2 38.4s-3.2 100.8-40 176C667.2 840 590.4 864 536 864s-30.4-20.8-54.4-22.4c-22.4 0-70.4-6.4-89.6-16-97.6-52.8-112-131.2-110.4-235.2 0-19.2-19.2-9.6-19.2-38.4 0-28.8 9.6-88 40-126.4 30.4-40 40-49.6 60.8-78.4 17.6-25.6 28.8-56 30.4-88 0-97.6-168-105.6-265.6-166.4-38.4-22.4-67.2-57.6-81.6-99.2-14.4-36.8 3.2-73.6 36.8-86.4 6.4-1.6 14.4-3.2 20.8-3.2h521.6c-41.6 46.4-68.8 108.8-68.8 176zM864 160l-46.4-84.8-48 84.8h-75.2v-19.2h17.6l112-204.8 112 224H864z"  horiz-adv-x="1024" />
      
      <glyph glyph-name="oamadmin" unicode="&#59100;" d="M588.8 64c0 57.6 20.8 112 54.4 153.6-6.4 11.2-11.2 24-11.2 40 0 27.2 9.6 59.2 30.4 88 19.2 28.8 30.4 38.4 60.8 78.4 30.4 40 40 97.6 40 126.4 0 28.8-19.2 19.2-19.2 38.4s-3.2 100.8-40 176S590.4 864 536 864s-30.4-20.8-54.4-22.4c-22.4 0-70.4-6.4-89.6-16-97.6-52.8-112-131.2-110.4-235.2 0-19.2-19.2-9.6-19.2-38.4 0-28.8 9.6-88 40-126.4 30.4-40 40-49.6 60.8-78.4 17.6-25.6 28.8-56 30.4-88 0-97.6-168-105.6-265.6-166.4-38.4-22.4-67.2-57.6-81.6-99.2-14.4-36.8 3.2-73.6 36.8-86.4 6.4-1.6 14.4-3.2 20.8-3.2h545.6c-38.4 43.2-60.8 99.2-60.8 160zM832 256c-105.6 0-192-86.4-192-192s86.4-192 192-192 192 86.4 192 192-86.4 192-192 192z m110.4-275.2l-25.6-25.6c-3.2-3.2-4.8-3.2-6.4-3.2-1.6 0-3.2 0-4.8 1.6l-88 88c-11.2-4.8-22.4-6.4-35.2-4.8-32 3.2-59.2 30.4-62.4 62.4-1.6 14.4 1.6 27.2 8 40 1.6 1.6 3.2 3.2 4.8 3.2 1.6 0 4.8 0 6.4-1.6l35.2-35.2 16 16-35.2 35.2c-1.6 1.6-1.6 3.2-1.6 6.4 0 1.6 1.6 3.2 3.2 4.8 12.8 6.4 25.6 9.6 40 8 32-3.2 59.2-30.4 62.4-62.4 1.6-12.8 0-24-4.8-35.2l88-88c1.6-1.6 1.6-3.2 1.6-4.8 0-1.6 0-4.8-1.6-4.8z"  horiz-adv-x="1024" />
      
      <glyph glyph-name="auditadmin" unicode="&#59101;" d="M588.8 64c0 57.6 20.8 112 54.4 153.6-6.4 11.2-11.2 24-11.2 40 0 27.2 9.6 59.2 30.4 88 19.2 28.8 30.4 38.4 60.8 78.4 30.4 40 40 97.6 40 126.4 0 28.8-19.2 19.2-19.2 38.4s-3.2 100.8-40 176S590.4 864 536 864s-30.4-20.8-54.4-22.4c-22.4 0-70.4-6.4-89.6-16-97.6-52.8-112-131.2-110.4-235.2 0-19.2-19.2-9.6-19.2-38.4 0-28.8 9.6-88 40-126.4 30.4-40 40-49.6 60.8-78.4 17.6-25.6 28.8-56 30.4-88 0-97.6-168-105.6-265.6-166.4-38.4-22.4-67.2-57.6-81.6-99.2-14.4-36.8 3.2-73.6 36.8-86.4 6.4-1.6 14.4-3.2 20.8-3.2h545.6c-38.4 43.2-60.8 99.2-60.8 160zM832 256c-105.6 0-192-86.4-192-192s86.4-192 192-192 192 86.4 192 192-86.4 192-192 192z m105.6-296c0-4.8-3.2-8-8-8H734.4c-4.8 0-8 3.2-8 8V0c0 12.8 11.2 24 24 24h51.2c-1.6 9.6-6.4 49.6-12.8 57.6-9.6 11.2-14.4 24-14.4 36.8 0 16 6.4 30.4 17.6 41.6 11.2 11.2 25.6 16 41.6 16 28.8-1.6 54.4-25.6 54.4-56 0-14.4-4.8-28.8-14.4-40-6.4-8-11.2-46.4-12.8-56H912c12.8 0 24-11.2 24-24v-40z"  horiz-adv-x="1024" />
      
      <glyph glyph-name="osadmin" unicode="&#59102;" d="M643.2 217.60000000000002c-6.4 11.2-11.2 24-11.2 40 0 27.2 9.6 59.2 30.4 88 19.2 28.8 30.4 38.4 60.8 78.4 30.4 40 40 97.6 40 126.4 0 28.8-19.2 19.2-19.2 38.4s-3.2 100.8-40 176S590.4 864 536 864s-30.4-20.8-54.4-22.4c-22.4 0-70.4-6.4-89.6-16-97.6-52.8-112-131.2-110.4-235.2 0-19.2-19.2-9.6-19.2-38.4 0-28.8 9.6-88 40-126.4 30.4-40 40-49.6 60.8-78.4 17.6-25.6 28.8-56 30.4-88 0-97.6-168-105.6-265.6-166.4-38.4-22.4-67.2-57.6-81.6-99.2-14.4-36.8 3.2-73.6 36.8-86.4 6.4-1.6 14.4-3.2 20.8-3.2h545.6c-36.8 43.2-60.8 99.2-60.8 160 0 57.6 20.8 112 54.4 153.6zM832 256c-105.6 0-192-86.4-192-192s86.4-192 192-192 192 86.4 192 192-86.4 192-192 192z m0-228.8c-3.2-9.6-8-17.6-14.4-24-6.4-6.4-14.4-12.8-22.4-16-9.6-3.2-19.2-6.4-30.4-6.4s-20.8 1.6-30.4 6.4c-9.6 3.2-16 9.6-22.4 16-6.4 6.4-11.2 14.4-14.4 24s-4.8 19.2-4.8 30.4 1.6 20.8 4.8 30.4c3.2 9.6 8 17.6 14.4 25.6 6.4 6.4 14.4 12.8 22.4 16 9.6 4.8 19.2 6.4 30.4 6.4s22.4-1.6 30.4-6.4c9.6-4.8 16-9.6 22.4-16 6.4-6.4 11.2-16 14.4-25.6 3.2-9.6 4.8-19.2 4.8-30.4 0-9.6-1.6-20.8-4.8-30.4z m128-32c-4.8-4.8-11.2-8-19.2-9.6-8-1.6-16-3.2-27.2-3.2-8 0-16 1.6-24 3.2s-14.4 4.8-20.8 9.6-11.2 9.6-14.4 16c-3.2 6.4-4.8 14.4-4.8 24h32c0-4.8 1.6-9.6 3.2-12.8 1.6-3.2 4.8-6.4 6.4-8 3.2-1.6 6.4-3.2 11.2-4.8 4.8-1.6 8-1.6 12.8-1.6h9.6c3.2 0 6.4 1.6 9.6 3.2 3.2 1.6 4.8 3.2 8 6.4 1.6 3.2 3.2 4.8 3.2 9.6s-1.6 8-3.2 9.6c-3.2 3.2-6.4 4.8-9.6 6.4s-9.6 3.2-14.4 4.8-11.2 3.2-16 4.8c-4.8 1.6-11.2 3.2-16 4.8-4.8 1.6-9.6 4.8-14.4 8-4.8 3.2-8 6.4-9.6 11.2-3.2 4.8-3.2 11.2-3.2 17.6 0 8 1.6 14.4 4.8 19.2s8 9.6 12.8 14.4c4.8 3.2 11.2 6.4 17.6 8 6.4 1.6 12.8 3.2 19.2 3.2 8 0 16-1.6 22.4-3.2s12.8-4.8 19.2-8 9.6-9.6 12.8-14.4c3.2-6.4 4.8-12.8 4.8-22.4h-32c0 4.8-1.6 8-3.2 11.2-1.6 3.2-3.2 4.8-6.4 6.4s-6.4 3.2-9.6 3.2h-12.8c-3.2 0-4.8 0-8-1.6-3.2 0-4.8-1.6-6.4-3.2l-4.8-4.8c-1.6-1.6-1.6-4.8-1.6-8s0-4.8 1.6-6.4c1.6-1.6 3.2-3.2 6.4-4.8 3.2-1.6 8-3.2 12.8-4.8 6.4-1.6 12.8-3.2 22.4-6.4 3.2 0 6.4-1.6 11.2-3.2 4.8-1.6 9.6-3.2 14.4-6.4 4.8-3.2 9.6-8 12.8-12.8 3.2-4.8 4.8-12.8 4.8-20.8 0-6.4-1.6-12.8-3.2-19.2-1.6-6.4-6.4-11.2-11.2-14.4zM795.2 92.79999999999995c-3.2 4.8-8 8-12.8 11.2s-11.2 4.8-19.2 4.8-12.8-1.6-19.2-4.8c-4.8-3.2-9.6-6.4-12.8-11.2-3.2-4.8-4.8-9.6-6.4-16-1.6-6.4-1.6-12.8-1.6-19.2 0-6.4 0-12.8 1.6-17.6 1.6-6.4 3.2-11.2 6.4-16 3.2-4.8 8-8 12.8-11.2 4.8-3.2 11.2-4.8 19.2-4.8s12.8 1.6 19.2 4.8c4.8 3.2 9.6 6.4 12.8 11.2 3.2 4.8 4.8 9.6 6.4 16 1.6 6.4 1.6 11.2 1.6 17.6 0 6.4 0 12.8-1.6 19.2 0 6.4-3.2 11.2-6.4 16z"  horiz-adv-x="1024" />
      
      <glyph glyph-name="icon_weihu-yewuzu" unicode="&#59097;" d="M633.12 289.44a26.72 26.72 0 0 1-26.56-26.56v-266.56a26.72 26.72 0 0 1 26.56-26.72h266.56a26.72 26.72 0 0 1 26.72 26.72V262.88a26.72 26.72 0 0 1-26.72 26.56h-120.64v97.28A26.56 26.56 0 0 1 752 413.44H538.56v65.12h106.72A26.56 26.56 0 0 1 672 505.12V771.68a26.56 26.56 0 0 1-26.72 26.72H378.72A26.56 26.56 0 0 1 352 771.68v-266.56a26.56 26.56 0 0 1 26.56-26.56h106.72v-65.12H272a26.56 26.56 0 0 1-26.56-26.72v-97.28H124.32a26.72 26.72 0 0 1-26.72-26.56v-266.56a26.72 26.72 0 0 1 26.72-26.72h266.56a26.72 26.72 0 0 1 26.56 26.72V262.88a26.72 26.72 0 0 1-26.56 26.56h-92.8v60a10.72 10.72 0 0 0 10.72 10.72h406.4a10.72 10.72 0 0 0 10.72-10.72v-60zM862.4 22.88h-192a10.72 10.72 0 0 0-10.56 10.72v192a10.72 10.72 0 0 0 10.56 10.56h192a10.72 10.72 0 0 0 10.72-10.56v-192a10.72 10.72 0 0 0-10.72-10.72z m-508.8 0h-192a10.72 10.72 0 0 0-10.72 10.72v192a10.72 10.72 0 0 0 10.72 10.56h192a10.72 10.72 0 0 0 10.56-10.56v-192a10.72 10.72 0 0 0-10.56-10.72zM608 531.84H416a10.72 10.72 0 0 0-10.72 10.56v192a10.72 10.72 0 0 0 10.72 10.72h192a10.72 10.72 0 0 0 10.72-10.72v-192a10.72 10.72 0 0 0-10.72-10.56z"  horiz-adv-x="1024" />
      
      <glyph glyph-name="S-ACDR" unicode="&#59096;" d="M784-96H240A207.573333 207.573333 0 0 0 32 112V656C32 771.2 124.8 864 240 864h544c115.2 0 208-92.8 208-208v-544c0-115.2-92.8-208-208-208zM240.256 372.86400000000003l-23.466667 121.088h-0.938666l-23.466667-121.088h47.872zM121.984 256l74.624 334.165333h39.893333L311.125333 256H263.253333l-14.08 71.808H183.936L169.856 256H121.984z m364.672 95.274667v-20.650667c0-10.325333-1.962667-20.096-5.888-29.354667a81.152 81.152 0 0 0-16.170667-24.618666 78.08 78.08 0 0 0-24.149333-17.152c-9.258667-4.224-19.2-6.314667-29.824-6.314667-9.088 0-18.304 1.28-27.690667 3.754667a65.493333 65.493333 0 0 0-25.344 13.141333 72.661333 72.661333 0 0 0-18.517333 24.149333c-4.864 9.856-7.296 22.485333-7.296 37.802667V516.010667c0 10.965333 1.877333 21.12 5.632 30.506666a71.808 71.808 0 0 0 40.618667 40.618667 82.773333 82.773333 0 0 0 31.658666 5.845333c22.528 0 40.832-7.338667 54.912-22.058666 6.869333-7.210667 12.288-15.744 16.213334-25.6 3.882667-9.813333 5.845333-20.565333 5.845333-32.128v-18.773334h-47.872v15.957334c0 9.386667-2.645333 17.493333-7.978667 24.405333a25.856 25.856 0 0 1-21.589333 10.325333c-11.904 0-19.797333-3.669333-23.68-11.008-3.925333-7.381333-5.888-16.682667-5.888-27.946666v-170.837334c0-9.685333 2.133333-17.834667 6.357333-24.405333 4.181333-6.570667 11.776-9.856 22.741334-9.856a34.773333 34.773333 0 0 1 10.069333 1.664 30.122667 30.122667 0 0 1 10.112 5.376 28.629333 28.629333 0 0 1 7.04 10.325333 41.813333 41.813333 0 0 1 2.816 16.426667v16.426667h47.872zM525.610667 256V590.1653329999999h70.869333c27.52 0 48.426667-7.509333 62.634667-22.528 14.250667-15.018667 21.376-36.266667 21.376-63.829333v-156.288c0-31.274667-7.594667-54.357333-22.784-69.205333-15.146667-14.890667-36.992-22.314667-65.450667-22.314667h-66.645333z m47.872 289.109333v-244.053333h22.058666c13.44 0 22.997333 3.370667 28.629334 10.112 5.632 6.698667 8.448 17.28 8.448 31.658667V503.808c0 13.141333-2.645333 23.296-7.978667 30.506667-5.333333 7.210667-15.018667 10.794667-29.098667 10.794666h-22.058666z m199.936 0v-104.192h27.221333c8.448 0 15.189333 1.152 20.181333 3.498667a27.434667 27.434667 0 0 1 11.733334 10.112c2.517333 4.394667 4.224 9.813333 5.162666 16.213333 0.938667 6.4 1.408 13.824 1.408 22.272s-0.469333 15.872-1.408 22.314667a44.629333 44.629333 0 0 1-5.632 16.64c-5.973333 8.746667-17.194667 13.141333-33.792 13.141333h-24.874666zM725.546667 256V590.1653329999999h76.970666c56.32 0 84.48-32.682667 84.48-98.090666 0-19.712-3.072-36.437333-9.173333-50.218667-6.101333-13.781333-16.810667-24.874667-32.128-33.322667L897.322667 256h-50.688l-44.586667 142.677333h-28.629333V256h-47.872zM121.045333 142.93333299999995h191.018667v-44.8H121.045333zM312.064 142.93333299999995h191.018667v-44.8H312.064zM503.082667 142.93333299999995h199.936v-44.8h-199.936zM703.018667 142.93333299999995h194.304v-44.8h-194.304z"  horiz-adv-x="1024" />
      
      <glyph glyph-name="extend" unicode="&#59095;" d="M953.698526 714.317027h-175.571387a175.571386 175.571386 0 1 1-350.929959 0h-175.571386a70.015741 70.015741 0 0 1-70.015741-70.015741v-175.571386a175.571386 175.571386 0 1 1 0-350.929959v-175.571386a70.015741 70.015741 0 0 1 70.015741-70.228555h245.799941v70.228555a105.342832 105.342832 0 1 0 210.47285 0v-70.228555h245.799941a70.228555 70.228555 0 0 1 70.228554 70.228555V187.60286799999994h-70.228554a105.342832 105.342832 0 1 0 0 210.47285h70.228554V644.301286a70.015741 70.015741 0 0 1-70.228554 70.015741z"  horiz-adv-x="1030" />
      
      <glyph glyph-name="Protection" unicode="&#59094;" d="M947.908106 768.758254L517.181701 895.300395a19.696721 19.696721 0 0 1-10.405815 0L75.492026 768.758254a18.581812 18.581812 0 0 1-13.378905-18.581812V495.791434a657.238696 657.238696 0 0 1 449.679854-623.791434 657.052877 657.052877 0 0 1 449.494036 623.605616V750.919714a18.581812 18.581812 0 0 1-13.378905 17.83854z m-207.001387-260.14537L506.40425 221.70970499999999 343.441757 356.42784300000005a18.581812 18.581812 0 1 0 23.78472 28.61599l134.160684-111.490873L712.476547 531.840149a18.581812 18.581812 0 0 0 28.801808-23.598901z"  horiz-adv-x="1024" />
      
      <glyph glyph-name="installpackage" unicode="&#59083;" d="M887.542058 896H136.457942L0 691.124609v-819.124609h1024V691.124609zM518.87944 35.78722600000003L204.875391 308.89158799999996 252.56028 349.41432l226.173385-196.393889V554.666667H546.58568V142.08871699999997l231.639242 207.325603 47.873366-40.899687zM81.987852 691.124609l88.773054 136.64642h682.666666L942.389104 691.124609z"  horiz-adv-x="1024" />
      
      <glyph glyph-name="vulnerability" unicode="&#59084;" d="M808.381089 802.073816a511.97469 511.97469 0 1 1-246.556232-927.713536 119.332447 119.332447 0 0 0 172.069689 157.634313 117.985145 117.985145 0 0 0 49.465224-82.955298A512.359633 512.359633 0 0 1 808.381089 802.073816zM251.94544 287.596994a64.285544 64.285544 0 1 0-32.720187 84.687543 64.285544 64.285544 0 0 0 32.720187-84.687543zM673.650908 616.146166a156.479482 156.479482 0 1 0-38.494338 218.070422 156.479482 156.479482 0 0 0 38.494338-218.070422z"  horiz-adv-x="1024" />
      
      <glyph glyph-name="user" unicode="&#59086;" d="M512.017199 332.67103299999997A281.664484 281.664484 0 1 1 230.352715 614.335516a281.664484 281.664484 0 0 1 281.664484-281.664483z m127.935516 204.112174s-6.362385-101.626196-131.202687-101.626196-124.840302 101.626196-124.840302 101.626196z m-127.935516-255.183207C179.797551 281.6 102.417199 111.53518099999997 102.417199-128h819.028043c0 240.910831-76.004702 409.6-409.428043 409.6z"  horiz-adv-x="1024" />
      
      <glyph glyph-name="sharefolder" unicode="&#59087;" d="M1237.787336 734.292976H636.534342a13.440514 13.440514 0 0 0-9.450361 3.990153L489.108705 876.258405A67.622586 67.622586 0 0 1 441.016865 895.99916H67.412578A67.412578 67.412578 0 0 1 0 828.586582v-889.174004a67.412578 67.412578 0 0 1 67.412578-67.412578h1170.374758a67.412578 67.412578 0 0 1 67.20257 67.412578V666.880398a67.412578 67.412578 0 0 1-67.20257 67.412578z m-483.018472-378.014456a107.944128 107.944128 0 0 0-75.602891 30.87118L588.022487 333.80766100000005a108.154136 108.154136 0 0 0-3.780144-71.822747l48.721863-36.33139a107.524112 107.524112 0 1 0-32.341237-42.001606l-48.301847 35.281349a107.73412 107.73412 0 1 0 8.400321 161.07616L651.024897 433.981491a107.73412 107.73412 0 1 0 133.985124-72.662778 109.414184 109.414184 0 0 0-30.451165-4.200161z"  horiz-adv-x="1304" />
      
      <glyph glyph-name="web" unicode="&#59089;" d="M337.474812 602.673768h354.85486C655.855638 759.648469 583.759766 863.105193 514.731803 863.105193S373.948847 759.648469 337.474812 602.673768zM251.232469 384.681758a1039.680426 1039.680426 0 0 0 11.760319 155.952064h-238.615179a513.363515 513.363515 0 0 1 1.874833-318.380826h237.933422a1016.671105 1016.671105 0 0 0-12.953395 162.428762z m453.198402 155.952064H325.373614a1012.580559 1012.580559 0 0 1 1.193076-318.380826h376.671105A978.833555 978.833555 0 0 1 716.36163 384.681758a996.388815 996.388815 0 0 1-11.930759 155.952064z m-13.635153-380.420773H339.008767c36.985353-153.395473 108.058589-253.784288 175.893475-253.784287s138.908123 100.900133 175.893476 253.784287z m312.756325 62.039947A514.556591 514.556591 0 0 1 1006.108634 540.633822H767.493454a1017.523302 1017.523302 0 0 0 11.930759-155.952064 1038.146471 1038.146471 0 0 0-12.612517-162.428762zM754.880937 602.673768h225.491345A515.920107 515.920107 0 0 1 566.886264 896c84.878828-32.724368 153.565912-143.850866 187.994673-293.326232z m-477.230359-443.142476H51.647915a515.579228 515.579228 0 0 1 415.87217-287.531292c-85.390146 29.656458-155.611185 139.249001-190.721704 288.213049z m477.230359 0C717.895585 11.249001000000021 648.185864-98.34354199999996 562.966157-128a515.579228 515.579228 0 0 1 415.872171 288.213049z m-478.423435 443.142476c34.087883 149.475366 103.286285 260.601864 187.483356 293.326232A515.579228 515.579228 0 0 1 49.432202 602.673768z"  horiz-adv-x="1030" />
      
      <glyph glyph-name="port" unicode="&#59090;" d="M863.72896 896H160.27104A153.535412 153.535412 0 0 1 6.920166 742.649126v-552.690575a153.71995 153.71995 0 0 1 153.350874-153.350874h703.45792a153.904487 153.904487 0 0 1 153.350874 153.350874V742.649126A153.71995 153.71995 0 0 1 863.72896 896z m69.755271-706.041449A69.755271 69.755271 0 0 0 863.72896 120.94143099999997H160.27104a69.570733 69.570733 0 0 0-69.755271 69.570733V742.649126a69.755271 69.755271 0 0 0 69.755271 69.755271h703.45792a69.755271 69.755271 0 0 0 69.755271-69.755271zM196.809515 730.469634m55.730402 0l519.104704 0q55.730402 0 55.730402-55.730402l0-416.501712q0-55.730402-55.730402-55.730402l-519.104704 0q-55.730402 0-55.730402 55.730402l0 416.501712q0 55.730402 55.730402 55.730402ZM753.375383-14.878356000000053H270.809155c-49.087043 0-73.815102-16.239322-73.815102-48.717968v-15.685709c0-32.478645 24.728059-48.717967 73.815102-48.717967h482.566228q73.815102 0 73.815102 48.717967V-63.59632399999998q0 48.717967-73.815102 48.717968z"  horiz-adv-x="1024" />
      
      <glyph glyph-name="kernel" unicode="&#59091;" d="M259.920107 447.744341c23.009321 0 37.667111 21.134487 37.66711 54.199734S282.929427 555.121172 259.920107 555.121172 221.571238 535.17976 221.571238 501.944075s15.339547-54.199734 38.348869-54.199734zM731.525965 268.612517a26.24767 26.24767 0 0 1-25.565912-25.906791h47.723036c0 15.850866-7.158455 25.906791-22.157124 25.906791zM384 268.612517A26.24767 26.24767 0 0 1 357.92277 242.70572600000003h47.723036c0.511318 15.850866-6.647137 25.906791-21.645806 25.906791zM511.318242 896a511.318242 511.318242 0 1 1 511.318243-511.318242A511.318242 511.318242 0 0 1 511.318242 896zM259.920107 581.7097200000001c41.075899 0 69.368842-29.486019 69.368841-79.765645s-28.292943-81.129161-69.368841-81.129162-69.368842 30.849534-69.368842 81.129162 28.292943 79.765646 69.368842 79.765645z m29.656458-409.054594l-39.882823 69.539281-20.45273-26.07723v-43.462051h-31.019973v154.588549h31.019973v-67.153129l51.131824 67.153129h34.087883l-47.382157-60.846871L323.834887 172.31424800000002z m141.464713 49.938749h-72.266311A30.849534 30.849534 0 0 1 392.010652 192.93741699999998a49.59787 49.59787 0 0 1 26.41811 8.181092l10.396804-18.748336a73.459387 73.459387 0 0 0-41.075899-12.953395A56.756325 56.756325 0 0 0 328.948069 231.28628500000002a57.438083 57.438083 0 0 0 54.540613 61.699068c32.383489 0 49.086551-23.691079 49.086551-56.074567a57.097204 57.097204 0 0 0-1.533955-14.65779z m-25.054594 198.221038a82.663116 82.663116 0 0 0-56.585885 22.668443l17.896138 21.304926a60.846871 60.846871 0 0 1 39.371505-17.043941c16.021305 0 24.713715 6.817577 24.713715 17.043941s-9.544607 15.169108-23.3502 20.964048l-20.623169 8.86285a44.655126 44.655126 0 0 0-31.531291 41.587217c0 25.395473 22.327563 44.825566 53.688415 44.825566a69.368842 69.368842 0 0 0 48.575233-19.770972L443.142477 542.338216a49.42743 49.42743 0 0 1-34.087883 12.782956c-13.635153 0-22.498003-5.965379-22.498003-17.043942s11.249001-14.998668 24.372836-20.28229l20.282291-8.521971a42.950732 42.950732 0 0 0 31.190412-42.098535c0.511318-24.713715-20.623169-46.359521-56.415446-46.359521zM528.362184 263.328895a34.087883 34.087883 0 0 1-12.101199 1.874833c-9.203728 0-20.28229-5.965379-26.929427-23.009321v-69.880159h-30.679095v117.262317h25.225034l2.045273-20.793609h0.852197a40.394141 40.394141 0 0 0 33.235685 23.691079 34.087883 34.087883 0 0 0 13.805593-2.386152z m124.079893-91.014647h-30.679094v69.368841c0 17.043941-5.113182 24.372836-17.043942 24.372836a34.087883 34.087883 0 0 1-24.543275-13.123834v-80.617843h-30.679095v117.262317h25.225033l2.045273-15.509987h0.852197a53.858855 53.858855 0 0 0 38.178429 18.407457c25.225033 0 36.133156-17.043941 36.133156-47.041279z m126.806924 49.938748h-72.948069a30.849534 30.849534 0 0 1 32.553928-29.315579 49.59787 49.59787 0 0 1 26.418109 8.181092l10.396805-18.748336a73.459387 73.459387 0 0 0-41.075899-12.953395A56.756325 56.756325 0 0 0 676.474035 231.28628500000002a57.438083 57.438083 0 0 0 54.540612 61.699068c32.383489 0 49.086551-23.691079 49.086551-56.074567a57.097204 57.097204 0 0 0-1.533954-14.65779z m55.904128-52.836218c-21.475366 0-28.9747 13.976032-28.9747 35.792277v134.306258h30.679094v-136.351531c0-6.817577 3.238349-9.203728 6.306259-9.203729a13.805593 13.805593 0 0 1 4.090546 0l3.749667-23.009321a44.143808 44.143808 0 0 0-15.850866-1.533954z"  horiz-adv-x="1024" />
      
      <glyph glyph-name="environmentvariable" unicode="&#59092;" d="M841.20686-128H182.79314A182.79314 182.79314 0 0 0 0 54.793139999999994V713.20686A182.79314 182.79314 0 0 0 182.79314 896h658.41372a182.79314 182.79314 0 0 0 182.79314-182.79314v-658.41372a182.79314 182.79314 0 0 0-182.79314-182.79314z m-219.530976 804.648232a36.737837 36.737837 0 0 1-35.841792-35.841792v-512.896044a35.841792 35.841792 0 0 1 73.117256 0V639.910396a35.841792 35.841792 0 0 1-37.275464 36.737836z m-292.469024 0a35.841792 35.841792 0 0 1-35.841792-35.841792v-512.896044a35.841792 35.841792 0 1 1 73.117256 0V639.910396a36.737837 36.737837 0 0 1-35.841792 35.841792z m438.882744-146.41372a35.841792 35.841792 0 0 1-35.841792-35.841792v-220.068604a35.841792 35.841792 0 0 1 73.117256 0V493.675884a35.841792 35.841792 0 0 1-37.275464 36.558628z m-292.648232 0a35.841792 35.841792 0 0 1-35.841792-35.841792v-220.068604a35.841792 35.841792 0 1 1 73.117256 0V493.675884a35.841792 35.841792 0 0 1-37.275464 36.558628z"  horiz-adv-x="1024" />
      
      <glyph glyph-name="runningservice" unicode="&#59093;" d="M0-128h961.94511v716.743415H0zM299.334684 896v-118.074047h842.739363v-661.667342h118.262663V896z"  horiz-adv-x="1260" />
      
      <glyph glyph-name="processinjection" unicode="&#59066;" d="M656 515.2H368a131.2 131.2 0 1 1 0-262.4h288a131.2 131.2 0 1 1 0 262.4z m0-160H368a28.8 28.8 0 0 0 0 57.6h288a28.8 28.8 0 0 0 0-57.6zM656 803.2H368a131.2 131.2 0 0 1 0-262.4h288a131.2 131.2 0 1 1 0 262.4z m0-160H368a28.8 28.8 0 0 0 0 57.6h288a28.8 28.8 0 0 0 0-57.6zM54.4 544a153.92 153.92 0 0 1 153.6-153.6v51.2a102.4 102.4 0 0 0 0 204.8v51.2A153.92 153.92 0 0 1 54.4 544zM816 409.6v-51.2a102.4 102.4 0 0 0 0-204.8v-51.2a153.6 153.6 0 0 1 0 307.2zM656 227.20000000000005H368a131.2 131.2 0 1 1 0-262.4h288a131.2 131.2 0 0 1 0 262.4z m0-160H368a28.8 28.8 0 0 0 0 57.6h288a28.8 28.8 0 0 0 0-57.6z"  horiz-adv-x="1024" />
      
      <glyph glyph-name="n-nodeloading" unicode="&#59078;" d="M512 896c-16 0-30.72 0-45.92-2.08-11.52-0.96-23.36-2.4-34.08-4.32a511.2 511.2 0 0 1-268.96-130.88l21.76-23.52A478.4 478.4 0 0 0 512 864V896z"  horiz-adv-x="1024" />
      
      <glyph glyph-name="host" unicode="&#59079;" d="M64 784v-224h896V784z m105.6-115.2a25.6 25.6 0 1 0 25.6 25.6 25.6 25.6 0 0 0-25.6-25.6z m96 0a25.6 25.6 0 1 0 25.6 25.6 25.6 25.6 0 0 0-25.6-25.6zM64 272h896V496H64z m201.6 160a25.6 25.6 0 1 0-25.6-25.6 25.6 25.6 0 0 0 25.6 25.6z m-96 0A25.6 25.6 0 1 0 144 406.4a25.6 25.6 0 0 0 25.6 25.6zM64-16h896V208H64z m201.6 160a25.6 25.6 0 1 0-25.6-25.6 25.6 25.6 0 0 0 25.6 25.6z m-96 0A25.6 25.6 0 1 0 144 118.39999999999998a25.6 25.6 0 0 0 25.6 25.6z"  horiz-adv-x="1024" />
      
      <glyph glyph-name="n-nodeabnormal" unicode="&#59080;" d="M512 864A480 480 0 1 0 32 384 480 480 0 0 0 512 864m0 32a512 512 0 1 1 512-512A512 512 0 0 1 512 896z"  horiz-adv-x="1024" />
      
      <glyph glyph-name="n-nodeprocess" unicode="&#59081;" d="M512 384m-448 0a448 448 0 1 1 896 0 448 448 0 1 1-896 0Z"  horiz-adv-x="1024" />
      
      <glyph glyph-name="n-nodeprotect" unicode="&#59082;" d="M512 864l421.44-91.04v-328.8C933.44 179.03999999999996 763.68-12.159999999999968 512-96 260.32-12.159999999999968 90.56 179.03999999999996 90.56 444.32V772.96z"  horiz-adv-x="1024" />
      
      <glyph glyph-name="n-datainterception" unicode="&#59056;" d="M526.4-80l-102.4 179.2-206.4-41.6 36.8 128H54.4l190.4 190.4-89.6 201.6 206.4-41.6 62.4 313.6 188.8-294.4 312 134.4L768 374.4l204.8-204.8H750.4l22.4-129.6-179.2 80L526.4-80z m-49.6 294.4l25.6-44.8 30.4 89.6 108.8-48-11.2 60.8h97.6l-83.2 83.2 65.6 131.2-136-57.6-99.2 153.6-32-166.4-113.6 22.4L368 352l-65.6-64h88l-27.2-96 113.6 22.4z"  horiz-adv-x="1024" />
      
      <glyph glyph-name="n-persistence" unicode="&#59057;" d="M512 784C308.8 784 140.8 632 115.2 435.2h51.2v-102.4H115.2C140.8 136 308.8-16 512-16c220.8 0 400 179.2 400 400S732.8 784 512 784zM310.4 332.79999999999995H208v102.4h102.4v-102.4z m212.8-72v72H352v102.4h171.2v72L736 384l-212.8-123.2z"  horiz-adv-x="1024" />
      
      <glyph glyph-name="n-permissionpromotion" unicode="&#59058;" d="M768 747.2L320 577.6l212.8-107.2S347.2 56 64 43.200000000000045c0 0 417.6-156.8 683.2 340.8L960 278.4 768 747.2z"  horiz-adv-x="1024" />
      
      <glyph glyph-name="n-credentialAccess" unicode="&#59060;" d="M384 640c0-35.2-28.8-64-64-64s-64 28.8-64 64H96v-512h160c0 35.2 28.8 64 64 64s64-28.8 64-64h544V640H384z m235.2-379.2v72H448v102.4h171.2v72L832 384l-212.8-123.2z"  horiz-adv-x="1024" />
      
      <glyph glyph-name="process" unicode="&#59061;" d="M656 515.2H368c-72 0-131.2-59.2-131.2-131.2s59.2-131.2 131.2-131.2h288c72 0 131.2 59.2 131.2 131.2s-59.2 131.2-131.2 131.2z m0-160H368c-16 0-28.8 12.8-28.8 28.8s12.8 28.8 28.8 28.8h288c16 0 28.8-12.8 28.8-28.8s-12.8-28.8-28.8-28.8zM64 409.6h128v-51.2H64zM832 409.6h128v-51.2h-128z"  horiz-adv-x="1024" />
      
      <glyph glyph-name="limitsauthority" unicode="&#59062;" d="M841.6 641.6l-72 72-121.6-121.6-121.6 121.6-72-72 121.6-121.6-81.6-81.6c-36.8 22.4-76.8 33.6-118.4 33.6-57.6 0-115.2-22.4-158.4-65.6-88-88-88-228.8 0-316.8 43.2-43.2 100.8-65.6 158.4-65.6 57.6 0 115.2 22.4 158.4 65.6 75.2 75.2 84.8 190.4 32 276.8l275.2 275.2z m-379.2-480c-22.4-22.4-52.8-35.2-86.4-35.2-32 0-62.4 12.8-86.4 35.2-48 48-48 124.8 0 171.2 22.4 22.4 52.8 35.2 86.4 35.2 32 0 62.4-12.8 86.4-35.2 48-46.4 48-123.2 0-171.2z"  horiz-adv-x="1024" />
      
      <glyph glyph-name="n-commandcontrol" unicode="&#59063;" d="M112 672v-576h800V672H112z m196.8-459.2l-72 72L336 384l-99.2 99.2 72 72L480 384 308.8 212.79999999999995z m491.2-8H544v102.4h256v-102.4z"  horiz-adv-x="1024" />
      
      <glyph glyph-name="icon_gongji-IP" unicode="&#59064;" d="M200 630.4c25.6-14.4 54.4-27.2 84.8-36.8-16-59.2-24-123.2-25.6-190.4H64c3.2 92.8 36.8 180.8 92.8 254.4 12.8-9.6 27.2-19.2 43.2-27.2z m292.8-265.6H297.6c1.6-64 9.6-124.8 24-179.2 52.8 14.4 110.4 22.4 169.6 22.4v156.8zM200 137.6c25.6 14.4 54.4 27.2 84.8 36.8-16 59.2-24 123.2-25.6 190.4H64c3.2-92.8 36.8-180.8 92.8-254.4 12.8 9.6 27.2 19.2 43.2 27.2zM531.2 811.2v-212.8c56 1.6 110.4 8 158.4 20.8-8 24-17.6 48-30.4 72-35.2 68.8-80 110.4-128 120z m-38.4-408V560c-59.2 1.6-116.8 9.6-169.6 22.4-14.4-54.4-22.4-115.2-24-179.2h193.6z m209.6 179.2c-52.8-14.4-110.4-22.4-169.6-22.4v-156.8h195.2c-3.2 64-11.2 124.8-25.6 179.2zM492.8-43.2V169.6c-56-1.6-110.4-8-158.4-20.8 8-24 17.6-48 30.4-72 35.2-68.8 80-110.4 128-120z m-129.6 736c-11.2-22.4-22.4-46.4-30.4-72 49.6-12.8 102.4-20.8 158.4-20.8V811.2c-46.4-9.6-91.2-51.2-128-118.4z m460.8-62.4c-25.6-14.4-54.4-27.2-84.8-36.8 16-59.2 24-123.2 25.6-190.4H960c-3.2 92.8-36.8 180.8-92.8 254.4-12.8-9.6-27.2-19.2-43.2-27.2z m-606.4 33.6c24-12.8 49.6-24 78.4-33.6 9.6 28.8 20.8 54.4 33.6 78.4 22.4 43.2 49.6 78.4 80 102.4 4.8 4.8 9.6 8 16 11.2-96-17.6-180.8-67.2-243.2-134.4 11.2-9.6 22.4-16 35.2-24z m190.4-708.8c-30.4 24-56 59.2-80 102.4-12.8 24-24 51.2-33.6 78.4-28.8-9.6-54.4-20.8-78.4-33.6-12.8-6.4-24-14.4-36.8-22.4 62.4-68.8 147.2-118.4 243.2-136-3.2 3.2-8 8-14.4 11.2z m398.4 148.8c-24 12.8-49.6 24-78.4 33.6-9.6-28.8-20.8-54.4-33.6-78.4-22.4-43.2-49.6-78.4-80-102.4-4.8-4.8-9.6-8-16-11.2 94.4 19.2 179.2 67.2 243.2 136-11.2 8-22.4 14.4-35.2 22.4z m-145.6-28.8c11.2 22.4 22.4 46.4 30.4 72-49.6 12.8-102.4 20.8-158.4 20.8v-212.8c46.4 11.2 91.2 52.8 128 120z m-129.6 289.6V208c59.2-1.6 116.8-9.6 169.6-22.4 14.4 54.4 22.4 115.2 24 179.2H531.2z m84.8 448c30.4-24 56-59.2 80-102.4 12.8-24 24-51.2 33.6-78.4 28.8 9.6 54.4 20.8 78.4 33.6 12.8 6.4 24 14.4 36.8 22.4-62.4 68.8-147.2 118.4-243.2 136 3.2-3.2 8-8 14.4-11.2z m251.2-702.4c56 73.6 88 161.6 92.8 254.4H764.8c-1.6-67.2-11.2-131.2-25.6-190.4 30.4-9.6 59.2-22.4 84.8-36.8 16-8 30.4-17.6 43.2-27.2z"  horiz-adv-x="1024" />
      
      <glyph glyph-name="n-memoryoperation" unicode="&#59065;" d="M96 640v-576h86.4v96h51.2v-96h100.8v96h51.2v-96h100.8v96h51.2v-96h100.8v96h51.2v-96h100.8v96h51.2v-96H928V640H96z m395.2-363.2v72H320v102.4h171.2v72L704 400l-212.8-123.2z"  horiz-adv-x="1024" />
      
      <glyph glyph-name="n-processoperation" unicode="&#59067;" d="M894.4 411.2C881.6 504 804.8 576 713.6 576H310.4c-91.2 0-168-72-180.8-164.8H64v-56h65.6C142.4 264 219.2 192 310.4 192h401.6c91.2 0 168 72 180.8 164.8H960v56h-65.6z m-403.2-150.4v72H320v102.4h171.2v72L704 384l-212.8-123.2z"  horiz-adv-x="1024" />
      
      <glyph glyph-name="n-intranetdetection" unicode="&#59068;" d="M556.8 425.6c-12.8 12.8-28.8 19.2-44.8 19.2s-32-6.4-44.8-19.2c-16-16-20.8-36.8-17.6-56 0-4.8 1.6-9.6 3.2-12.8 1.6-4.8 4.8-9.6 8-12.8 1.6-3.2 3.2-4.8 6.4-8 12.8-12.8 28.8-19.2 44.8-19.2s32 6.4 44.8 19.2c3.2 3.2 4.8 4.8 6.4 8 3.2 4.8 6.4 8 8 12.8 3.2 8 4.8 16 4.8 24 0 16-6.4 32-19.2 44.8zM808 676.8L736 604.8c123.2-123.2 123.2-324.8 0-448l72-72c163.2 163.2 163.2 428.8 0 592zM288 604.8l-72 72c-163.2-163.2-163.2-428.8 0-593.6l72 72c-123.2 124.8-123.2 326.4 0 449.6zM672 544l-72-72c48-48 48-128 0-176L672 224c89.6 88 89.6 232 0 320zM352 544c-88-88-88-232 0-321.6l72 72c-48 48-48 128 0 176L352 544z"  horiz-adv-x="1024" />
      
      <glyph glyph-name="processbranch" unicode="&#59069;" d="M768 515.2H480c-72 0-131.2-59.2-131.2-131.2s59.2-131.2 131.2-131.2h288c72 0 131.2 59.2 131.2 131.2s-59.2 131.2-131.2 131.2z m0-160H480c-16 0-28.8 12.8-28.8 28.8s12.8 28.8 28.8 28.8h288c16 0 28.8-12.8 28.8-28.8s-12.8-28.8-28.8-28.8zM480 540.8h288c72 0 131.2 59.2 131.2 131.2S840 803.2 768 803.2H480c-72 0-131.2-59.2-131.2-131.2s59.2-131.2 131.2-131.2z m0 160h288c16 0 28.8-12.8 28.8-28.8s-12.8-28.8-28.8-28.8H480c-16 0-28.8 12.8-28.8 28.8s12.8 28.8 28.8 28.8zM768 227.20000000000005H480c-72 0-131.2-59.2-131.2-131.2s59.2-131.2 131.2-131.2h288c72 0 131.2 59.2 131.2 131.2s-59.2 131.2-131.2 131.2z m0-160H480c-16 0-28.8 12.8-28.8 28.8s12.8 28.8 28.8 28.8h288c16 0 28.8-12.8 28.8-28.8s-12.8-28.8-28.8-28.8zM150.4 70.39999999999998H304v51.2h-102.4V358.4H304v51.2h-102.4V646.4H304v51.2H150.4z"  horiz-adv-x="1024" />
      
      <glyph glyph-name="n-executivecontrol" unicode="&#59070;" d="M481.6 115.20000000000005l56 206.4c112 12.8 198.4 107.2 198.4 222.4 0 123.2-100.8 224-224 224s-224-100.8-224-224c0-96 60.8-179.2 147.2-209.6l-59.2-219.2H160v-102.4h704v102.4H481.6zM390.4 544c0 67.2 54.4 121.6 121.6 121.6s121.6-54.4 121.6-121.6-54.4-121.6-121.6-121.6-121.6 54.4-121.6 121.6z"  horiz-adv-x="1024" />
      
      <glyph glyph-name="n-maintenanceauthority" unicode="&#59071;" d="M96 409.6h160v-51.2H96zM768 401.6h160v-51.2H768zM736 576c0 123.2-100.8 224-224 224s-224-100.8-224-224c0-105.6 73.6-195.2 172.8-217.6V-32h102.4V140.79999999999995H736v102.4H563.2v115.2C662.4 380.79999999999995 736 470.4 736 576z m-345.6 0c0 67.2 54.4 121.6 121.6 121.6s121.6-54.4 121.6-121.6-54.4-121.6-121.6-121.6-121.6 54.4-121.6 121.6z"  horiz-adv-x="1024" />
      
      <glyph glyph-name="n-fileimplement" unicode="&#59072;" d="M441.6 576L416 656H96v-592h832V576H441.6z m49.6-395.2v72H320v102.4h171.2v72L704 304l-212.8-123.2z"  horiz-adv-x="1024" />
      
      <glyph glyph-name="n-detectionbypass" unicode="&#59074;" d="M243.2 352c0 78.4 62.4 140.8 140.8 140.8h299.2v-72L896 544l-212.8 123.2v-72H384c-134.4 0-243.2-108.8-243.2-243.2S249.6 108.79999999999995 384 108.79999999999995h304v102.4H384c-78.4 0-140.8 62.4-140.8 140.8zM510.4 240c62.4 0 112 49.6 112 112s-49.6 112-112 112h-140.8v-1.6c-54.4-6.4-97.6-52.8-97.6-110.4s43.2-104 97.6-110.4v-1.6h140.8z"  horiz-adv-x="1024" />
      
      <glyph glyph-name="n-stealdestroy" unicode="&#59075;" d="M953.6 355.20000000000005l-6.4 105.6c0 12.8 0 24-1.6 33.6-1.6 9.6-3.2 17.6-4.8 27.2-3.2 8-6.4 14.4-11.2 17.6-17.6 12.8-43.2 24-75.2 33.6-32 9.6-67.2 17.6-107.2 24-75.2 11.2-153.6 16-235.2 16s-161.6-6.4-238.4-19.2c-49.6-8-89.6-16-121.6-27.2-32-9.6-52.8-20.8-62.4-33.6-3.2-4.8-6.4-11.2-8-17.6l-4.8-24c-1.6-9.6-1.6-17.6-1.6-27.2l-4.8-112c0-3.2 0-8 1.6-12.8 0-4.8 1.6-9.6 1.6-16v-22.4c0-11.2 4.8-22.4 12.8-35.2 8-12.8 19.2-24 30.4-36.8 11.2-9.6 24-20.8 38.4-32 14.4-11.2 27.2-19.2 40-25.6 20.8-12.8 41.6-17.6 60.8-16 19.2 1.6 38.4 6.4 56 14.4s33.6 19.2 49.6 30.4c16 12.8 30.4 24 43.2 35.2 6.4 4.8 16 12.8 25.6 22.4 9.6 9.6 19.2 17.6 28.8 27.2 9.6 8 19.2 16 28.8 22.4 9.6 6.4 17.6 9.6 25.6 9.6 6.4 0 16-1.6 24-8 9.6-6.4 19.2-12.8 28.8-22.4s20.8-19.2 30.4-28.8c11.2-9.6 20.8-19.2 30.4-27.2 17.6-14.4 33.6-27.2 48-38.4 14.4-11.2 28.8-20.8 41.6-27.2 12.8-6.4 27.2-9.6 40-9.6s27.2 4.8 41.6 12.8c8 4.8 19.2 12.8 35.2 24 16 11.2 32 24 48 36.8 16 12.8 30.4 27.2 43.2 40s20.8 25.6 22.4 36.8c1.6 8 1.6 14.4 3.2 20.8s1.6 11.2 1.6 16c1.6 4.8 1.6 9.6 1.6 12.8z m-609.6-30.4c-153.6-65.6-179.2 88-179.2 132.8 8 12.8 148.8-20.8 209.6-49.6 14.4-11.2 51.2-33.6-30.4-83.2z m336 0c-68.8 41.6-56 60.8-32 81.6 24 20.8 203.2 62.4 211.2 51.2 3.2-20.8-17.6-203.2-179.2-132.8z"  horiz-adv-x="1024" />
      
      <glyph glyph-name="n-networkoperation" unicode="&#59076;" d="M520 734.4c76.8 0 148.8-24 206.4-65.6 84.8 33.6 144 43.2 179.2 35.2 40-8 57.6-33.6 54.4-68.8-1.6-24-16-52.8-40-84.8-65.6-86.4-222.4-209.6-444.8-318.4 140.8 19.2 272 65.6 395.2 144-4.8-188.8-160-340.8-350.4-340.8-94.4 0-179.2 36.8-241.6 97.6-75.2-27.2-126.4-35.2-158.4-28.8-40 8-57.6 32-56 68.8 1.6 24 16 52.8 40 86.4 65.6 84.8 222.4 209.6 444.8 318.4-132.8-17.6-256-60.8-372.8-131.2 30.4 163.2 172.8 288 344 288zM230.4 188.79999999999995c-14.4 20.8-25.6 44.8-36.8 68.8-12.8-14.4-25.6-27.2-35.2-40-14.4-19.2-24-35.2-25.6-46.4 19.2-3.2 51.2 1.6 97.6 17.6zM784 616c17.6-20.8 32-41.6 44.8-65.6 14.4 14.4 25.6 27.2 36.8 40 14.4 19.2 24 35.2 25.6 44.8-20.8 4.8-54.4-1.6-107.2-19.2z"  horiz-adv-x="1024" />
      
      <glyph glyph-name="n-attackimplement" unicode="&#59077;" d="M808 752l-672-686.4 81.6-81.6 264 262.4 105.6-107.2 219.2 222.4c107.2 108.8 107.2 283.2 1.6 390.4z"  horiz-adv-x="1024" />
      
      <glyph glyph-name="S-yujiancejixian" unicode="&#59054;" d="M794.666667-106.666667H250.666667A207.573333 207.573333 0 0 0 42.666667 101.333333V645.333333C42.666667 760.533333 135.466667 853.333333 250.666667 853.333333h544c115.2 0 208-92.8 208-208v-544c0-115.2-92.8-208-208-208zM512 725.333333a341.333333 341.333333 0 0 1-276.224-541.738666l238.250667 185.216a40.96 40.96 0 1 0 37.973333-25.770667 40.362667 40.362667 0 0 0-19.797333 5.290667l-239.36-186.112A340.309333 340.309333 0 0 1 512 42.666667a341.333333 341.333333 0 0 1 0 682.666666"  horiz-adv-x="1024" />
      
      <glyph glyph-name="S-Aviraxiaohongsan" unicode="&#59055;" d="M784-96H240A207.573333 207.573333 0 0 0 32 112V656C32 771.2 124.8 864 240 864h544c115.2 0 208-92.8 208-208v-544c0-115.2-92.8-208-208-208zM823.253333 319.36l-1.706666 1.92-58.624-55.637333a40.832 40.832 0 0 0-1.536-57.813334 41.002667 41.002667 0 0 0-57.898667 1.450667 55.765333 55.765333 0 0 0-5.248 5.376l-157.653333 166.229333 215.082666 204.117334c-134.4 126.549333-345.173333 132.138667-476.714666 4.864-131.456-127.232-147.754667-333.312-23.893334-479.914667l226.133334 214.528 166.016-175.018667a123.050667 123.050667 0 0 1 88.32-32.768 118.698667 118.698667 0 0 1 78.506666 32.853334c24.746667 23.338667 39.552 56.32 39.253334 89.6a120.021333 120.021333 0 0 1-30.037334 80.213333z m-202.538666 245.76l-338.773334-321.450667c-114.048 201.642667 124.714667 443.221333 338.773334 321.450667z"  horiz-adv-x="1024" />
      
      <glyph glyph-name="S-ziyanloudongyinqing" unicode="&#59042;" d="M784-96H240A207.573333 207.573333 0 0 0 32 112V656C32 771.2 124.8 864 240 864h544c115.2 0 208-92.8 208-208v-544c0-115.2-92.8-208-208-208zM619.093333 538.794667A104.32 104.32 0 1 0 448.768 659.2a104.32 104.32 0 0 0 170.325333-120.405333M338.602667 319.829333a42.752 42.752 0 1 0-78.250667 34.56 42.752 42.752 0 0 0 78.250667-34.56m370.432 342.869334a341.333333 341.333333 0 0 1-394.069334-557.397334 339.84 339.84 0 0 1 229.674667-60.928 79.573333 79.573333 0 1 0 147.712 49.792 341.333333 341.333333 0 0 1 16.64 568.576"  horiz-adv-x="1024" />
      
      <glyph glyph-name="danger" unicode="&#59034;" d="M512 832L32-64h960L512 832z m-38.4-352c0 20.8 17.6 38.4 38.4 38.4s38.4-17.6 38.4-38.4v-192c0-20.8-17.6-38.4-38.4-38.4s-38.4 17.6-38.4 38.4V480zM512 64c-28.8 0-51.2 22.4-51.2 51.2s22.4 51.2 51.2 51.2 51.2-22.4 51.2-51.2S540.8 64 512 64z"  horiz-adv-x="1024" />
      
      <glyph glyph-name="warning" unicode="&#59037;" d="M512 832C264 832 64 632 64 384s200-448 448-448 448 200 448 448S760 832 512 832z m-38.4-224c0 20.8 17.6 38.4 38.4 38.4s38.4-17.6 38.4-38.4v-256c0-20.8-17.6-38.4-38.4-38.4s-38.4 17.6-38.4 38.4V608zM512 128c-28.8 0-51.2 22.4-51.2 51.2s22.4 51.2 51.2 51.2 51.2-22.4 51.2-51.2S540.8 128 512 128z"  horiz-adv-x="1024" />
      
      <glyph glyph-name="running" unicode="&#59052;" d="M512 768C299.2 768 128 596.8 128 384s171.2-384 384-384 384 171.2 384 384S724.8 768 512 768z m-80-512V512l224-128-224-128z"  horiz-adv-x="1024" />
      
      <glyph glyph-name="success" unicode="&#59033;" d="M512 832C264 832 64 632 64 384s200-448 448-448 448 200 448 448S760 832 512 832z m241.6-344L459.2 193.60000000000002c-8-8-17.6-11.2-27.2-11.2s-19.2 3.2-27.2 11.2l-136 136c-14.4 14.4-14.4 40 0 54.4 14.4 14.4 40 14.4 54.4 0l108.8-108.8 267.2 267.2c14.4 14.4 40 14.4 54.4 0 16-14.4 16-40 0-54.4z"  horiz-adv-x="1024" />
      
      <glyph glyph-name="info" unicode="&#59035;" d="M512 832C264 832 64 632 64 384s200-448 448-448 448 200 448 448S760 832 512 832z m0-185.6c28.8 0 51.2-22.4 51.2-51.2S540.8 544 512 544s-51.2 22.4-51.2 51.2 22.4 51.2 51.2 51.2z m64-500.8h-128c-20.8 0-38.4 17.6-38.4 38.4s17.6 38.4 38.4 38.4h25.6V401.6c-17.6 3.2-32 19.2-32 38.4 0 20.8 17.6 38.4 38.4 38.4h32c20.8 0 38.4-17.6 38.4-38.4v-217.6H576c20.8 0 38.4-17.6 38.4-38.4s-17.6-38.4-38.4-38.4z"  horiz-adv-x="1024" />
      
      <glyph glyph-name="stop" unicode="&#59051;" d="M352 755.2c-28.8 0-51.2-22.4-51.2-51.2v-640c0-28.8 22.4-51.2 51.2-51.2s51.2 22.4 51.2 51.2V704c0 28.8-22.4 51.2-51.2 51.2zM672 755.2c-28.8 0-51.2-22.4-51.2-51.2v-640c0-28.8 22.4-51.2 51.2-51.2s51.2 22.4 51.2 51.2V704c0 28.8-22.4 51.2-51.2 51.2z"  horiz-adv-x="1024" />
      
      <glyph glyph-name="allow" unicode="&#59053;" d="M819.2 601.6c-19.2 19.2-52.8 19.2-72 0L420.8 275.20000000000005l-145.6 145.6c-19.2 19.2-52.8 19.2-72 0-19.2-19.2-19.2-52.8 0-72L384 168c9.6-9.6 22.4-14.4 36.8-14.4s25.6 4.8 36.8 14.4l361.6 361.6c20.8 19.2 20.8 51.2 0 72z"  horiz-adv-x="1024" />
      
      <glyph glyph-name="fault" unicode="&#59036;" d="M512 832C264 832 64 632 64 384s200-448 448-448 448 200 448 448S760 832 512 832z m196.8-590.4c14.4-14.4 14.4-40 0-54.4-8-8-17.6-11.2-27.2-11.2s-19.2 3.2-27.2 11.2L512 329.6l-142.4-142.4c-8-8-17.6-11.2-27.2-11.2s-19.2 3.2-27.2 11.2c-14.4 14.4-14.4 40 0 54.4l142.4 142.4-142.4 142.4c-14.4 14.4-14.4 40 0 54.4 14.4 14.4 40 14.4 54.4 0l142.4-142.4 142.4 142.4c14.4 14.4 40 14.4 54.4 0 14.4-14.4 14.4-40 0-54.4L566.4 384l142.4-142.4z"  horiz-adv-x="1024" />
      
      <glyph glyph-name="wh-installandupgrade" unicode="&#59027;" d="M907.2 627.2l-70.4 112c-9.6 14.4-25.6 24-43.2 24H230.4c-17.6 0-33.6-9.6-43.2-24l-70.4-112c-4.8-8-8-17.6-8-27.2v-516.8c0-43.2 35.2-80 80-80h648c43.2 0 80 35.2 80 80V600c-1.6 9.6-4.8 19.2-9.6 27.2z m-676.8 84.8h563.2l54.4-86.4H176l54.4 86.4zM864 571.2v-488c0-16-12.8-28.8-28.8-28.8H188.8c-16 0-28.8 12.8-28.8 28.8V571.2v3.2h704v-3.2zM372.8 294.4c6.4 0 12.8 3.2 17.6 8l94.4 94.4V176c0-14.4 11.2-25.6 25.6-25.6s25.6 11.2 25.6 25.6V396.8l94.4-94.4c4.8-4.8 11.2-8 17.6-8s12.8 3.2 17.6 8c9.6 9.6 9.6 25.6 0 36.8l-139.2 139.2c-9.6 9.6-25.6 9.6-36.8 0l-139.2-139.2c-9.6-9.6-9.6-25.6 0-36.8 9.6-4.8 16-8 22.4-8z"  horiz-adv-x="1024" />
      
      <glyph glyph-name="wh-grouping" unicode="&#59032;" d="M868.8 499.2H379.2c-35.2 0-62.4-28.8-62.4-62.4v-104c0-35.2 28.8-62.4 62.4-62.4h488c35.2 0 62.4 28.8 62.4 62.4v104c1.6 33.6-27.2 62.4-60.8 62.4z m11.2-168c0-6.4-4.8-11.2-11.2-11.2H379.2c-6.4 0-11.2 4.8-11.2 11.2v104c0 6.4 4.8 11.2 11.2 11.2h488c6.4 0 11.2-4.8 11.2-11.2v-104zM868.8 227.20000000000005H379.2c-35.2 0-62.4-28.8-62.4-62.4v-104c0-35.2 28.8-62.4 62.4-62.4h488c35.2 0 62.4 28.8 62.4 62.4v104c1.6 33.6-27.2 62.4-60.8 62.4z m11.2-168c0-6.4-4.8-11.2-11.2-11.2H379.2c-6.4 0-11.2 4.8-11.2 11.2v104c0 6.4 4.8 11.2 11.2 11.2h488c6.4 0 11.2-4.8 11.2-11.2v-104zM868.8 771.2H379.2c-35.2 0-62.4-28.8-62.4-62.4v-104c0-35.2 28.8-62.4 62.4-62.4h488c35.2 0 62.4 28.8 62.4 62.4v104c1.6 33.6-27.2 62.4-60.8 62.4z m11.2-168c0-6.4-4.8-11.2-11.2-11.2H379.2c-6.4 0-11.2 4.8-11.2 11.2v104c0 6.4 4.8 11.2 11.2 11.2h488c6.4 0 11.2-4.8 11.2-11.2v-104zM240 630.4c14.4 0 25.6 11.2 25.6 25.6s-11.2 25.6-25.6 25.6H112c-14.4 0-25.6-11.2-25.6-25.6V115.20000000000005c0-14.4 11.2-25.6 25.6-25.6h128c14.4 0 25.6 11.2 25.6 25.6s-11.2 25.6-25.6 25.6H137.6V358.4H240c14.4 0 25.6 11.2 25.6 25.6s-11.2 25.6-25.6 25.6H137.6V630.4H240z"  horiz-adv-x="1024" />
      
      <glyph glyph-name="wh-Storageandbackup" unicode="&#59021;" d="M889.6 665.6c0 94.4-190.4 144-377.6 144s-377.6-49.6-377.6-144v-564.8c0-94.4 190.4-144 377.6-144s377.6 49.6 377.6 144V665.6zM512 758.4c200 0 326.4-54.4 326.4-92.8s-126.4-92.8-326.4-92.8-326.4 54.4-326.4 92.8S312 758.4 512 758.4z m0-748.8c-200 0-326.4 54.4-326.4 92.8v96c68.8-44.8 198.4-67.2 326.4-67.2s257.6 22.4 326.4 67.2v-96c0-38.4-126.4-92.8-326.4-92.8z m0 171.2c-200 0-326.4 54.4-326.4 92.8v121.6c68.8-44.8 198.4-67.2 326.4-67.2s257.6 22.4 326.4 67.2v-121.6c0-38.4-126.4-92.8-326.4-92.8z m0 196.8c-200 0-326.4 54.4-326.4 92.8V592c68.8-44.8 198.4-67.2 326.4-67.2s257.6 22.4 326.4 67.2v-121.6c0-38.4-126.4-92.8-326.4-92.8z"  horiz-adv-x="1024" />
      
      <glyph glyph-name="wh-notice" unicode="&#59026;" d="M854.4 102.39999999999998L832 144c-9.6 19.2-14.4 40-14.4 62.4V481.6c0 168-128 305.6-291.2 313.6-84.8 4.8-164.8-25.6-225.6-84.8-60.8-57.6-94.4-136-94.4-220.8V208c0-20.8-4.8-41.6-14.4-59.2l-22.4-46.4c-3.2-8-3.2-17.6 1.6-25.6s11.2-12.8 20.8-12.8h195.2c1.6-68.8 57.6-124.8 124.8-124.8 68.8 0 124.8 56 124.8 124.8H832c9.6 0 17.6 4.8 22.4 12.8 4.8 8 4.8 17.6 0 25.6zM512-8c-38.4 0-72 30.4-73.6 68.8h148.8c-3.2-38.4-36.8-68.8-75.2-68.8z m-278.4 123.2l4.8 9.6c12.8 25.6 19.2 54.4 19.2 83.2V489.6c0 70.4 28.8 136 78.4 184 51.2 48 116.8 73.6 187.2 70.4 136-6.4 241.6-121.6 241.6-262.4v-275.2c0-28.8 6.4-59.2 20.8-84.8l3.2-4.8H233.6z"  horiz-adv-x="1024" />
      
      </font>
</defs>
</svg>
