<svg xmlns="http://www.w3.org/2000/svg" viewBox="0 0 64 64"><defs><style>.cls-1{fill:#f6c84d;}</style></defs><g id="确认_转曲_" data-name="确认(转曲）"><rect class="cls-1" x="29.4" y="6" width="5.2" height="6.93"/><rect class="cls-1" x="17.27" y="9.25" width="5.2" height="6.93" transform="translate(-3.7 11.64) rotate(-30)"/><rect class="cls-1" x="8.38" y="18.13" width="5.2" height="6.93" transform="translate(-13.21 20.31) rotate(-60)"/><rect class="cls-1" x="49.55" y="19" width="6.93" height="5.2" transform="translate(-3.69 29.4) rotate(-30)"/><rect class="cls-1" x="40.66" y="10.11" width="6.93" height="5.2" transform="translate(11.05 44.57) rotate(-60)"/><path class="cls-1" d="M55.4,52.8H49.33V33.73a17.33,17.33,0,1,0-34.66,0V52.8H8.6a.87.87,0,0,0-.87.87v3.46A.87.87,0,0,0,8.6,58H55.4a.87.87,0,0,0,.87-.87V53.67A.87.87,0,0,0,55.4,52.8ZM39.19,33.58,30.36,43.87a.43.43,0,0,1-.75-.33l1-7.21h-5.5a.42.42,0,0,1-.28-.1.43.43,0,0,1-.05-.61l8.83-10.29a.43.43,0,0,1,.75.33l-1,7.21h5.5a.42.42,0,0,1,.28.1A.43.43,0,0,1,39.19,33.58Z"/></g></svg>