<svg xmlns="http://www.w3.org/2000/svg" viewBox="0 0 64 64"><defs><style>.cls-1{fill:#18ba79;fill-rule:evenodd;}</style></defs><g id="确认_转曲_" data-name="确认(转曲）"><path class="cls-1" d="M39,20H33.26v5.72H39Zm-3.17,5.41-1.63-.64a27.75,27.75,0,0,0,1.88-4.24l2,.73A42.89,42.89,0,0,1,35.84,25.41Z"/><path class="cls-1" d="M24.8,25.72h5.86V20H24.8Zm2.83-5.13a13.79,13.79,0,0,1,1.71,3.95l-1.77.68a14.09,14.09,0,0,0-1.62-4Z"/><path class="cls-1" d="M32,6,9.17,12.67V28.73C9.17,43.1,18.37,53.46,32,58c13.63-4.54,22.83-14.89,22.83-29.26V12.67ZM22,42.68l-2.47-1.1a12.36,12.36,0,0,0,3-4.65l2.53.65A14.74,14.74,0,0,1,22,42.68Zm5.8-.25a27.19,27.19,0,0,0-.44-4.63l2.43-.2a23.3,23.3,0,0,1,.59,4.52Zm-8.18-6.25v-2.3h11V31.83H21.88V29.76h8.78V27.88H22.33v-10H41.64v10H33.26v1.88h8.86v2.07H33.26v2.05H44.39v2.3Zm14.8,6.27A28.9,28.9,0,0,0,33,37.89l2.46-.51A24.81,24.81,0,0,1,37,41.84Zm7.6.23a28.7,28.7,0,0,0-3.42-4.93L41,36.93a31.14,31.14,0,0,1,3.59,4.77Z"/></g></svg>