<svg xmlns="http://www.w3.org/2000/svg" viewBox="0 0 64 64"><defs><style>.cls-1{fill:#18ba79;fill-rule:evenodd;}</style></defs><g id="确认_转曲_" data-name="确认(转曲）"><path class="cls-1" d="M41.75,17.15,27.85,31.3l6.49,6.6,7.41-7.54A9.43,9.43,0,0,0,41.75,17.15Zm-17.09,17L20,38.87a1.27,1.27,0,0,0,0,1.86l.93.93a1.29,1.29,0,0,0,1.86,0l4.71-4.72a1.29,1.29,0,0,0,0-1.86l-.93-.93A1.29,1.29,0,0,0,24.66,34.15ZM32,6l22.82,6.67V28.74C54.83,43.11,45.63,53.46,32,58,18.37,53.46,9.17,43.1,9.17,28.73V12.67Z"/></g></svg>